<?xml version="1.0" standalone="no"?>
<!DOCTYPE svg PUBLIC "-//W3C//DTD SVG 1.1//EN" "http://www.w3.org/Graphics/SVG/1.1/DTD/svg11.dtd" >
<svg xmlns="http://www.w3.org/2000/svg">
<metadata></metadata>
<defs>
<font id="CMUConcreteRoman" horiz-adv-x="1024" >
<font-face units-per-em="2048" ascent="1638" descent="-410" />
<missing-glyph horiz-adv-x="681" />
<glyph unicode="&#xfb01;" horiz-adv-x="1142" d="M43 0v121h170v698h-160v119h160v166q0 92 52 158.5t118 98.5t154 51q107 22 202 22h11q98 0 130 -77q25 -57 25 -105t-28.5 -69.5t-62.5 -21.5t-58.5 24.5t-24.5 49t14 63.5q-43 14 -115.5 14.5t-133 -20t-88 -44t-42.5 -61.5q-20 -48 -20 -97v-152h266v14l308 11v-842 h170v-121h-478v121h170v657q0 23 -7 32t-38 9h-387v-698h172v-121h-479z" />
<glyph unicode="&#xfb02;" horiz-adv-x="1142" d="M43 0v121h170v698h-160v119h160v166q0 94 51 161.5t135 102.5q158 66 349 66q59 0 98 -27l74 16v-1302h170v-121h-478v121h170v698h-432v-698h172v-121h-479zM346 938h436v293q-41 33 -43 80q-27 2 -75 2q-172 0 -245 -56.5t-73 -162.5v-156z" />
<glyph unicode="&#xfb03;" horiz-adv-x="1712" d="M43 0v121h170v698h-160v119h160v172q0 145 141.5 234.5t393.5 89.5q102 0 143 -113q166 113 428 113q63 0 101 -39t46.5 -74t8.5 -76t-28 -62.5t-61.5 -21.5t-59.5 24.5t-26 52t13 60.5q-43 14 -124 14.5t-148.5 -26t-90.5 -70.5q-37 -70 -37 -126v-152h267v14l309 11 v-842h170v-121h-479v121h172v657q0 23 -8.5 32t-38.5 9h-385v-698h170v-121h-478v121h170v698h-432v-698h172v-121h-479zM346 938h436v121l4 104q-59 29 -59 84q0 23 12 51q-43 14 -100 15q-227 0 -281 -133q-12 -29 -12 -88v-154z" />
<glyph unicode="&#xfb04;" horiz-adv-x="1712" d="M43 0v121h170v698h-160v119h160v158q0 86 43 151.5t102.5 99t139.5 55.5q121 32 245 32h2q113 0 148 -111q162 111 418 111q63 0 104 -27l74 16v-1302h170v-121h-479v121h172v698h-432v-698h170v-121h-478v121h170v698h-432v-698h172v-121h-479zM346 938h436v119 q0 104 15 143q-55 29 -56 80q0 16 2 27q-6 6 -92 6q-305 0 -305 -219v-156zM913 938h439v293q-41 33 -43 80q-23 2 -68 2h-24q-303 0 -304 -219v-156z" />
<glyph horiz-adv-x="0" />
<glyph horiz-adv-x="2048" />
<glyph unicode="&#xd;" horiz-adv-x="681" />
<glyph unicode=" "  horiz-adv-x="681" />
<glyph unicode="&#x09;" horiz-adv-x="681" />
<glyph unicode="&#xa0;" horiz-adv-x="681" />
<glyph unicode="!" horiz-adv-x="569" d="M174 110q0 46 33 76.5t76 30.5t74.5 -30.5t31.5 -76.5t-32.5 -77t-74.5 -31t-75 31t-33 77zM174 1331q0 55 34 84t76 29t74.5 -30t32.5 -81l-47 -882q-2 -41 -9 -51.5t-30 -10.5h-49q-35 0 -35 34z" />
<glyph unicode="&#x22;" d="M256 1363.5q0 31.5 26.5 52t50 20.5t40 -5.5t33 -28t16.5 -56.5l-23 -555h-120q-2 12 -12.5 276.5t-10.5 296zM600 1346q0 51 26.5 70.5t56.5 19.5t55.5 -19.5t25.5 -52t-10.5 -297t-12.5 -276.5h-118z" />
<glyph unicode="#" horiz-adv-x="1705" d="M115 300q0 60 78 60h331l80 304h-409q-80 0 -80 60t84 60h436l149 564q14 74 68 73q25 0 41 -17.5t16 -36.5t-24.5 -113.5t-64.5 -239t-60 -230.5h327l150 564q14 74 68 73q25 0 41 -17.5t16 -36.5t-24.5 -113.5t-64.5 -239t-61 -230.5h291q86 0 86 -60t-76 -60h-333 l-80 -304h409q80 0 80 -60t-84 -60h-438l-149 -564q-14 -74 -66 -73q-25 0 -41 17.5t-16 36.5t24.5 115.5t64.5 244t58 223.5h-328l-149 -564q-14 -74 -66 -73q-25 0 -41 17.5t-16 40t150 579.5h-281q-96 0 -96 60zM647 360h330l78 304h-328z" />
<glyph unicode="$" d="M113 383q0 53 26.5 72.5t58.5 19.5t55 -22.5t23 -60.5t-36 -68q20 -92 71 -141.5t140 -69.5v563q-78 16 -111 33q-94 41 -160.5 132t-66.5 227t89 239.5t249 122.5v106h120v-104q106 -14 179 -59.5t104 -106.5q53 -106 53 -178t-26.5 -92.5t-56.5 -20.5t-55.5 23.5 t-25.5 57.5t37 70q-37 154 -209 183v-504q175 -39 271 -179q67 -100 67 -231q0 -100 -51 -215q-31 -69 -104.5 -120.5t-182.5 -67.5v-105h-120v105q-166 18 -252 131t-86 260zM246 1064.5q0 -67.5 49 -134t156 -96.5v475q-134 -28 -177 -117q-28 -60 -28 -127.5zM571 115 q104 23 154.5 95.5t50.5 162.5t-48 164.5t-157 107.5v-530z" />
<glyph unicode="%" horiz-adv-x="1705" d="M113 1120q0 117 28.5 203t73.5 130q85 83 186 83q51 0 85 -14.5t81 -49.5q191 -145 406 -145t348 160q2 4 8 10t8 9t7 8q20 20 36 20q35 0 41 -47q23 -16 23 -29q0 -33 -101 -119q-6 -6 -17 -14t-15 -12q-16 -16 -33 -43l-905 -1342q-29 -39 -49 -39q-37 0 -37 39 q0 8 16 41l854 1270q-92 -25 -208.5 -25t-282.5 66q16 -86 16 -158q0 -215 -87 -313t-195 -98t-197.5 98t-89.5 311zM246 1120q0 -172 47 -230t108.5 -58.5t113.5 69.5t52 218t-50 222t-113.5 74t-110.5 -61.5t-47 -233.5zM1022 299q0 215 89 313.5t196.5 98.5t195.5 -97.5 t88 -314.5t-87 -314.5t-194.5 -97.5t-197.5 98.5t-90 313.5zM1155 299q0 -291 155 -291q64 0 115.5 68.5t51.5 217t-49.5 222.5t-116.5 74q-156 0 -156 -291z" />
<glyph unicode="&#x26;" horiz-adv-x="1599" d="M84 298q0 126 80 218q23 27 239 219q-70 180 -69.5 350.5t86.5 264.5t194.5 94t173 -92t64.5 -209q0 -180 -291 -428q37 -80 107 -183q110 -159 176 -231q4 4 23.5 31.5t21.5 31t19.5 27t21.5 31.5t20.5 33.5t26.5 45t29.5 53.5t40 72t46 85t58.5 108h-205v119h541v-119 h-213q-211 -414 -356 -594q147 -127 270 -127q70 0 119 43t55 121h115q-4 -127 -87 -206t-202 -79q-186 0 -359 154h-2q-164 -154 -370 -154q-160 0 -266.5 97.5t-106.5 223.5zM240 328q0 -92 71.5 -161t193.5 -69t247 107v2q-184 203 -297 411q-16 -14 -53 -45.5t-49.5 -43 t-38 -36t-34 -39t-20.5 -36.5q-20 -38 -20 -90zM459 1110.5q0 -111.5 53 -279.5q225 201 225 314q0 59 -30.5 118.5t-90 59.5t-108.5 -50.5t-49 -162z" />
<glyph unicode="'" horiz-adv-x="569" d="M201 1343q0 53 26.5 73t55.5 20q84 0 84 -90l-23 -555h-121z" />
<glyph unicode="(" horiz-adv-x="796" d="M166 512q0 328 98 581t273 412q33 31 67 31h31q41 0 41 -18q0 -8 -25.5 -35t-66.5 -74t-86 -113q-106 -158 -150.5 -381t-44.5 -416.5t38 -371.5t93 -283.5t110.5 -179.5t93.5 -111.5t38 -46.5q0 -18 -51 -18h-23q-23 0 -42 12.5t-68 63.5q-326 348 -326 948z" />
<glyph unicode=")" horiz-adv-x="796" d="M119 -494q0 8 38 46t92 113t109.5 180.5t93 281.5t37.5 383q0 621 -327 954q-43 43 -43 57.5t57 14.5h12q25 0 43.5 -11.5t63.5 -56.5q332 -342 332 -956q0 -330 -97.5 -583t-273.5 -412q-31 -29 -68 -29h-30q-39 0 -39 18z" />
<glyph unicode="*" d="M133 857.5q0 16.5 1 23t4 11.5t5 9t9.5 10.5t12.5 9.5t15 10t18.5 11t24 13.5t25.5 15.5l164 94v2q-8 4 -24.5 14.5t-68 40t-118.5 68.5t-67.5 71t19 51t42.5 19h4q22 0 118.5 -68.5t141.5 -99.5q-12 285 -12.5 311.5t20 43t44.5 16.5t44 -16.5t20 -43t-12 -311.5 q233 162 241.5 165t26 3t38 -20.5t20.5 -38.5t-5 -28.5t-10.5 -17.5t-19.5 -16.5t-21.5 -14.5t-29 -16.5t-34.5 -19.5q-90 -55 -161 -92v-2l219 -125q5 0 23 -12.5t21 -17.5t9 -11q9 -10 9 -33t-20.5 -43t-43.5 -20h-2q-22 0 -118.5 68.5t-141.5 99.5q12 -285 12 -311.5 t-21.5 -43t-38.5 -16.5t-29.5 4t-26 21.5t-13.5 39t13 306.5q-204 -143 -226 -155.5t-41.5 -12.5t-39 19t-19.5 35.5z" />
<glyph unicode="+" horiz-adv-x="1593" d="M115 513q0 60 78 60h542v533q0 86 60.5 86t60.5 -84v-535h535q84 0 84 -60t-82 -60h-537v-535q0 -86 -60 -86t-61 86v535h-545q-75 0 -75 60z" />
<glyph unicode="," horiz-adv-x="569" d="M174 120q0 34 31 64.5t78 30.5q72 0 101.5 -67.5t29.5 -158.5t-32 -183.5t-69 -144.5t-54 -52t-46 27.5t-29 40t27 50t54.5 109.5t27.5 164q-47 2 -76 23.5t-36 42t-7 54.5z" />
<glyph unicode="-" horiz-adv-x="681" d="M20 399v140h545v-140h-545z" />
<glyph unicode="." horiz-adv-x="569" d="M174 110q0 42 31 73.5t77 31.5t77.5 -32.5t31.5 -74.5t-31.5 -75t-76.5 -33t-77 34t-32 76z" />
<glyph unicode="/" d="M115 -455.5q0 20.5 20 78.5l647 1850q23 61 66 61q25 0 42 -17.5t17 -35.5t-16 -68l-647 -1843q-24 -80 -72 -80q-23 0 -40 17t-17 37.5z" />
<glyph unicode="0" d="M86 666.5q0 402.5 137 556.5q111 119 294 118.5t290 -131.5q127 -156 127 -564.5t-141 -555.5q-106 -113 -289.5 -113t-290.5 132q-127 155 -127 557.5zM240 672q0 -371 82 -479q68 -94 190.5 -94.5t189.5 100.5q78 113 78 477q0 106 -2 167.5t-20.5 147.5t-52.5 135 q-70 96 -198 96q-199 1 -246 -238q-17 -87 -19 -147.5t-2 -164.5z" />
<glyph unicode="1" d="M197 1090v120q94 2 162.5 22.5t96.5 45.5q72 63 103 63t39 -14t8 -49v-1157h256v-121h-655v121h256v1042q-112 -69 -266 -73z" />
<glyph unicode="2" d="M102 0v76q0 31 19.5 53.5t114 113.5t169 160.5t106.5 101.5t84 85t74.5 86t48.5 78q46 77 46 174q0 141 -105.5 218t-230.5 77q-143 0 -197 -181q45 -35 45 -72.5t-26.5 -63t-52 -25.5t-43 6t-35 29.5t-17.5 64.5q0 127 103.5 243.5t285.5 116.5t306.5 -115.5 t124.5 -293.5q0 -154 -119 -286q-58 -64 -146 -144t-116 -107l-265 -248h279l207 5l22 94l17 102h121l-58 -348h-762z" />
<glyph unicode="3" d="M84 301q0 51 28.5 72.5t61.5 21.5t59.5 -24.5t26.5 -64.5t-39 -73q82 -141 289 -141q133 0 199.5 77t66.5 200t-57 195q-71 89 -238 89h-90q-39 0 -45 11.5t-6 53t8 49t36 9.5t68 4q140 7 216 104q59 77 59 166t-56.5 136t-160.5 47q-152 0 -229 -90l17 -21 q13 -16 13 -50t-24.5 -57.5t-61.5 -23.5t-60.5 24.5t-23.5 65.5q0 111 105.5 185.5t269.5 74.5t263.5 -79.5t99.5 -210.5q0 -209 -213 -338q125 -33 197.5 -124t72.5 -235.5t-109.5 -260.5t-302 -116t-316.5 94.5t-124 229.5z" />
<glyph unicode="4" d="M55 356v88q0 35 23 68l493 772q27 41 38.5 50t37.5 12h49q56 0 56 -54v-817h213v-119h-213v-235h198v-121h-538v121h198v235h-555zM197 475h424v717q-35 -103 -299 -518q-105 -164 -125 -199z" />
<glyph unicode="5" d="M102 299q0 47 28 68.5t60.5 21.5t56 -25.5t23.5 -59.5t-34 -68q31 -63 96 -103.5t167.5 -40.5t184.5 72t82 246q0 307 -227 307h-2q-143 0 -230 -103q-16 -23 -27.5 -28.5t-46 -5.5t-45 12t-10.5 51v643q0 51 23 51q8 0 48 -15q123 -46 235 -46t180.5 15.5t106.5 30.5 t48 15q23 0 23 -43v-30q0 -18 -4 -26q-11 -23 -130.5 -62t-225 -39t-183.5 18v-395q115 78 240 78q172 0 276.5 -118t104.5 -315.5t-123 -312.5t-305.5 -115t-286 101.5t-103.5 220.5z" />
<glyph unicode="6" d="M92 611.5q0 195.5 35 319.5t90 198.5t128 124.5q125 87 270 87t208.5 -64.5t63.5 -141.5q0 -47 -26.5 -67.5t-58.5 -20.5t-56.5 22.5t-24.5 55t27 65.5q-49 43 -116.5 43t-127.5 -23.5t-118 -76t-96 -157t-40 -245.5q131 160 340 160q184 0 284 -182q57 -104 57.5 -278.5 t-81.5 -287.5q-125 -166 -332 -166q-276 0 -379 299q-47 140 -47 335.5zM258 489.5q0 -106.5 19.5 -187.5t81 -145.5t172 -64.5t177.5 83t66 255v43q0 78 -19.5 140.5t-76.5 109.5t-164 47t-181.5 -87t-74.5 -193.5z" />
<glyph unicode="7" d="M113 973l67 413h121v-28l12 -35l115 -2h565v-57q0 -33 -4 -44.5t-126 -177t-150 -211.5q-90 -139 -130 -320q-51 -231 -51 -474q-16 -57 -79 -57q-29 0 -53.5 20t-26.5 41.5t-1 82t13 153t26.5 161t48.5 149.5t53 125t70.5 122.5t73 108.5t85 116t81.5 112h-436l-115 -4 q-8 -23 -39 -194h-120z" />
<glyph unicode="8" d="M84 334q0 248 278 383q-2 2 -29.5 19.5t-40.5 26.5t-41 30.5t-42 43t-33 49.5q-35 55 -35 138q0 143 100.5 230t269.5 87t268.5 -82.5t99.5 -222.5q0 -137 -89 -219q-65 -60 -141 -102q42 -21 72.5 -43.5t64 -47t48 -41t39 -46t35.5 -55.5q28 -72 28 -138 q0 -166 -115.5 -266.5t-311.5 -100.5t-310.5 97.5t-114.5 259.5zM221 336q0 -119 82 -181.5t212 -62.5t206 61.5t76 168.5q0 92 -71 154q-26 22 -31 25t-33.5 21t-65.5 43t-52.5 35t-31.5 19.5t-23.5 12.5t-15.5 3t-32.5 -10.5t-62.5 -34t-73 -56t-59.5 -86t-24.5 -112.5z M266 1058q0 -85 94 -156q25 -19 39.5 -27.5t48.5 -30.5q80 -51 93.5 -51t59.5 22.5t99.5 81.5t53.5 146t-70 138.5t-173 51.5t-174 -45t-71 -130z" />
<glyph unicode="9" d="M92 885q0 176 74 280q123 176 339 176q425 0 427 -667q0 -197 -49 -340.5t-129 -217.5q-152 -139 -317 -139t-232.5 63.5t-67.5 143.5q0 47 28 68.5t58.5 21.5t54 -22.5t23.5 -54t-22 -64.5q57 -41 143 -41q125 0 207 80t111.5 185.5t31.5 232.5q-133 -160 -340 -160 q-178 0 -280 176q-60 103 -60 279zM248 848q0 -123 56 -210t185.5 -87t203 89t73.5 226.5t-58.5 252t-191.5 114.5t-201 -86q-43 -53 -55 -110.5t-12 -147.5v-41z" />
<glyph unicode=":" horiz-adv-x="569" d="M174 110q0 42 31 73.5t77 31.5t77.5 -32.5t31.5 -74.5t-31.5 -75t-76.5 -33t-77 34t-32 76zM174 831q0 42 31 73.5t77 31.5t77.5 -32.5t31.5 -74.5t-31.5 -75t-76.5 -33t-77 34t-32 76z" />
<glyph unicode=";" horiz-adv-x="569" d="M174 120q0 34 31 64.5t78 30.5q72 0 101.5 -67.5t29.5 -158.5t-32 -183.5t-69 -144.5t-54 -52t-46 27.5t-29 40t27 50t54.5 109.5t27.5 164q-47 2 -76 23.5t-36 42t-7 54.5zM174 831q0 42 31 73.5t77 31.5t77.5 -32.5t31.5 -74.5t-31.5 -75t-76.5 -33t-77 34t-32 76z" />
<glyph unicode="&#x3c;" horiz-adv-x="1593" d="M172 513q0 7 2 14.5t6 12.5t9.5 11t9.5 10t12 8t11 7q6 5 18 8l1044 542q61 31 82 31t37 -17.5t16 -33.5t-2 -23.5t-5 -12.5t-9 -11t-10 -9t-12.5 -8.5t-11.5 -7.5q-15 -10 -21 -10l-836 -434q-82 -45 -152 -78q25 -12 152 -78l836 -434q72 -33 71 -74q0 -25 -16.5 -42 t-36.5 -17t-82 31l-1044 542q-2 0 -7.5 3t-8.5 4.5t-9 5.5t-10 7t-10.5 7t-9.5 9t-6 10.5t-5 12.5t-2 14z" />
<glyph unicode="=" horiz-adv-x="1593" d="M115 300q0 60 75 60h1209q76 0 76 -61q-2 -59 -80 -59h-1198q-82 0 -82 60zM115 724q0 60 82 60h1198q80 0 80 -61q-2 -59 -78 -59h-1204q-78 0 -78 60z" />
<glyph unicode="&#x3e;" horiz-adv-x="1593" d="M172 -74q0 41 72 74l835 434q127 66 152 78q-25 12 -152 78l-835 434q-72 33 -72 74q0 25 16.5 42t36.5 17t82 -31l1045 -542q2 0 7 -3t8 -4.5t9 -5.5q10 -7 18.5 -12.5t11.5 -10.5l6 -10q7 -13 7 -23.5t-2 -18t-6 -12.5t-9 -11t-9 -10t-12.5 -8t-11.5 -6.5t-9 -6.5 l-8 -2l-1080 -561q-25 -12 -46.5 -12t-37.5 17t-16 42z" />
<glyph unicode="?" horiz-adv-x="966" d="M113 1139q0 104 92 199.5t256 95.5q240 0 322 -108q69 -91 69 -194.5t-57 -179.5q-4 -6 -86 -78q-192 -167 -195 -372v-72q0 -27 -8 -34t-41 -7h-27q-31 0 -38 9.5t-7 35.5v23q0 88 10 149q38 227 219 377q15 12 19 16.5t16.5 17.5t16.5 22.5t11 24.5q11 24 11 71 q0 98 -57 139t-172 41q-156 0 -219 -117q29 -29 28.5 -65.5t-24 -59t-55 -22.5t-58 20.5t-26.5 67.5zM346 110q0 46 33 76.5t76 30.5t74.5 -30.5t31.5 -76.5t-32.5 -77t-74.5 -31t-75 31t-33 77z" />
<glyph unicode="@" horiz-adv-x="1593" d="M113 715q0 324 187 521.5t493.5 197.5t495 -197t188.5 -530q0 -193 -61.5 -323t-190.5 -130q-104 0 -146 119q-119 -119 -291.5 -119t-287.5 123t-115 334t113.5 333.5t294.5 122.5q215 0 323 -166q26 -42 60 -36q28 5 28 -37v-457q0 -94 53 -94q106 0 107 278l-2 39 q0 141 -37 253t-95.5 178.5t-135.5 110.5q-136 77 -299 77q-254 0 -411 -163t-157 -435t154 -439t424 -167q241 0 469 67q76 23 108 23h43q47 0 48 -17q0 -14 -35 -32q-295 -160 -628 -160t-515 200.5t-182 524.5zM522 704q0 -163 82 -246t194 -83t191.5 76.5t79.5 195.5 v125q0 123 -81 200t-198.5 77t-192.5 -91t-75 -254z" />
<glyph unicode="A" horiz-adv-x="1513" d="M70 0v121h174l422 1227q16 49 30.5 62t53.5 13h12q39 0 53 -14t23 -37l430 -1251h174v-121h-481v121h151l-111 317h-522l-108 -317h149v-121h-450zM522 559h439l-220 635z" />
<glyph unicode="B" horiz-adv-x="1439" d="M102 0v121h183v1159h-183v119h689q139 0 239 -36t148 -95q88 -105 88 -221q0 -229 -289 -316q152 -20 249 -113.5t97 -244t-106.5 -252t-280.5 -117.5q-35 -4 -105 -4h-729zM428 121h363q209 0 292.5 80t83.5 184q0 87 -57 172q-33 49 -108.5 80t-184.5 31h-389v-547z M428 788h305l19 -2q188 0 276 79t88 175t-72.5 168t-255.5 72h-360v-492z" />
<glyph unicode="C" horiz-adv-x="1478" d="M113 705q0 333 195.5 524.5t488.5 191.5q238 0 417 -186q18 35 49 96.5t41.5 74.5t28.5 13h4q27 0 27 -43v-452q0 -31 -11.5 -38t-49.5 -7t-48 5t-14 27q-27 162 -128 275.5t-265 113.5q-209 0 -378 -120q-89 -64 -143.5 -188t-54.5 -295t55.5 -294.5t146.5 -186.5 q173 -118 380 -118q162 0 267.5 101.5t119.5 242.5q2 37 10.5 45.5t40.5 8.5h27q45 0 45 -37q0 -102 -60.5 -210t-194.5 -190t-310 -82q-305 0 -495.5 197.5t-190.5 530.5z" />
<glyph unicode="D" horiz-adv-x="1552" d="M100 0v121h183v1159h-183v119h672q154 0 273.5 -45t191.5 -116t119 -167q82 -167 82 -385q0 -121 -46 -286q-28 -97 -98.5 -185t-192.5 -151.5t-331 -63.5h-670zM430 121h315q154 0 263.5 47t167.5 131q106 156 106 389q0 320 -162 469q-133 123 -375 123h-315v-1159z " />
<glyph unicode="E" horiz-adv-x="1382" d="M98 0v121h183v1153h-183v119h1112l58 -519h-121q-29 262 -43 312.5t-34 63.5q-38 24 -333 24h-303v-490h158q182 0 202 16q27 21 27 204v20h119v-600h-119v20q0 185 -23.5 202t-203.5 18h-160v-543h328q225 0 284.5 10t80 46t46 204t31.5 203h121l-86 -584h-1141z" />
<glyph unicode="F" horiz-adv-x="1325" d="M98 0v121h183v1153h-183v119h1084l55 -519h-119q-28 266 -45.5 318.5t-29 58.5t-39.5 11h-3q-84 12 -278 12h-289v-516h191q127 0 151.5 11t28.5 85t4 121v20h119v-598h-119v23q0 115 -5 154.5t-28 51t-201 11.5h-141v-516h228v-121h-564z" />
<glyph unicode="G" horiz-adv-x="1601" d="M113 708.5q0 329.5 196.5 521t487.5 191.5q242 0 417 -186q18 35 49 96.5t41.5 74.5t28.5 13h4q27 0 27 -43v-452q0 -31 -10.5 -38t-44 -7t-45 2t-17.5 11t-6 22q0 38 -30.5 123t-122 174t-236.5 89q-285 0 -448 -182q-58 -65 -95 -173.5t-37 -248.5q0 -283 156 -440.5 t428 -157.5t334 99q18 33 18 92v188h-256v119h553v-119h-141v-438q0 -33 -16 -33q-29 0 -88 92q-152 -121 -463.5 -121t-497.5 201t-186 530.5z" />
<glyph unicode="H" horiz-adv-x="1513" d="M98 0v121h183v1159h-183v119h520v-119h-182v-492h641v492h-182v119h518v-119h-182v-1159h182v-121h-518v121h182v547h-641v-547h182v-121h-520z" />
<glyph unicode="I" horiz-adv-x="716" d="M90 0v121h191v1159h-191v119h537v-119h-191v-1159h191v-121h-537z" />
<glyph unicode="J" horiz-adv-x="1040" d="M135 227q0 45 26.5 68.5t61.5 23.5t61.5 -24.5t26.5 -60.5t-30 -70q66 -66 174 -66q103 0 147 64q31 45 38 83t7 72v963h-237v119h522v-119h-137v-967q0 -190 -117 -269q-99 -67 -228.5 -67t-222 74t-92.5 176z" />
<glyph unicode="K" horiz-adv-x="1570" d="M102 0v121h183v1159h-183v119h512v-119h-182v-662l674 662h-115v119h463v-119h-151q-27 0 -38.5 -7t-43.5 -40l-406 -397l483 -686q20 -27 50 -29h137v-121h-438v121h112l-438 620q-279 -274 -281 -278q-8 -16 -8 -49v-293h182v-121h-512z" />
<glyph unicode="L" horiz-adv-x="1267" d="M98 0v121h183v1159h-183v119h564v-119h-228v-1159h262q205 4 253 16.5t65.5 79t46.5 367.5h121l-58 -584h-1026z" />
<glyph unicode="M" horiz-adv-x="1855" d="M111 0v121h182v1159h-182v119h311q33 0 48 -10.5t28 -42.5l428 -1176q12 39 41 117l387 1059q12 33 27.5 43t48.5 10h311v-119h-182v-1159h182v-121h-494v121h183v983l-3 145q-8 -25 -24.5 -69.5t-20.5 -57.5l-391 -1069q-10 -31 -24.5 -41t-49 -11t-49 11.5t-32.5 61.5 l-424 1159v-1112h182v-121h-483z" />
<glyph unicode="N" horiz-adv-x="1513" d="M102 0v121h183v1159h-183v119h277q43 0 67 -39l662 -1073v993h-182v119h485v-119h-182v-1214q0 -23 -1 -33t-13.5 -21.5t-38.5 -11.5h-13q-29 0 -41 8t-26 33l-690 1122v-1042h182v-121h-486z" />
<glyph unicode="O" horiz-adv-x="1593" d="M113 697q0 329 187 526.5t494.5 197.5t495 -197.5t187.5 -528.5t-189.5 -524.5t-495.5 -193.5t-492.5 195.5t-186.5 524.5zM272 717q0 -168 49.5 -295t132.5 -192q156 -124 341 -124q152 0 278 77q72 44 124 110.5t86 178.5t34 262.5t-48 267t-128 178t-165 89 t-179.5 27.5t-179.5 -27.5t-166.5 -88t-130 -178t-48.5 -285.5z" />
<glyph unicode="P" horiz-adv-x="1382" d="M100 0v121h183v1159h-183v119h674q231 0 362.5 -114t131.5 -296q0 -141 -98 -264q-52 -66 -156.5 -105.5t-249.5 -39.5h-328v-459h182v-121h-518zM430 700h272q131 0 220.5 24t136.5 96.5t47 170.5q0 164 -121 236q-88 53 -278 53h-277v-580z" />
<glyph unicode="Q" horiz-adv-x="1593" d="M113 695q0 331 187 528.5t489.5 197.5t495 -192.5t192.5 -532.5q0 -190 -78 -368q-43 -99 -132 -180.5t-214 -127.5q14 -53 19 -74.5t22.5 -65.5t35.5 -64q48 -54 114.5 -54t118.5 55.5t62 153.5q0 57 31 58q12 0 22.5 -12.5t10.5 -50t-12.5 -97t-38 -123t-78.5 -103.5 t-125 -40q-92 0 -139 53q-19 20 -31 33.5t-24.5 45.5t-18.5 47t-15.5 54t-12.5 52.5t-11 56.5t-10 53q-106 -20 -178 -21q-303 0 -492.5 193.5t-189.5 524.5zM266 692q0 -426 328 -555v21q0 82 62.5 132t140.5 50q152 0 219 -195q307 135 307 543q0 143 -36 255t-90 176.5 t-127 106.5q-122 70 -275 70q-198 0 -349 -122q-81 -64 -130.5 -188t-49.5 -294zM715 162.5q0 -22.5 20.5 -41.5t69.5 -19t131 17q-47 100 -137 100q-37 0 -60.5 -17t-23.5 -39.5z" />
<glyph unicode="R" horiz-adv-x="1497" d="M100 0v121h183v1159h-183v119h572q362 0 497 -181q68 -92 68 -197t-61.5 -193.5t-184.5 -139.5q49 -28 85 -66t48.5 -66t18.5 -44t10 -52t5 -52q3 -50 4 -148t63 -141q31 -20 59 -21q68 0 82 80l5 22q5 24 20.5 26.5t32.5 2.5t24.5 -1t19.5 -4q19 -5 19 -38 q0 -70 -51.5 -139.5t-147.5 -69.5q-99 0 -183 55q-46 31 -75 94.5t-29 154.5v129q0 68 -20 102q-76 127 -305 127h-246v-518h182v-121h-512zM430 760h232q297 0 378 129q37 57 37 131q0 260 -418 260h-229v-520z" />
<glyph unicode="S" horiz-adv-x="1138" d="M113 18v406q0 25 8 32t33 9h28q39 0 47 -16l4 -52q6 -51 35 -111.5t86 -105.5q106 -82 255.5 -82t212.5 82t63 171t-41 152.5t-89.5 87t-212 63.5t-200.5 57q-96 43 -162.5 132t-66.5 208q0 164 108.5 267t303 103t323.5 -147q55 131 65 141q8 6 23 6q29 0 29 -43v-405 q-2 -27 -10.5 -33t-30.5 -6h-19q-49 0 -57 14q-2 2 -9.5 46t-25.5 92.5t-51 100.5t-98.5 86t-153.5 34q-127 0 -192.5 -71t-65.5 -165q0 -139 135 -211q37 -18 199 -57t205 -58q100 -45 165.5 -143t65.5 -245.5t-103.5 -263.5t-300.5 -116q-236 0 -389 148 q-41 -102 -54 -123.5t-32 -21.5q-30 -1 -30 38z" />
<glyph unicode="T" horiz-adv-x="1478" d="M72 870l41 519h1249l41 -519h-121q-25 283 -32 322t-24 51q-34 25 -225 25h-186v-1147h256v-121h-668v121h256v1147h-186q-191 0 -225 -25q-17 -12 -24 -51t-31 -322h-121z" />
<glyph unicode="U" horiz-adv-x="1513" d="M98 1280v119h520v-119h-182v-788q0 -219 103 -314q86 -80 232.5 -80t243.5 90.5t97 300.5v791h-184v119h485v-119h-182v-782q0 -147 -43 -255t-116 -162t-148.5 -79t-159.5 -25t-162 24t-153.5 78t-121.5 160.5t-46 254.5v786h-183z" />
<glyph unicode="V" horiz-adv-x="1513" d="M41 1280v119h473v-119h-145l401 -1083l404 1083h-148v119h444v-119h-167l-463 -1243q-14 -33 -28.5 -43t-49.5 -10h-14q-39 0 -53.5 14t-32.5 63l-453 1219h-168z" />
<glyph unicode="W" horiz-adv-x="2082" d="M39 1280v119h455v-119h-154q289 -956 324 -1075l32 117l271 895l10 40v23h-154v119h455v-119h-154l265 -872l57 -203l323 1075h-172v119h445v-119h-154l-379 -1243q-10 -33 -25.5 -43t-49.5 -10h-9q-37 0 -50 13t-25 58l-287 936q-4 12 -15.5 52t-19.5 63 q-16 -88 -88 -344l-158 -537q-63 -205 -76 -223q-12 -18 -51 -18h-4h-10q-58 0 -67 46q-1 5 -5 17t-6 19l-370 1214h-154z" />
<glyph unicode="X" horiz-adv-x="1513" d="M55 0v121h197l410 610l-349 496q-33 47 -42 50t-25 3h-160v119h479v-119h-112l292 -422h3l282 422h-121v119h461v-119h-164q-23 0 -32 -8t-33 -43l-320 -477l443 -631h192v-121h-481v121h112l-352 504l-340 -504h121v-121h-461z" />
<glyph unicode="Y" horiz-adv-x="1513" d="M31 1280v119h483v-119h-119l377 -588l377 588h-119v119h451v-119h-189l-440 -686q-23 -37 -23 -74v-399h183v-121h-512v121h182v399q0 37 -23 74l-440 686h-188z" />
<glyph unicode="Z" horiz-adv-x="1251" d="M113 51.5q0 19.5 1 29t3 15.5t9 16.5t12 18.5t19.5 28.5t26.5 37.5l748 1083h-273q-182 0 -250.5 -10t-93 -38t-33.5 -95.5t-20 -255.5h-121l23 518h915q33 0 45.5 -10.5t12.5 -33t-1 -28.5t-4.5 -15t-5.5 -14.5t-9 -16.5t-12 -18.5t-18.5 -25.5t-21.5 -31l-748 -1081 h293q268 6 316.5 19t62.5 71q19 93 37 389h121l-35 -604h-938q-41 0 -51 16t-10 35.5z" />
<glyph unicode="[" horiz-adv-x="569" d="M213 -512v2048h309v-121h-172v-1806h172v-121h-309z" />
<glyph unicode="\" d="M115 1478.5q0 21.5 17.5 38.5t39.5 17t37.5 -15.5t19.5 -24.5t15 -38l651 -1857q12 -33 12 -55t-18.5 -38t-41 -16t-39.5 20.5t-20.5 29.5t-13.5 40l-641 1825q-18 52 -18 73.5z" />
<glyph unicode="]" horiz-adv-x="569" d="M43 -391h172v1806h-172v121h309v-2048h-309v121z" />
<glyph unicode="^" horiz-adv-x="1251" d="M225 1065l400 235l399 -235l-61 -104l-338 204l-338 -204z" />
<glyph unicode="_" horiz-adv-x="1593" d="M172 -498q0 41 61 41h1123q61 0 61 -41t-57 -41h-1129q-59 0 -59 41z" />
<glyph unicode="`" d="M211 1299.5q0 19.5 20.5 43t45 23.5t48 -16.5t125 -98t154.5 -123.5l-72 -94q-10 6 -144 100t-140 99.5t-18.5 17t-15.5 20.5t-3 28.5z" />
<glyph unicode="a" horiz-adv-x="1001" d="M92 266q0 117 106 209q58 51 178 83t290 34v47l2 4v8q0 184 -234 185q-47 0 -115 -7v-7q1 -44 -23 -66q-26 -22 -61.5 -22.5t-57 24t-21.5 59.5q0 137 288 137q168 0 267.5 -78.5t99.5 -224.5l-2 -10v-426q0 -33 4 -47q10 -37 85 -45t77 -10q18 -10 18 -50.5t-13 -51.5 t-46 -11h-37q-178 2 -211 109q-152 -121 -362 -121q-111 0 -171.5 86t-60.5 192zM236 270q0 -70 57 -115.5t137 -45.5q81 0 134 29q104 55 104 171l-2 29v149q-223 -8 -326.5 -65.5t-103.5 -151.5z" />
<glyph unicode="b" horiz-adv-x="1148" d="M49 1274v119l307 30v-585q155 110 363 110h4q168 0 258 -133t90 -342q0 -133 -36 -231.5t-96 -150.5q-117 -101 -257 -101q-184 0 -332 133l-10 -123h-121v1217q0 37 -19.5 47t-111.5 10h-39zM362 326q0 -61 72 -139t182 -78q103 0 188 58q50 34 80.5 110.5t30.5 189.5 q0 362 -280 362q-98 0 -185.5 -54t-87.5 -136v-313z" />
<glyph unicode="c" horiz-adv-x="909" d="M76 447.5q0 199.5 89 338.5q48 76 142 122t223 46q213 0 270 -59q29 -31 29 -73t-22.5 -65.5t-58.5 -23.5q-80 0 -84 90q-66 6 -113 6q-154 0 -227 -73q-94 -94 -95 -279q0 -102 32 -178t84 -114q96 -70 214 -70q66 0 104.5 34.5t56 76.5t24.5 48t55.5 6.5t48.5 -26.5 q0 -42 -70 -142q-35 -51 -106.5 -86.5t-161.5 -35.5q-193 0 -313.5 129t-120.5 328.5z" />
<glyph unicode="d" horiz-adv-x="1148" d="M76 466q0 218 98 351t276.5 133t337.5 -108v377q-2 39 -25.5 47t-119.5 8h-25v119l308 30v-1243q0 -37 19.5 -48t107.5 -11h45v-121l-316 -10v129q-158 -129 -333 -129t-274 129t-99 347zM229 467q0 -221 100 -297q80 -61 185 -61t186.5 74.5t81.5 158.5v283l2 16 q0 78 -78.5 133t-175.5 55q-110 0 -194 -62q-107 -79 -107 -300z" />
<glyph unicode="e" horiz-adv-x="909" d="M63 469q0 223 116 354t304 131q104 0 180 -37.5t115 -100.5q72 -118 72 -273q0 -33 -14.5 -42t-40.5 -9h-578q0 -218 111 -302q97 -75 222.5 -75t174.5 135q12 27 22.5 35t40.5 8h9q51 0 51 -37q0 -70 -97.5 -168t-244.5 -98q-188 0 -315.5 128t-127.5 351zM229 604h498 q-33 231 -242 231t-256 -231z" />
<glyph unicode="f" horiz-adv-x="626" d="M55 0v121h170v698h-159v119h159v162q0 80 28 142.5t68.5 97t94.5 56.5q89 38 184 38q59 0 85 -41t26 -80t-22.5 -63.5t-54.5 -24.5t-56.5 19.5t-26.5 68.5q-111 -2 -152 -59.5t-41 -155.5v-160h240v-119h-236v-698h216v-121h-523z" />
<glyph unicode="g" d="M55 -133q0 51 28 114.5t103 104.5q-49 78 -49 157t53 154q-61 96 -61 230.5t89 228.5t235 94q104 0 200 -61q100 72 209 72q55 0 92 -30t37 -67t-20.5 -57.5t-48.5 -20.5q-49 0 -70 54l-64 -9l-65 -16q55 -98 55 -203q0 -152 -90 -245t-235 -93q-102 0 -191 54 q-18 -45 -18 -79t23.5 -66.5t51 -36t56.5 -3.5h149q276 0 367 -89q73 -71 73 -186q0 -111 -106 -194q-106 -84 -349 -84t-348.5 85.5t-105.5 191.5zM186 -135.5q0 -59.5 73 -109.5t249 -50t251 49t75 111q0 147 -318 147h-154q-104 0 -140 -44t-36 -103.5zM266 612 q0 -223 186.5 -223t186.5 223t-184 224q-189 -1 -189 -224z" />
<glyph unicode="h" horiz-adv-x="1148" d="M57 0v121h170v1098q0 37 -20.5 46t-110.5 9h-39v119l308 30v-516l2 -88q121 131 295 131q184 0 238 -103q26 -50 33 -92t7 -106v-528h170v-121h-483v121h170v522q0 137 -88 170q-43 16 -113 16q-102 0 -163.5 -73.5t-61.5 -196.5v-438h170v-121h-484z" />
<glyph unicode="i" horiz-adv-x="579" d="M61 0v121h170v608q0 49 -17 60.5t-114 11.5h-30v121l299 28v-829h153v-121h-461zM158 1316q0 46 32.5 76.5t75.5 30.5t75 -30.5t32 -76.5t-33 -77t-75 -31t-74.5 31t-32.5 77z" />
<glyph unicode="j" horiz-adv-x="636" d="M-51 -281q0 50 25.5 72.5t59.5 22.5t56.5 -23.5t22.5 -66.5v-11l49 -2q139 2 139 215v824q-2 35 -26.5 43t-122.5 8h-39v121l325 28v-1024q0 -94 -32.5 -164.5t-83.5 -105.5q-98 -66 -180.5 -66t-137.5 39.5t-55 89.5zM221 1316q0 46 32.5 76.5t75.5 30.5t75 -30.5 t32 -76.5t-33 -77t-75 -31t-74.5 31t-32.5 77z" />
<glyph unicode="k" horiz-adv-x="1091" d="M53 0v121h170v1098q0 37 -20.5 46t-110.5 9h-39v119l301 30v-911l314 307h-133v119h477v-119h-148q-25 0 -39 -11t-75.5 -70.5t-83.5 -82.5l-80 -75v-5l313 -454h158v-121h-406v121h103l-254 371q-29 -29 -80 -79t-61.5 -63.5t-10.5 -38.5v-190h170v-121h-465z" />
<glyph unicode="l" horiz-adv-x="579" d="M61 0v121h170v1098q0 37 -21.5 46t-109.5 9h-39v119l308 30v-1302h172v-121h-480z" />
<glyph unicode="m" horiz-adv-x="1718" d="M57 0v121h170v622q0 37 -21.5 47.5t-117.5 10.5h-31v121l303 28v-137q119 137 314 137t248 -147q82 88 156 118q72 30 149 30q1 -1 3 -1q79 0 132 -19.5t82 -47t44 -71.5q23 -67 23 -163v-528h170v-121h-485v121h172v522q0 138 -89 170q-44 16 -114 16 q-102 0 -163.5 -73.5t-61.5 -196.5v-438h172v-121h-485v121h170v522q0 137 -88 170q-43 16 -113 16q-102 0 -163.5 -73.5t-61.5 -196.5v-438h170v-121h-484z" />
<glyph unicode="n" horiz-adv-x="1148" d="M57 0v121h170v622q0 37 -21.5 47.5t-117.5 10.5h-31v121l303 28v-137q119 137 299 137q187 0 241 -103q26 -50 33 -92t7 -106v-528h170v-121h-483v121h170v522q0 137 -88 170q-43 16 -113 16q-102 0 -163.5 -73.5t-61.5 -196.5v-438h170v-121h-484z" />
<glyph unicode="o" d="M63 467q0 221 122 354t323 133t324.5 -133t123.5 -354t-123.5 -349t-322.5 -128t-323 128t-124 349zM217 489q0 -374 291 -374h2q291 0 291 372q0 348 -291 349q-293 -1 -293 -347z" />
<glyph unicode="p" horiz-adv-x="1148" d="M49 -279h170v1027q-2 35 -23.5 44t-109.5 9h-37v121l307 28v-114q157 112 371 112h4q164 0 252 -132t88 -362.5t-116.5 -347t-283.5 -116.5t-309 123v-392h170v-120h-483v120zM362 334q0 -76 74 -150.5t187.5 -74.5t202.5 91t89 270t-82.5 266t-189 87t-194 -54 t-87.5 -132v-303z" />
<glyph unicode="q" horiz-adv-x="1091" d="M76 465q0 131 34.5 230.5t93.5 151.5q115 103 253 103q190 0 344 -139l12 139h113v-1229h172v-120h-486v120h170v412q-152 -143 -327 -143t-277 128t-102 347zM231 473q0 -176 80 -270t198 -94t198.5 92t80.5 186v197q0 80 -72.5 159.5t-187.5 79.5t-206 -87t-91 -263z " />
<glyph unicode="r" horiz-adv-x="802" d="M49 0v121h170v622q0 37 -21.5 47.5t-117.5 10.5h-31v121l297 28v-143q106 141 250 141q63 0 105 -33.5t42 -77t-23.5 -65.5t-53 -22t-55 18t-27.5 61q-106 -18 -166.5 -111t-61.5 -251v-346h215v-121h-522z" />
<glyph unicode="s" horiz-adv-x="806" d="M68 43v285q0 25 9 34t39 9t42 -1t20 -9.5t10 -13.5t8 -27q51 -211 214 -211q111 0 153.5 47t42.5 106q0 51 -20.5 75.5t-39 38t-34.5 20.5t-37.5 13.5t-34.5 9.5q-29 7 -38 8t-27.5 4t-35.5 7t-45 12.5t-51.5 18.5t-50 24.5t-48 35t-40.5 43.5q-36 47 -36 109t13 102 t46 81q72 90 266 90q117 0 199 -63q4 6 9 14t8 12.5t8.5 10.5t7.5 9t7 7t8 6q6 4 23 4t21 -12t4 -39v-213q0 -39 -10 -48t-41.5 -9t-43 1t-17 8t-6.5 11t-3 19.5t-5 35t-15 47t-56.5 57.5t-127 30t-122.5 -39t-40 -87t36.5 -79t77.5 -43t110 -25.5t95 -21.5 q82 -27 150.5 -96.5t68.5 -178.5q0 -102 -59 -182q-73 -100 -268 -100q-137 0 -236 98q-4 -6 -12 -22.5t-14.5 -26.5t-14.5 -23q-16 -28 -35 -28q-11 0 -24 10q-8 6 -8 45z" />
<glyph unicode="t" horiz-adv-x="796" d="M37 819v119q102 8 148 102.5t48 300.5h121v-403h293v-119h-293v-536q0 -168 101 -168q49 0 78 46q28 44 28 128v6v98h121v-112q0 -82 -32 -143.5t-81 -91.5q-91 -56 -159 -56t-105 23.5t-54.5 52t-27.5 75.5q-12 56 -12 135v543h-174z" />
<glyph unicode="u" horiz-adv-x="1148" d="M57 801v121l314 28v-671q0 -94 30.5 -132t135 -38t182.5 61t78 205v360q0 45 -19.5 55.5t-122.5 10.5h-28v121l313 28v-768q0 -43 20.5 -52t118.5 -9h31v-121l-307 -10v133q-133 -133 -334 -133q-181 0 -223 130q-19 61 -19 148v477q0 35 -22.5 45.5t-106.5 10.5h-41z " />
<glyph unicode="v" horiz-adv-x="1091" d="M41 819v119h432v-119h-137l182 -532l35 -115l219 647h-137v119h416v-119h-158q-16 -56 -76 -217l-190 -551q-14 -39 -27.5 -49t-48.5 -10h-8q-37 0 -52.5 12t-29.5 55l-185 535q-61 176 -77 225h-158z" />
<glyph unicode="w" horiz-adv-x="1490" d="M39 819v119h424v-119h-141q174 -586 184 -647q12 74 94 344t82 281l-2 22h-145v119h405v-119h-141l192 -647l195 647h-160v119h424v-119h-145l-232 -758q-10 -31 -15 -42q-12 -27 -65 -27h-10q-31 0 -44 11t-24 42q-39 129 -72.5 238.5t-50 164t-29.5 97.5 q-23 76 -32 100q-25 -160 -158 -600q-10 -31 -24 -42t-45 -11h-12q-33 0 -46.5 11t-27.5 54l-234 762h-145z" />
<glyph unicode="x" horiz-adv-x="1091" d="M29 0v121h184l256 364l-242 334h-186v119h424v-119h-98l172 -235h2l164 235h-101v119h424v-119h-154q-25 -2 -37.5 -17t-226.5 -315v-4l264 -362h187v-121h-424v121h98l-194 268l-189 -268h99v-121h-422z" />
<glyph unicode="y" horiz-adv-x="1091" d="M41 819v119h432v-119h-137q176 -487 217 -647l84 256l135 391h-137v119h416v-119h-158l-315 -899q-23 -63 -36.5 -97t-46 -82t-77.5 -83q-84 -68 -171.5 -68t-143.5 43t-56 107q0 37 22.5 58.5t54.5 21.5t56.5 -21.5t24.5 -58.5q0 -6 -4 -27l28 -2q137 0 205 145 q13 27 24 64t17 52.5t6 24.5t-10 40l-272 782h-158z" />
<glyph unicode="z" horiz-adv-x="913" d="M55 51.5q0 15.5 1 23t2 12.5t3 11t4.5 9.5t6.5 9.5t6 8q12 12 16 20l522 674h-174q-115 0 -153.5 -6t-52 -23.5t-19.5 -72.5l-12 -185h-121l22 406h654q31 0 44 -10t13 -33.5t-1 -33t-6 -20t-8 -14.5q-18 -24 -26 -32l-518 -670h160q224 0 238 25q26 42 26 90 q4 33 20 217h121l-35 -457h-677q-48 0 -54 27q-2 9 -2 24.5z" />
<glyph unicode="{" d="M111 496v26q0 39 10 44t21 6q22 2 93.5 16t129 61t71.5 109q4 20 4 63v428q0 39 2 61.5t23.5 65.5t64.5 76q109 84 299 84h29q23 0 33 -1t15 -11.5t5 -15.5v-50q0 -34 -12 -37.5t-20.5 -4.5t-30 -1t-39.5 -2q-127 -10 -176 -46t-49 -107v-435q0 -133 -71 -209t-173 -104 q78 -23 132 -63.5t76 -88.5q36 -80 36 -141v-450q0 -45 12 -70q25 -47 92.5 -67.5t136 -22.5t70.5 -4q16 -6 16 -45v-29q0 -25 -9 -33t-30 -10h-30q-160 0 -272 54q-130 64 -130 225v436q0 49 -6 73q-20 78 -101 123t-175 52q-36 4 -41.5 14.5t-5.5 30.5z" />
<glyph unicode="|" horiz-adv-x="569" d="M242 -449v1907q0 76 41 76t41 -61v-1907q0 -76 -41 -76t-41 61z" />
<glyph unicode="}" d="M111 -440q0 41 19 45q18 4 42.5 4t71.5 4t96 20.5t70 40.5q30 37 30 93v442q0 221 244 303q-244 82 -244 297v446q0 31 -4 51q-10 47 -82 78t-151 31l-41 -2q-29 0 -40 9.5t-11 41.5v29q0 25 8 34t33 9h30q201 0 301 -77t101 -202v-436q0 -49 6 -71q18 -72 93 -120 t185 -57q31 -2 37 -12t6 -43v-18q0 -37 -11 -42t-22 -6q-28 -3 -95.5 -16.5t-124 -59.5t-70.5 -110q-4 -20 -4 -63v-445q0 -78 -37 -133t-97 -83q-114 -54 -247 -54h-49q-27 0 -35 8t-8 39v25z" />
<glyph unicode="~" horiz-adv-x="1251" d="M170 1219q8 12 33.5 43.5t35 44t31 36t35.5 33.5t35 22q39 23 95 23t182 -51t177.5 -51t90.5 20.5t54 36t46 47.5l94 -75q-10 -12 -30.5 -40t-29.5 -39.5t-27.5 -33t-30 -31.5t-30 -24.5t-34.5 -20.5q-43 -16 -91 -16t-173 51t-184 51q-92 0 -185 -102z" />
<glyph unicode="&#xa1;" horiz-adv-x="569" d="M174 -309l47 914q0 30 47 30h31q31 0 37 -10.5t8 -44.5l45 -840l2 -47q0 -55 -32.5 -84t-73.5 -29t-76 29t-35 82zM174 916q0 46 33 77t76 31t74.5 -30.5t31.5 -77t-32.5 -77t-74.5 -30.5t-75 30.5t-33 76.5z" />
<glyph unicode="&#xa2;" d="M76 471q0 195 111.5 326t320.5 155v191h121v-189q166 0 235 -32q29 -13 53.5 -40.5t24.5 -64.5t-23.5 -60.5t-55.5 -23.5t-57.5 19.5t-27.5 68.5q-66 8 -149 8v-714q145 8 200 112q18 37 27.5 44.5t40.5 7.5h23q41 0 41 -19.5t-17.5 -56.5t-53.5 -82t-105.5 -82 t-155.5 -47v-191h-121v191q-209 23 -320.5 153.5t-111.5 325.5zM229 471q0 -285 279 -346v700q-90 -14 -151.5 -58t-86.5 -103q-41 -101 -41 -193z" />
<glyph unicode="&#xa3;" horiz-adv-x="1308" d="M113 128.5q0 66.5 70.5 111.5t155 45t150.5 -17q6 41 7 181v202h-138q-20 0 -27 11.5t-7 51.5t6 49t30 9h136v270q0 106 25.5 188.5t63.5 127.5t89 74q81 45 176 45q158 0 251 -126t93 -276q0 -47 -26.5 -68.5t-57.5 -21.5t-56.5 23.5t-25.5 59.5t39 69q-14 72 -45 120 t-66 67q-58 32 -106 32q-113 0 -168 -92q-43 -72 -43 -228v-264h188q29 0 36 -10t7 -33v-24q0 -35 -10 -44.5t-41 -9.5h-180v-274q0 -92 -18 -154q36 -18 119 -51q158 -63 239 -63q127 0 149 153q4 27 12.5 33t30.5 6h33q25 0 35 -6t10 -29q0 -92 -85 -184t-226 -92 q-120 0 -266 68q-82 37 -115 48q-100 -117 -268 -116q-76 0 -126 36t-50 102.5zM244 127.5q0 -18.5 58.5 -18.5t119.5 43q-57 14 -92 14t-56 -8q-30 -12 -30 -30.5z" />
<glyph unicode="&#xa4;" horiz-adv-x="1591" d="M88 -61q0 16 33.5 49.5t89 88t111.5 109.5q-141 164 -141.5 412t141.5 422q-219 217 -226.5 229t-7.5 24.5t12.5 24t27.5 11.5t37.5 -19.5t94 -93.5t117.5 -119q188 141 417.5 141.5t417.5 -141.5q219 219 230 226q10 6 22 6t23.5 -12.5t11.5 -28.5t-20.5 -39t-93 -94.5 t-115.5 -114.5q139 -186 139 -416.5t-139 -417.5q27 -27 55.5 -54.5t46 -45.5t36.5 -37.5t30.5 -31t24 -23.5t17.5 -20.5t10 -15.5q9 -13 9 -24q0 -37 -37 -36q-16 0 -35.5 17t-101.5 99l-115 115q-170 -139 -408 -139t-425 139q-215 -217 -227.5 -224t-25.5 -7t-24.5 12.5 t-11.5 28.5zM262 606q0 -242 142.5 -388t388 -146t390 144t144.5 386t-144.5 388.5t-387 146.5t-388 -144.5t-145.5 -386.5z" />
<glyph unicode="&#xa5;" horiz-adv-x="1513" d="M31 1280v119h483v-119h-119l215 -334h285q27 0 36 5t27 32l191 297h-119v119h451v-119h-189l-213 -334h269q80 0 79 -59q0 -61 -86 -62h-340l-147 -231l-20 -35l-5 -37h517q82 0 81.5 -59.5t-81.5 -59.5h-517v-282h183v-121h-512v121h182v282h-514q-86 0 -86 60.5 t82 60.5h4l4 -2h510q0 29 -10 49.5t-56.5 91t-70.5 109.5q-27 39 -36 46t-36 7h-311q-78 2 -78 60q0 20 13.5 37.5t27.5 20.5t47 3h260l-213 334h-188zM688 825l84 -133l86 133h-170z" />
<glyph unicode="&#xa6;" horiz-adv-x="342" d="M129 276q0 63 39 64q43 0 43 -61v-725q0 -63 -41 -63.5t-41 60.5v725zM129 748v722q0 63 41 63.5t41 -63.5v-722q0 -61 -41 -61t-41 61z" />
<glyph unicode="&#xa7;" horiz-adv-x="909" d="M141 516q0 94 40 171t110 122q-43 39 -68.5 69.5t-53.5 91t-28 128.5q0 129 87 232.5t218.5 103.5t211 -84t79.5 -183q0 -43 -23.5 -61.5t-49 -18.5t-47 19.5t-21.5 47.5t14 50q-45 109 -157 109q-90 0 -148.5 -66.5t-58.5 -130t21.5 -101.5t59.5 -65.5t69.5 -45 t76.5 -36.5q154 -63 223.5 -164.5t69.5 -195.5t-40 -171t-110 -122q43 -39 69 -69.5t53.5 -91t27.5 -128.5q0 -129 -87 -232.5t-218 -103.5t-211 84t-80 183q0 43 23.5 61.5t50.5 18.5t47 -18.5t20 -47.5t-14 -51q45 -109 158 -109q78 0 142.5 60.5t64.5 152.5 q0 57 -36 103.5t-72 68t-100.5 50t-74.5 34.5q-113 59 -175.5 150.5t-62.5 185.5zM246 531q0 -79 60.5 -137t114.5 -80.5t75 -22.5q51 0 108.5 61.5t57.5 140.5t-60.5 137t-116 80.5t-73.5 22.5q-51 0 -108.5 -61.5t-57.5 -140.5z" />
<glyph unicode="&#xa8;" d="M205 1292q0 45 31.5 76t74.5 31t76 -31t33 -77t-33 -76.5t-77 -30.5t-74.5 31.5t-30.5 76.5zM600 1291q0 46 33 77t76 31t74.5 -31t31.5 -77t-32.5 -76.5t-74.5 -30.5t-75 30.5t-33 76.5z" />
<glyph unicode="&#xa9;" horiz-adv-x="2275" d="M113 513q0 474 281.5 760t742.5 286t742.5 -286t281.5 -760t-281 -761t-743.5 -287t-743 287t-280.5 761zM195 506.5q0 -447.5 262 -703.5t682 -256t680 259.5t260 709t-262.5 705.5t-683 256t-679.5 -261.5t-259 -709zM567 491q0 227 156 368.5t403 141.5 q184 0 328 -120q55 82 72.5 101t36.5 19q29 0 28 -38v-328q-2 -23 -11 -31t-42 -8t-47 5t-17.5 13.5t-8.5 35t-17 52.5q-78 178 -268 179q-166 0 -296 -76q-71 -41 -113 -122t-42 -191q0 -195 125 -294.5t330 -99.5q113 0 192.5 61.5t93.5 162.5q4 29 12.5 36t35.5 7h18 q33 0 44 -6.5t11 -28.5q0 -125 -124 -239t-359.5 -114t-388 143.5t-152.5 370.5z" />
<glyph unicode="&#xaa;" horiz-adv-x="909" d="M55 626q0 60 88 60h627q84 0 84 -60t-80 -61h-643q-76 1 -76 61zM92 938q0 76 111 106q137 37 344 37h6v82q0 115 -27 174q-43 94 -131 95q-51 0 -96 -37q20 -35 20 -64t-24.5 -52.5t-55 -23.5t-57 20.5t-26.5 67.5q0 78 67.5 143.5t173.5 65.5q104 0 194 -73 q48 -39 76.5 -120t28.5 -192v-270h2q68 -10 110 -10t55.5 -6.5t15.5 -18.5t2 -44t-14.5 -41t-53.5 -9h-72q-90 2 -126.5 17.5t-45.5 60.5q-12 -10 -34.5 -25.5t-100.5 -40t-168 -24.5t-132 61.5t-42 120.5zM242 934q0 -27 38.5 -42t88.5 -15q137 0 180 100q-307 0 -307 -43z " />
<glyph unicode="&#xab;" horiz-adv-x="1138" d="M231 525q0 9 31 42q100 100 170 212t100.5 183.5t36.5 77.5t39 7h33q35 0 35 -19.5t-25.5 -85t-100.5 -188.5t-175 -232q123 -123 212 -287.5t89 -214.5q0 -20 -39 -20h-29q-29 0 -39 7t-32.5 64.5t-68.5 137.5t-86 131t-75 91t-55.5 62.5t-20.5 31.5zM571 524.5 q0 12.5 65.5 77.5t136.5 177t101.5 183.5t36.5 77.5t37 7h33q37 0 37 -19.5t-27.5 -89.5t-101.5 -191.5t-172 -224.5q123 -123 211 -287.5t88 -214.5q0 -20 -39 -20h-27q-29 0 -39 7t-20 34q-59 143 -140 257t-130.5 164t-49.5 62.5z" />
<glyph unicode="&#xac;" horiz-adv-x="1366" d="M115 731q0 41 59 41h1012q35 0 50 -12t15 -53l-2 -21v-432q0 -59 -41 -59t-41 59v436h-987q-65 0 -65 41z" />
<glyph unicode="&#xad;" horiz-adv-x="342" d="M20 399v140h545v-140h-545z" />
<glyph unicode="&#xae;" horiz-adv-x="2275" d="M113 513q0 474 281.5 760t742.5 286t742.5 -286t281.5 -760t-281 -761t-743.5 -287t-743 287t-280.5 761zM195 506.5q0 -447.5 262 -703.5t682 -256t680 259.5t260 709t-262.5 705.5t-683 256t-679.5 -261.5t-259 -709zM539 0v121h182v739h-182v119h516q395 0 487 -184 q21 -43 21 -90q0 -141 -183 -226q70 -47 88 -101q5 -18 8 -26t5 -30.5t3 -30.5q3 -24 3 -76v-10q2 -10 2 -15.5t2 -15.5t6 -17t9 -17.5t13.5 -16.5t18.5 -13q19 -12 55.5 -12t54 20.5t22.5 49.5t12 38t51 9h2q55 0 55 -43q0 -59 -46 -127t-147 -68q-79 0 -145 28 q-125 53 -125 190v84q0 85 -59 115q-70 36 -230 36h-168v-309h181v-121h-512zM870 551h197l4 -2h41.5t69.5 5t97 18.5t90 48t34 84.5q0 156 -336 155h-197v-309z" />
<glyph unicode="&#xaf;" d="M141 1296v125h738v-125h-738z" />
<glyph unicode="&#xb0;" horiz-adv-x="681" d="M113 1172q0 100 62.5 163.5t163.5 63.5t164.5 -64.5t63.5 -164t-62.5 -163t-162.5 -63.5t-164.5 64t-64.5 164zM195 1174.5q0 -64.5 38.5 -105.5t105.5 -41t106.5 39t39.5 103.5t-38.5 105.5t-105.5 41t-106.5 -39t-39.5 -103.5z" />
<glyph unicode="&#xb1;" horiz-adv-x="1593" d="M115 40q0 40 57 42h582v559h-578q-61 0 -61 41t61 41h578v577q0 61 41 61.5t41 -61.5v-577h577q61 0 61.5 -41t-61.5 -41h-577v-559h577q61 0 61.5 -41t-59.5 -41h-1239q-61 0 -61 40z" />
<glyph unicode="&#xb2;" horiz-adv-x="909" d="M102 711v88l2 21q0 5 4.5 9.5t6.5 8.5t9 9t12 8t16.5 10t20.5 13q17 12 70.5 45t140.5 83.5t124 72t77 54t52 61.5t12 82.5t-52 93.5q-87 68 -251 68q-53 0 -96 -31q25 -35 24.5 -69t-25 -57.5t-60.5 -23.5t-61.5 25t-25.5 66q0 94 93.5 152.5t246 58.5t259 -81 t106.5 -210q0 -100 -77 -160q-65 -50 -144.5 -87.5t-96 -46.5t-192.5 -114l135 -2q160 0 190.5 4t34.5 25q0 2 7 33.5t22 138.5h121l-57 -348h-648z" />
<glyph unicode="&#xb3;" horiz-adv-x="909" d="M84 868q0 39 24.5 66t63.5 27t63.5 -26t24.5 -54.5t-8 -51.5q59 -14 182 -14q224 0 228 137q0 55 -44.5 96.5t-160.5 43.5h-66q-35 0 -43 7t-8 42v26q0 42 28 44q63 6 116.5 16t90.5 48t37 84t-45 68.5t-104 22.5q-115 0 -182 -86q31 -35 30.5 -70t-26 -58.5t-60.5 -23.5 t-59.5 24t-24.5 67q0 94 86 175t228.5 81t226.5 -56.5t84 -148.5q0 -125 -137 -203q193 -63 192 -201q0 -80 -66 -155q-38 -43 -122 -69t-203 -26q-346 0 -346 168z" />
<glyph unicode="&#xb4;" d="M418 1128q37 29 140.5 113t133 104.5t55 20.5t45 -23.5t19.5 -43t-5 -32t-16 -21.5l-17 -15q-9 -7 -141.5 -99t-142.5 -98z" />
<glyph unicode="&#xb5;" horiz-adv-x="1148" d="M57 -279h170v1027q-2 35 -23.5 44t-109.5 9h-37v121l314 28v-671q0 -94 30.5 -132t135 -38t182.5 61t78 205v360q0 45 -19.5 55.5t-122.5 10.5h-28v121l313 28v-768q0 -43 20.5 -52t118.5 -9h31v-121l-307 -10v133q-145 -133 -332 -133q-59 0 -100 10v-279h170v-120h-484 v120z" />
<glyph unicode="&#xb6;" horiz-adv-x="1251" d="M113 948q0 162 119 308q61 73 170.5 120t248.5 47h471q68 0 68 -42t-64 -42l-16 2h-88v-1658h96q72 0 72 -41t-60 -41h-522q-59 0 -59 42t59 42l17 -2h92v788q-256 12 -430 141t-174 336zM799 -317h141v1658h-141v-1658z" />
<glyph unicode="&#xb7;" horiz-adv-x="569" d="M174 526q0 42 31 73.5t77 31.5t77.5 -32.5t31.5 -74.5t-31.5 -75t-76.5 -33t-77 34t-32 76z" />
<glyph unicode="&#xb8;" horiz-adv-x="909" d="M211 -311h65q274 0 275 98q0 84 -168 90v123h143v-23q170 -59 170 -196q0 -74 -42 -111q-21 -20 -42.5 -36.5t-59.5 -25.5t-63.5 -16.5t-73.5 -11.5t-69 -5q-108 -5 -135 -5v119z" />
<glyph unicode="&#xb9;" horiz-adv-x="909" d="M141 1284v121q209 4 332 154h23q47 0 53 -28q2 -9 2 -32v-668h215v-120h-596v120h238v539q-117 -84 -267 -86z" />
<glyph unicode="&#xba;" horiz-adv-x="909" d="M55 626q0 60 88 60h627q84 0 84 -60t-80 -61h-643q-76 1 -76 61zM63 1149q0 180 106.5 291.5t284 111.5t284 -110.5t106.5 -292.5t-108.5 -286.5t-282.5 -104.5t-282 105.5t-108 285.5zM219 1156.5q0 -274.5 234 -273.5q236 0 235.5 274t-233.5 275q-236 -1 -236 -275.5z " />
<glyph unicode="&#xbb;" horiz-adv-x="1138" d="M117 20.5q0 20.5 27.5 90t102.5 190.5t171 223q-123 123 -212 289t-89 215q0 18 39 19h28q29 0 39 -7.5t21 -33.5q59 -145 140 -258t129 -162t48 -59.5t-20.5 -33t-55 -62.5t-74.5 -92q-103 -134 -171 -308q-10 -20 -18.5 -25.5t-28.5 -5.5h-37q-39 0 -39 20.5zM457 23 q0 14 24.5 78.5t99 188.5t177.5 234q-123 123 -211 289t-88 215q0 18 37 19h28q29 0 39 -7.5t35 -66.5t72 -140t86 -130.5t73.5 -87t54 -59t19.5 -32t-51 -62.5t-133 -169t-139 -262q-10 -20 -18.5 -25.5t-29.5 -5.5h-34q-41 0 -41 23z" />
<glyph unicode="&#xbc;" horiz-adv-x="909" d="M16 569q0 41 66 41h739q68 0 68 -41t-60 -41h-753q-60 0 -60 41zM55 -76q0 8 4 18.5t7 13.5q20 24 30 38l357 436q23 27 36 34t37 7h56q36 0 45.5 -14.5t9.5 -38.5v-473h215v-119h-215v-105h199v-120h-539v120h199v105h-441v98zM141 1358v119q206 0 303 61q33 21 58 21 t36 -11.5t11 -44.5v-692h217v-119h-598v119h240v590q-115 -43 -267 -43zM209 -55h299v372z" />
<glyph unicode="&#xbd;" horiz-adv-x="909" d="M16 569q0 41 66 41h739q68 0 68 -41t-60 -41h-753q-60 0 -60 41zM100 -322q0 31 26 53.5t122 87t122.5 82t64.5 43t52.5 36t44 32t41 32.5t30 31.5t25.5 36.5q19 42 19 78q0 158 -309 158q-41 0 -86 -22q20 -29 20 -63t-25.5 -58.5t-60 -24.5t-59.5 25.5t-25 64.5 q0 90 89.5 144.5t245 54.5t262 -76t106.5 -198q0 -96 -74 -162q-61 -55 -136 -96t-98.5 -55.5t-195.5 -131.5h129q164 0 191.5 3t31.5 24q14 14 33 172h119l-55 -348h-650v77zM141 1358v119q206 0 303 61q33 21 58 21t36 -11.5t11 -44.5v-692h217v-119h-598v119h240v590 q-115 -43 -267 -43z" />
<glyph unicode="&#xbe;" horiz-adv-x="909" d="M16 569q0 41 66 41h739q68 0 68 -41t-60 -41h-753q-60 0 -60 41zM55 -102l2 38q0 10 15.5 30t21.5 28l359 436q23 27 36 34t37 7h56q36 0 45.5 -14.5t9.5 -38.5v-473h215v-119h-215v-105h199v-120h-539v120h199v105h-441v72zM84 842q0 41 25.5 65.5t64.5 24.5t62.5 -25.5 t23.5 -48t-10 -59.5q66 -14 205 -14.5t186 73.5q20 33 21 72q0 147 -242 147h-39q-37 0 -40 23q-1 8 -1 45.5t8 45t58 10.5q135 8 188 89q18 33 18 60q0 100 -159 100h-4q-88 0 -156 -29q18 -33 18 -65.5t-25.5 -54t-56.5 -21.5t-59.5 20.5t-28.5 67.5q0 86 86 138.5 t239 52.5t226.5 -64.5t73.5 -144.5q0 -123 -141 -213q76 -20 136 -71.5t60 -137.5q0 -79 -65 -158q-37 -45 -118 -72.5t-196 -27.5q-358 0 -358 172zM209 -55h299v372z" />
<glyph unicode="&#xbf;" horiz-adv-x="966" d="M113 -106q0 113 49 180q16 22 49 54q182 176 182 404v52q0 35 8.5 44t40.5 9l17 -2h6q29 0 38 -7t11 -32v-66q0 -279 -174 -473q-2 -4 -12.5 -14t-13.5 -14t-11 -14.5t-12 -17.5t-9.5 -20.5t-7.5 -24.5q-6 -33 -6 -63q0 -100 42 -139t143 -39q186 0 264 117 q-31 35 -31 66.5t24.5 55t56.5 23.5t58.5 -20.5t26.5 -67.5q0 -119 -112.5 -207t-284.5 -88t-257 79.5t-85 224.5zM346 916q0 46 33 77t76 31t74.5 -30.5t31.5 -77t-32.5 -77t-74.5 -30.5t-75 30.5t-33 76.5z" />
<glyph unicode="&#xc0;" horiz-adv-x="1513" d="M70 0v121h174l422 1227q16 49 30.5 62t53.5 13h12q39 0 53 -14t23 -37l430 -1251h174v-121h-481v121h151l-111 317h-522l-108 -317h149v-121h-450zM475 1688q0 27 18.5 50t49.5 23h2q16 0 56 -18.5t294 -145.5l-49 -110q-25 8 -287 119q-84 33 -84 82zM522 559h439 l-220 635z" />
<glyph unicode="&#xc1;" horiz-adv-x="1513" d="M70 0v121h174l422 1227q16 49 30.5 62t53.5 13h12q39 0 53 -14t23 -37l430 -1251h174v-121h-481v121h151l-111 317h-522l-108 -317h149v-121h-450zM522 559h439l-220 635zM561 1597q328 160 350 164q31 0 50.5 -23.5t19.5 -49.5q0 -49 -84 -82q-262 -111 -287 -119z" />
<glyph unicode="&#xc2;" horiz-adv-x="1513" d="M70 0v121h174l422 1227q16 49 30.5 62t53.5 13h12q39 0 53 -14t23 -37l430 -1251h174v-121h-481v121h151l-111 317h-522l-108 -317h149v-121h-450zM461 1587l295 250h2l295 -250l-80 -90h-2l-213 203h-2l-215 -203zM522 559h439l-220 635z" />
<glyph unicode="&#xc3;" horiz-adv-x="1513" d="M70 0v121h174l422 1227q16 49 30.5 62t53.5 13h12q39 0 53 -14t23 -37l430 -1251h174v-121h-481v121h151l-111 317h-522l-108 -317h149v-121h-450zM358 1622q8 10 28 35.5t28 35t25.5 30t26.5 29.5t24.5 23.5t27.5 20.5t26 14q25 15 70 15t135.5 -51.5t143.5 -51.5 q74 0 168 105l94 -76q-8 -10 -30.5 -39t-31 -39t-27.5 -33.5t-30.5 -33t-29 -23.5t-31.5 -21q-36 -16 -77.5 -16t-133.5 51.5t-146 51.5q-76 0 -167 -103zM522 559h439l-220 635z" />
<glyph unicode="&#xc4;" horiz-adv-x="1513" d="M70 0v121h174l422 1227q16 49 30.5 62t53.5 13h12q39 0 53 -14t23 -37l430 -1251h174v-121h-481v121h151l-111 317h-522l-108 -317h149v-121h-450zM451 1666q0 46 31.5 77t74.5 31t75 -31t32 -77t-33 -76.5t-77 -30.5t-73.5 30.5t-29.5 76.5zM522 559h439l-220 635z M848 1666q0 44 31.5 76t74.5 32t76 -31t33 -78t-32 -76.5t-77 -29.5t-75.5 31.5t-30.5 75.5z" />
<glyph unicode="&#xc5;" horiz-adv-x="1513" d="M70 0v121h174l415 1204q-131 63 -131 250q0 121 62.5 193.5t165 71.5t165 -73.5t62.5 -191.5q0 -178 -129 -250l414 -1204h174v-121h-481v121h151l-111 317h-522l-108 -317h149v-121h-450zM522 559h439l-220 635zM643 1577q0 -43 4 -69.5t31 -54.5t86.5 -28t81.5 38 t22 87.5t-2 69.5t-12 47q-20 55 -96 55q-115 0 -115 -145z" />
<glyph unicode="&#xc6;" horiz-adv-x="1837" d="M70 0v121h174l409 1159h-108v119h1122l55 -518h-118q-35 317 -58 356q-12 23 -69.5 33t-231.5 10h-254v-547h148q176 2 194 13q25 16 27 87.5t2 116.5v23h121v-600h-121v22q0 185 -25 201q-33 16 -204 16h-142v-491h275q215 4 264 14t61 57.5t68 391.5h121l-86 -584h-989 v121h137v491h-297l-172 -491h147v-121h-450zM588 733h254v547h-62z" />
<glyph unicode="&#xc7;" horiz-adv-x="1478" d="M113 698q0 332 192.5 527.5t491.5 195.5q242 0 417 -186q18 35 49 96.5t41.5 74.5t28.5 13h4q27 0 27 -43v-452q0 -33 -10.5 -39t-49.5 -6t-49 6t-14 30q-27 156 -127 270.5t-262 114.5q-207 0 -378 -118q-91 -62 -146.5 -186t-55.5 -295t55.5 -295.5t145.5 -187.5 q169 -120 358 -120t292.5 103.5t117.5 240.5q2 27 5 35q7 19 50 19h15q33 0 43 -6.5t10 -49t-26.5 -113.5t-80 -143.5t-153.5 -129t-230 -72.5v-5q172 -59 173 -196q0 -73 -43 -111q-21 -20 -42.5 -36.5t-59.5 -25.5t-63.5 -16.5t-73.5 -11.5t-69 -5q-108 -5 -135 -5v119h57 q283 0 283 93t-170 95v103q-158 18 -276.5 80.5t-181 140.5t-101.5 178t-49 172.5t-10 146.5z" />
<glyph unicode="&#xc8;" horiz-adv-x="1382" d="M98 0v121h183v1153h-183v119h1112l58 -519h-121q-29 262 -43 312.5t-34 63.5q-38 24 -333 24h-303v-490h158q182 0 202 16q27 21 27 204v20h119v-600h-119v20q0 185 -23.5 202t-203.5 18h-160v-543h328q225 0 284.5 10t80 46t46 204t31.5 203h121l-86 -584h-1141z M473 1684q0 31 19.5 54t50.5 23h4q20 0 160.5 -70.5t187.5 -93.5l-49 -110q-8 0 -168 68.5t-170 74.5q-35 23 -35 54z" />
<glyph unicode="&#xc9;" horiz-adv-x="1382" d="M98 0v121h183v1153h-183v119h1112l58 -519h-121q-29 262 -43 312.5t-34 63.5q-38 24 -333 24h-303v-490h158q182 0 202 16q27 21 27 204v20h119v-600h-119v20q0 185 -23.5 202t-203.5 18h-160v-543h328q225 0 284.5 10t80 46t46 204t31.5 203h121l-86 -584h-1141z M588 1597q336 162 350 164q31 0 50.5 -23.5t19.5 -41.5t-2 -26.5t-5.5 -13.5t-9.5 -12.5t-10 -10.5t-14.5 -8t-12.5 -7t-14 -7q-233 -97 -303 -124z" />
<glyph unicode="&#xca;" horiz-adv-x="1382" d="M98 0v121h183v1153h-183v119h1112l58 -519h-121q-29 262 -43 312.5t-34 63.5q-38 24 -333 24h-303v-490h158q182 0 202 16q27 21 27 204v20h119v-600h-119v20q0 185 -23.5 202t-203.5 18h-160v-543h328q225 0 284.5 10t80 46t46 204t31.5 203h121l-86 -584h-1141z M403 1585v2l295 250h2l293 -250v-2l-78 -88l-215 203h-2l-217 -203z" />
<glyph unicode="&#xcb;" horiz-adv-x="1382" d="M98 0v121h183v1153h-183v119h1112l58 -519h-121q-29 262 -43 312.5t-34 63.5q-38 24 -333 24h-303v-490h158q182 0 202 16q27 21 27 204v20h119v-600h-119v20q0 185 -23.5 202t-203.5 18h-160v-543h328q225 0 284.5 10t80 46t46 204t31.5 203h121l-86 -584h-1141z M391 1666q0 46 32.5 77t75.5 31t75 -31t32 -77t-33 -76.5t-75 -30.5t-74.5 30.5t-32.5 76.5zM790 1666q0 44 32 76t76 32t75.5 -31t31.5 -77t-32.5 -76.5t-76.5 -30.5t-75 31.5t-31 75.5z" />
<glyph unicode="&#xcc;" horiz-adv-x="716" d="M90 0v121h191v1159h-191v119h537v-119h-191v-1159h191v-121h-537zM104 1684q0 31 19.5 54t50.5 23h4q23 0 346 -164l-49 -110q-11 0 -168 68.5t-168 74.5q-35 23 -35 54z" />
<glyph unicode="&#xcd;" horiz-adv-x="716" d="M90 0v121h191v1159h-191v119h537v-119h-191v-1159h191v-121h-537zM156 1597q336 162 350 164q31 0 51.5 -23.5t20.5 -41.5t-2.5 -27.5t-8.5 -16.5t-10 -12.5t-15.5 -11.5t-14.5 -8q-21 -14 -33 -14q-250 -104 -289 -119z" />
<glyph unicode="&#xce;" horiz-adv-x="716" d="M61 1585v2l295 250h2l295 -250v-2l-80 -88l-215 203h-2l-215 -203zM90 0v121h191v1159h-191v119h537v-119h-191v-1159h191v-121h-537z" />
<glyph unicode="&#xcf;" horiz-adv-x="716" d="M51 1667q0 45 31.5 76t74.5 31t76 -31t33 -77t-33 -76.5t-77 -30.5t-74.5 31.5t-30.5 76.5zM90 0v121h191v1159h-191v119h537v-119h-191v-1159h191v-121h-537zM446 1666q0 46 33 77t76 31t74.5 -31t31.5 -77t-32.5 -76.5t-74.5 -30.5t-75 30.5t-33 76.5z" />
<glyph unicode="&#xd0;" horiz-adv-x="1552" d="M100 0v121h183v506h-109q-53 0 -63.5 13t-10.5 59t43 49h140v532h-183v119h672q154 0 273.5 -45t191.5 -116t119 -167q82 -167 82 -385q0 -121 -46 -286q-28 -97 -98.5 -185t-192.5 -151.5t-331 -63.5h-670zM430 121h315q154 0 263.5 47t167.5 131q106 156 106 389 q0 320 -162 469q-133 123 -375 123h-315v-532h365q29 -2 39 -15.5t10 -48.5t-13.5 -46t-46.5 -11h-354v-506z" />
<glyph unicode="&#xd1;" horiz-adv-x="1513" d="M102 0v121h183v1159h-183v119h277q43 0 67 -39l662 -1073v993h-182v119h485v-119h-182v-1214q0 -23 -1 -33t-13.5 -21.5t-38.5 -11.5h-13q-29 0 -41 8t-26 33l-690 1122v-1042h182v-121h-486zM358 1622q8 10 28 35.5t28 35t25.5 30t26.5 29.5t24.5 23.5t27.5 20.5t26 14 q25 15 70 15t135.5 -51.5t143.5 -51.5q74 0 168 105l94 -76q-8 -10 -30.5 -39t-31 -39t-27.5 -33.5t-30.5 -33t-29 -23.5t-31.5 -21q-36 -16 -77.5 -16t-133.5 51.5t-146 51.5q-76 0 -167 -103z" />
<glyph unicode="&#xd2;" horiz-adv-x="1593" d="M113 697q0 329 187 526.5t494.5 197.5t495 -197.5t187.5 -528.5t-189.5 -524.5t-495.5 -193.5t-492.5 195.5t-186.5 524.5zM272 717q0 -168 49.5 -295t132.5 -192q156 -124 341 -124q152 0 278 77q72 44 124 110.5t86 178.5t34 262.5t-48 267t-128 178t-165 89 t-179.5 27.5t-179.5 -27.5t-166.5 -88t-130 -178t-48.5 -285.5zM572 1684q0 31 19.5 54t42.5 23t63.5 -18t294.5 -145l-50 -111q-3 0 -165 68.5t-173 74.5q-32 23 -32 54z" />
<glyph unicode="&#xd3;" horiz-adv-x="1593" d="M113 697q0 329 187 526.5t494.5 197.5t495 -197.5t187.5 -528.5t-189.5 -524.5t-495.5 -193.5t-492.5 195.5t-186.5 524.5zM272 717q0 -168 49.5 -295t132.5 -192q156 -124 341 -124q152 0 278 77q72 44 124 110.5t86 178.5t34 262.5t-48 267t-128 178t-165 89 t-179.5 27.5t-179.5 -27.5t-166.5 -88t-130 -178t-48.5 -285.5zM600 1597q328 164 348 164h2q31 0 50.5 -23.5t19.5 -41.5t-2 -27.5t-8 -16.5t-10.5 -12.5t-15.5 -11.5t-14 -8q-21 -14 -34 -14q-262 -111 -287 -119z" />
<glyph unicode="&#xd4;" horiz-adv-x="1593" d="M113 697q0 329 187 526.5t494.5 197.5t495 -197.5t187.5 -528.5t-189.5 -524.5t-495.5 -193.5t-492.5 195.5t-186.5 524.5zM272 717q0 -168 49.5 -295t132.5 -192q156 -124 341 -124q152 0 278 77q72 44 124 110.5t86 178.5t34 262.5t-48 267t-128 178t-165 89 t-179.5 27.5t-179.5 -27.5t-166.5 -88t-130 -178t-48.5 -285.5zM500 1585v2l295 250h2l293 -250v-2l-78 -88l-215 203h-2l-217 -203z" />
<glyph unicode="&#xd5;" horiz-adv-x="1593" d="M113 697q0 329 187 526.5t494.5 197.5t495 -197.5t187.5 -528.5t-189.5 -524.5t-495.5 -193.5t-492.5 195.5t-186.5 524.5zM272 717q0 -168 49.5 -295t132.5 -192q156 -124 341 -124q152 0 278 77q72 44 124 110.5t86 178.5t34 262.5t-48 267t-128 178t-165 89 t-179.5 27.5t-179.5 -27.5t-166.5 -88t-130 -178t-48.5 -285.5zM397 1622q8 10 27.5 35.5t28 35t26 30t26.5 29.5t24.5 23.5t27.5 20.5t27 14q24 15 68 15t136.5 -51.5t143.5 -51.5q74 0 168 105l92 -76q-36 -54 -58 -77t-43.5 -47.5t-35 -34t-32.5 -22.5q-33 -24 -81.5 -24 t-140.5 51.5t-144 51.5q-74 0 -165 -103z" />
<glyph unicode="&#xd6;" horiz-adv-x="1593" d="M113 697q0 329 187 526.5t494.5 197.5t495 -197.5t187.5 -528.5t-189.5 -524.5t-495.5 -193.5t-492.5 195.5t-186.5 524.5zM272 717q0 -168 49.5 -295t132.5 -192q156 -124 341 -124q152 0 278 77q72 44 124 110.5t86 178.5t34 262.5t-48 267t-128 178t-165 89 t-179.5 27.5t-179.5 -27.5t-166.5 -88t-130 -178t-48.5 -285.5zM489 1667q0 45 32 76t75 31t76 -32t33 -77t-33 -75.5t-78 -30.5t-75 31.5t-30 76.5zM887 1666q0 44 31.5 76t74.5 32t76 -31t33 -77t-33 -76.5t-77 -30.5t-74.5 31.5t-30.5 75.5z" />
<glyph unicode="&#xd7;" horiz-adv-x="1593" d="M303 969q0 12 12.5 23.5t22.5 11.5h6q18 0 59 -41l394 -394l393 394q41 41 59.5 41t27.5 -12.5t10 -28.5t-46 -65.5t-387 -385.5l387 -387q45 -45 45 -63q0 -42 -37 -42q-20 0 -61 41l-393 394q-410 -412 -417 -417q-25 -18 -37.5 -18t-24 11.5t-11.5 29.5t42 62.5 t390 388.5l-385 387q-2 2 -14 13.5t-17.5 17.5t-11.5 16.5t-6 22.5z" />
<glyph unicode="&#xd8;" horiz-adv-x="1593" d="M113 692q0 334 187 531.5t495 197.5q170 0 323 -71l111 182h2l106 -66l-110 -184q250 -207 250 -588q0 -326 -187.5 -521.5t-494.5 -195.5q-170 0 -324 72l-111 -182l-106 65l108 183q-125 96 -187 248.5t-62 328.5zM260 692q0 -315 170 -469l625 1022q-125 55 -241.5 55 t-204 -27.5t-170.5 -92t-131 -189.5t-48 -299zM535 154q123 -55 241.5 -55.5t207.5 28.5t170 92.5t129 185t48 287.5q0 313 -172 482h-2z" />
<glyph unicode="&#xd9;" horiz-adv-x="1513" d="M98 1280v119h520v-119h-182v-788q0 -219 103 -314q86 -80 232.5 -80t243.5 90.5t97 300.5v791h-184v119h485v-119h-182v-782q0 -147 -43 -255t-116 -162t-148.5 -79t-159.5 -25t-162 24t-153.5 78t-121.5 160.5t-46 254.5v786h-183zM530 1688q0 27 19.5 50t50.5 23h2 q16 0 56 -18.5t294 -145.5l-49 -110q-39 14 -289 119q-84 33 -84 82z" />
<glyph unicode="&#xda;" horiz-adv-x="1513" d="M98 1280v119h520v-119h-182v-788q0 -219 103 -314q86 -80 232.5 -80t243.5 90.5t97 300.5v791h-184v119h485v-119h-182v-782q0 -147 -43 -255t-116 -162t-148.5 -79t-159.5 -25t-162 24t-153.5 78t-121.5 160.5t-46 254.5v786h-183zM645 1597q330 164 356.5 164t46 -23.5 t19.5 -49.5q0 -49 -84 -82q-250 -104 -289 -119z" />
<glyph unicode="&#xdb;" horiz-adv-x="1513" d="M98 1280v119h520v-119h-182v-788q0 -219 103 -314q86 -80 232.5 -80t243.5 90.5t97 300.5v791h-184v119h485v-119h-182v-782q0 -147 -43 -255t-116 -162t-148.5 -79t-159.5 -25t-162 24t-153.5 78t-121.5 160.5t-46 254.5v786h-183zM469 1587l295 250h2l295 -250l-80 -90 h-2l-213 203h-2l-215 -203z" />
<glyph unicode="&#xdc;" horiz-adv-x="1513" d="M98 1280v119h520v-119h-182v-788q0 -219 103 -314q86 -80 232.5 -80t243.5 90.5t97 300.5v791h-184v119h485v-119h-182v-782q0 -147 -43 -255t-116 -162t-148.5 -79t-159.5 -25t-162 24t-153.5 78t-121.5 160.5t-46 254.5v786h-183zM449 1667q0 45 32.5 76t76.5 31 t75 -33t31 -77t-32 -74.5t-77 -30.5t-75.5 31.5t-30.5 76.5zM848 1666q0 44 31.5 76t75.5 32t76 -31t32 -77t-33 -76.5t-77 -30.5t-74.5 31.5t-30.5 75.5z" />
<glyph unicode="&#xdd;" horiz-adv-x="1513" d="M31 1280v119h483v-119h-119l377 -588l377 588h-119v119h451v-119h-189l-440 -686q-23 -37 -23 -74v-399h183v-121h-512v121h182v399q0 37 -23 74l-440 686h-188zM645 1597q330 164 356.5 164t46 -23.5t19.5 -49.5q0 -49 -84 -82q-250 -104 -289 -119z" />
<glyph unicode="&#xde;" horiz-adv-x="1267" d="M104 0v121h183v1159h-183v119h506v-119h-180v-129h272q137 0 232.5 -40t139.5 -105q79 -118 79 -248q0 -110 -41 -185t-89 -115q-112 -93 -310 -93h-283v-244h180v-121h-506zM430 483h227q100 0 172 28t107 72q63 79 63 177q0 87 -55 169q-31 46 -100.5 74.5t-167.5 28.5 h-246v-549z" />
<glyph unicode="&#xdf;" horiz-adv-x="1030" d="M49 0v121h170v698h-170v119h170v203q0 135 66.5 214t230.5 79q285 0 285 -297q0 -258 -101 -291q-4 -2 -22.5 -5t-26.5 -8.5t-21 -17.5q-26 -23 -26 -86t10.5 -92t30 -42t40 -19.5t52 -13.5t54.5 -15q66 -29 118 -96.5t52 -178.5q0 -154 -78 -218t-171.5 -64t-156.5 55 l-6 -8q-19 -47 -47 -47q-12 0 -21.5 7t-9.5 46v264q0 39 10.5 47t50.5 8h17q39 0 45 -36q10 -78 16 -114t29 -68.5t66.5 -32.5t82.5 33.5t39 115.5q0 113 -90 154q-18 8 -54 14q-74 12 -130 59q-82 76 -82 211q0 242 209 256q2 25 2 76v78q0 106 -32 155.5t-138 49.5 q-103 0 -133 -59q-23 -45 -23 -109v-1145h-307z" />
<glyph unicode="&#xe0;" horiz-adv-x="1001" d="M92 266q0 117 106 209q58 51 178 83t290 34v47l2 4v8q0 184 -234 185q-47 0 -115 -7q2 -51 -23.5 -73.5t-61 -22.5t-57 24.5t-21.5 59.5q0 137 288 137q168 0 267.5 -78.5t99.5 -224.5l-2 -10v-426q0 -33 4 -47q10 -37 85 -45t77 -10q18 -10 18 -50.5t-13 -51.5t-46 -11 h-37q-178 2 -211 109q-152 -121 -362 -121q-111 0 -171.5 86t-60.5 192zM236 270q0 -70 57 -115.5t137 -45.5q81 0 134 29q104 55 104 171l-2 29v149q-223 -8 -326.5 -65.5t-103.5 -151.5zM324 1300.5q0 18.5 21.5 42t44.5 23.5t45 -14.5t120 -93.5t162 -130l-72 -94 q-18 11 -146 100t-131 92t-12.5 9t-13.5 11t-9 12.5t-7 15.5t-2 26.5z" />
<glyph unicode="&#xe1;" horiz-adv-x="1001" d="M92 266q0 117 106 209q58 51 178 83t290 34v47l2 4v8q0 184 -234 185q-47 0 -115 -7q2 -51 -23.5 -73.5t-61 -22.5t-57 24.5t-21.5 59.5q0 137 288 137q168 0 267.5 -78.5t99.5 -224.5l-2 -10v-426q0 -33 4 -47q10 -37 85 -45t77 -10q18 -10 18 -50.5t-13 -51.5t-46 -11 h-37q-178 2 -211 109q-152 -121 -362 -121q-111 0 -171.5 86t-60.5 192zM236 270q0 -70 57 -115.5t137 -45.5q81 0 134 29q104 55 104 171l-2 29v149q-223 -8 -326.5 -65.5t-103.5 -151.5zM303 1128q37 29 140.5 113t133 104.5t55 20.5t45 -23.5t19.5 -43t-5 -32t-16 -21.5 l-17 -15q-9 -7 -141.5 -99t-142.5 -98z" />
<glyph unicode="&#xe2;" horiz-adv-x="1001" d="M92 266q0 117 106 209q58 51 178 83t290 34v47l2 4v8q0 184 -234 185q-47 0 -115 -7q2 -51 -23.5 -73.5t-61 -22.5t-57 24.5t-21.5 59.5q0 137 288 137q168 0 267.5 -78.5t99.5 -224.5l-2 -10v-426q0 -33 4 -47q10 -37 85 -45t77 -10q18 -10 18 -50.5t-13 -51.5t-46 -11 h-37q-178 2 -211 109q-152 -121 -362 -121q-111 0 -171.5 86t-60.5 192zM156 1110l297 266h2l295 -266l-82 -88l-213 217h-2l-215 -217zM236 270q0 -70 57 -115.5t137 -45.5q81 0 134 29q104 55 104 171l-2 29v149q-223 -8 -326.5 -65.5t-103.5 -151.5z" />
<glyph unicode="&#xe3;" horiz-adv-x="1001" d="M92 266q0 117 106 209q58 51 178 83t290 34v47l2 4v8q0 184 -234 185q-47 0 -115 -7q2 -51 -23.5 -73.5t-61 -22.5t-57 24.5t-21.5 59.5q0 137 288 137q168 0 267.5 -78.5t99.5 -224.5l-2 -10v-426q0 -33 4 -47q10 -37 85 -45t77 -10q18 -10 18 -50.5t-13 -51.5t-46 -11 h-37q-178 2 -211 109q-152 -121 -362 -121q-111 0 -171.5 86t-60.5 192zM170 1219q31 46 74 95.5t55 59.5t29 24q31 23 70.5 23t105 -50t100.5 -50t63.5 17.5t44 34t46.5 50.5l94 -75q-34 -50 -75.5 -98t-53.5 -58t-29 -24q-31 -23 -69.5 -23t-104 50t-116.5 50t-140 -102z M236 270q0 -70 57 -115.5t137 -45.5q81 0 134 29q104 55 104 171l-2 29v149q-223 -8 -326.5 -65.5t-103.5 -151.5z" />
<glyph unicode="&#xe4;" horiz-adv-x="1001" d="M92 266q0 117 106 209q58 51 178 83t290 34v47l2 4v8q0 184 -234 185q-47 0 -115 -7q2 -51 -23.5 -73.5t-61 -22.5t-57 24.5t-21.5 59.5q0 137 288 137q168 0 267.5 -78.5t99.5 -224.5l-2 -10v-426q0 -33 4 -47q10 -37 85 -45t77 -10q18 -10 18 -50.5t-13 -51.5t-46 -11 h-37q-178 2 -211 109q-152 -121 -362 -121q-111 0 -171.5 86t-60.5 192zM205 1290q0 43 30.5 76t74.5 33t77 -31t33 -77t-33 -76.5t-77 -30.5t-74.5 31.5t-30.5 74.5zM236 270q0 -70 57 -115.5t137 -45.5q81 0 134 29q104 55 104 171l-2 29v149q-223 -8 -326.5 -65.5 t-103.5 -151.5zM600 1291q0 46 33 77t76 31t74.5 -31t31.5 -77t-32.5 -76.5t-74.5 -30.5t-75 30.5t-33 76.5z" />
<glyph unicode="&#xe5;" horiz-adv-x="1001" d="M92 266q0 117 106 209q58 51 178 83t290 34v47l2 4v8q0 184 -234 185q-47 0 -115 -7q2 -51 -23.5 -73.5t-61 -22.5t-57 24.5t-21.5 59.5q0 137 288 137q168 0 267.5 -78.5t99.5 -224.5l-2 -10v-426q0 -33 4 -47q10 -37 85 -45t77 -10q18 -10 18 -50.5t-13 -51.5t-46 -11 h-37q-178 2 -211 109q-152 -121 -362 -121q-111 0 -171.5 86t-60.5 192zM227 1209q0 73 61.5 123t173.5 50t165 -55t53 -122.5t-53.5 -123t-173 -55.5t-173 55t-53.5 128zM236 270q0 -70 57 -115.5t137 -45.5q81 0 134 29q104 55 104 171l-2 29v149q-223 -8 -326.5 -65.5 t-103.5 -151.5zM342 1204.5q0 -106.5 113 -106.5t112.5 106.5t-113 106.5t-112.5 -106.5z" />
<glyph unicode="&#xe6;" horiz-adv-x="1478" d="M98 256q0 133 124 211t339 94l107 4v84q0 186 -234 187q-45 0 -112 -7q2 -53 -24 -74.5t-59.5 -21.5t-57 23.5t-23.5 60.5q0 137 284 137q133 0 206 -38.5t122 -106.5q115 145 311 145q96 0 167 -37.5t107 -100.5q66 -117 66 -267q0 -50 -27 -55q-10 -2 -30 -2h-553 q0 -115 35 -195t91 -117q98 -65 216 -65q96 0 143 137q6 20 18 30q16 11 59.5 11t43.5 -35q0 -55 -71 -154q-35 -47 -99.5 -80.5t-142.5 -33.5q-213 0 -340 164h-2q-127 -166 -436 -166q-63 0 -111.5 29.5t-72.5 74.5q-44 85 -44 164zM242 249q0 -44 50 -92t140 -48 q122 0 196 74q46 46 46 116q0 31 -6 154q-329 -5 -408 -131q-18 -29 -18 -73zM823 604h473q-29 231 -217 232q-56 0 -114 -27q-114 -53 -142 -205z" />
<glyph unicode="&#xe7;" horiz-adv-x="909" d="M76 464q0 188 94 328q49 74 141 119t227 45t213 -30.5t78 -108.5q0 -39 -25.5 -61.5t-56.5 -22.5t-57 20.5t-26 69.5q-68 6 -132 6h-4q-297 0 -297 -356q0 -193 100.5 -275.5t229.5 -82.5q112 0 157 109q19 44 26 50t55.5 6.5t48.5 -26.5q0 -37 -39 -101 q-77 -125 -225 -157v-19q170 -59 170 -196q0 -73 -42 -111q-22 -20 -43.5 -36.5t-59.5 -25.5t-63.5 -16.5t-73.5 -11.5t-70 -5q-107 -5 -134 -5v119h49q291 0 291 92t-168 96v117q-170 27 -267 154.5t-97 315.5z" />
<glyph unicode="&#xe8;" horiz-adv-x="909" d="M63 469q0 223 116 354t304 131q104 0 180 -37.5t115 -100.5q72 -118 72 -273q0 -33 -14.5 -42t-40.5 -9h-578q0 -218 111 -302q97 -75 222.5 -75t174.5 135q12 27 22.5 35t40.5 8h9q51 0 51 -37q0 -70 -97.5 -168t-244.5 -98q-188 0 -315.5 128t-127.5 351zM229 604h498 q-33 231 -242 231t-256 -231zM324 1299.5q0 19.5 20.5 43t45 23.5t48 -16.5t125 -98t154.5 -123.5l-72 -94q-10 6 -144 100t-140 99.5t-18.5 17t-15.5 20.5t-3 28.5z" />
<glyph unicode="&#xe9;" horiz-adv-x="909" d="M63 469q0 223 116 354t304 131q104 0 180 -37.5t115 -100.5q72 -118 72 -273q0 -33 -14.5 -42t-40.5 -9h-578q0 -218 111 -302q97 -75 222.5 -75t174.5 135q12 27 22.5 35t40.5 8h9q51 0 51 -37q0 -70 -97.5 -168t-244.5 -98q-188 0 -315.5 128t-127.5 351zM229 604h498 q-33 231 -242 231t-256 -231zM246 1128q37 29 140.5 113t133 104.5t55 20.5t45 -23.5t19.5 -43t-5 -32t-16 -21.5l-17 -15q-9 -7 -141.5 -99t-142.5 -98z" />
<glyph unicode="&#xea;" horiz-adv-x="909" d="M63 469q0 223 116 354t304 131q104 0 180 -37.5t115 -100.5q72 -118 72 -273q0 -33 -14.5 -42t-40.5 -9h-578q0 -218 111 -302q97 -75 222.5 -75t174.5 135q12 27 22.5 35t40.5 8h9q51 0 51 -37q0 -70 -97.5 -168t-244.5 -98q-188 0 -315.5 128t-127.5 351zM156 1110 l297 266h2l295 -266l-82 -88l-213 217h-2l-215 -217zM229 604h498q-33 231 -242 231t-256 -231z" />
<glyph unicode="&#xeb;" horiz-adv-x="909" d="M63 469q0 223 116 354t304 131q104 0 180 -37.5t115 -100.5q72 -118 72 -273q0 -33 -14.5 -42t-40.5 -9h-578q0 -218 111 -302q97 -75 222.5 -75t174.5 135q12 27 22.5 35t40.5 8h9q51 0 51 -37q0 -70 -97.5 -168t-244.5 -98q-188 0 -315.5 128t-127.5 351zM148 1292 q0 45 31.5 76t74.5 31t76 -31t33 -77t-33 -76.5t-77 -30.5t-74.5 31.5t-30.5 76.5zM229 604h498q-33 231 -242 231t-256 -231zM543 1291q0 46 33 77t76 31t74.5 -31t31.5 -77t-32.5 -76.5t-74.5 -30.5t-75 30.5t-33 76.5z" />
<glyph unicode="&#xec;" horiz-adv-x="579" d="M2 1300.5q0 18.5 20.5 42t49.5 23.5h6q14 0 43 -20.5t122 -96.5t150 -121l-71 -94q-10 6 -133 91t-131.5 91.5t-13.5 10.5t-14.5 11t-14.5 15.5t-9 18.5t-4 28.5zM61 0v121h170v608q0 49 -17 60.5t-114 11.5h-30v121l299 28v-829h153v-121h-461z" />
<glyph unicode="&#xed;" horiz-adv-x="579" d="M61 0v121h170v608q0 49 -17 60.5t-114 11.5h-30v121l299 28v-829h153v-121h-461zM150 1128q37 29 140.5 113t133 104.5t55 20.5t45 -23.5t19.5 -43t-5 -32t-16 -21.5l-17 -15q-9 -7 -141.5 -99t-142.5 -98z" />
<glyph unicode="&#xee;" horiz-adv-x="579" d="M2 1108v2l297 266l297 -266v-2l-82 -84h-2l-213 215l-213 -215h-2zM59 0v121h170v608q0 49 -17 60.5t-114 11.5h-30v121l299 28v-829h153v-121h-461z" />
<glyph unicode="&#xef;" horiz-adv-x="694" d="M49 1292q0 45 33 76t78 31t74.5 -32t29.5 -75t-29.5 -75.5t-76.5 -32.5t-78 31.5t-31 76.5zM117 0v121h170v608q0 49 -17.5 60.5t-113.5 11.5h-31v121l299 28v-829h154v-121h-461zM449 1291q0 42 30.5 75t74.5 33t77 -31t33 -77t-33 -76.5t-76 -30.5t-74.5 32.5 t-31.5 74.5z" />
<glyph unicode="&#xf0;" d="M63 475.5q0 227.5 130.5 353t314.5 125.5q102 0 192 -45q-80 141 -235 273q-27 -14 -55.5 -31.5t-44 -27t-29.5 -17.5q-24 -14 -39.5 -14t-35 35.5t-19.5 49t15 23.5t93 55q-113 53 -134 58.5t-36 8.5q-51 10 -51 26t32 43.5t58.5 27.5t106.5 -27.5t145 -66.5 q43 23 84 49q70 43 87 43t37.5 -34.5t20.5 -48t-17 -26t-97 -57.5q125 -106 188 -192q182 -244 182 -541v-18q0 -127 -31.5 -222.5t-78.5 -148.5t-112 -86q-103 -53 -224 -53q-201 0 -324 129t-123 356.5zM219 485q0 -225 103 -305q83 -65 188 -65q102 0 188 66 q47 36 75 112t28 182q0 168 -77 264.5t-217 96.5t-214 -90.5t-74 -260.5z" />
<glyph unicode="&#xf1;" horiz-adv-x="1148" d="M57 0v121h170v622q0 37 -21.5 47.5t-117.5 10.5h-31v121l303 28v-137q119 137 299 137q187 0 241 -103q26 -50 33 -92t7 -106v-528h170v-121h-483v121h170v522q0 137 -88 170q-43 16 -113 16q-102 0 -163.5 -73.5t-61.5 -196.5v-438h170v-121h-484zM242 1219 q31 46 74 95.5t55 59.5t29 24q31 23 70.5 23t105 -50t100.5 -50t63.5 17.5t44 34t46.5 50.5l94 -75q-34 -50 -75.5 -98t-53.5 -58t-29 -24q-31 -23 -69.5 -23t-104 50t-116.5 50t-140 -102z" />
<glyph unicode="&#xf2;" d="M63 467q0 221 122 354t323 133t324.5 -133t123.5 -354t-123.5 -349t-322.5 -128t-323 128t-124 349zM217 489q0 -375 293 -374q291 0 291 372q0 348 -291 349q-293 -1 -293 -347zM324 1299.5q0 19.5 20.5 43t45 23.5t48 -16.5t125 -98t154.5 -123.5l-72 -94 q-10 6 -144 100t-140 99.5t-18.5 17t-15.5 20.5t-3 28.5z" />
<glyph unicode="&#xf3;" d="M63 467q0 221 122 354t323 133t324.5 -133t123.5 -354t-123.5 -349t-322.5 -128t-323 128t-124 349zM217 489q0 -375 293 -374q291 0 291 372q0 348 -291 349q-293 -1 -293 -347zM301 1128q37 29 140.5 113t133 104.5t55 20.5t45 -23.5t19.5 -43t-5 -32t-16 -21.5 l-17 -15q-9 -7 -141.5 -99t-142.5 -98z" />
<glyph unicode="&#xf4;" d="M63 467q0 221 122 354t323 133t324.5 -133t123.5 -354t-123.5 -349t-322.5 -128t-323 128t-124 349zM213 1110l297 266h2l295 -266l-82 -88l-213 217h-2l-215 -217zM217 489q0 -375 293 -374q291 0 291 372q0 348 -291 349q-293 -1 -293 -347z" />
<glyph unicode="&#xf5;" d="M63 467q0 221 122 354t323 133t324.5 -133t123.5 -354t-123.5 -349t-322.5 -128t-323 128t-124 349zM168 1219q31 46 74 95.5t55 59.5t29 24q31 23 70.5 23t105 -50t100.5 -50t63.5 17.5t44 34t46.5 50.5l94 -75q-34 -50 -75.5 -98t-53.5 -58t-29 -24q-31 -23 -69.5 -23 t-104 50t-116.5 50t-140 -102zM217 489q0 -375 293 -374q291 0 291 372q0 348 -291 349q-293 -1 -293 -347z" />
<glyph unicode="&#xf6;" d="M63 467q0 221 122 354t323 133t324.5 -133t123.5 -354t-123.5 -349t-322.5 -128t-323 128t-124 349zM205 1292q0 45 31.5 76t74.5 31t76 -31t33 -77t-33 -76.5t-77 -30.5t-74.5 31.5t-30.5 76.5zM217 489q0 -375 293 -374q291 0 291 372q0 348 -291 349 q-293 -1 -293 -347zM600 1291q0 46 33 77t76 31t74.5 -31t31.5 -77t-32.5 -76.5t-74.5 -30.5t-75 30.5t-33 76.5z" />
<glyph unicode="&#xf7;" horiz-adv-x="1593" d="M115 512q0 41 65 41h1231q63 0 63.5 -41t-57.5 -41h-1243q-59 0 -59 41zM664 44q0 54 39.5 92t92 38t91.5 -37t39 -93t-40 -94t-94 -38t-91 39t-37 93zM664 982q0 54 39.5 92t92 38t91.5 -37t39 -93t-40 -94t-94 -38t-91 39t-37 93z" />
<glyph unicode="&#xf8;" d="M74 452.5q0 237.5 120.5 369.5t315.5 132q86 0 180 -34l137 247h2l103 -59l-139 -252q156 -143 155.5 -377.5t-121 -361.5t-315.5 -127q-94 0 -180 33l-137 -250l-105 57l139 254q-155 131 -155 368.5zM209 465q0 -176 82 -270l342 618q-63 23 -119.5 23t-102.5 -14.5 t-95 -50.5q-107 -77 -107 -306zM391 129q66 -20 119 -20t97 12t95 46q109 74 109 296q0 176 -78 282h-2z" />
<glyph unicode="&#xf9;" horiz-adv-x="1148" d="M57 801v121l314 28v-671q0 -94 30.5 -132t135 -38t182.5 61t78 205v360q0 45 -19.5 55.5t-122.5 10.5h-28v121l313 28v-768q0 -43 20.5 -52t118.5 -9h31v-121l-307 -10v133q-133 -133 -334 -133q-181 0 -223 130q-19 61 -19 148v477q0 35 -22.5 45.5t-106.5 10.5h-41z M369 1299.5q0 19.5 20.5 43t45 23.5t48 -16.5t125 -98t154.5 -123.5l-72 -94q-10 6 -144 100t-140 99.5t-18.5 17t-15.5 20.5t-3 28.5z" />
<glyph unicode="&#xfa;" horiz-adv-x="1148" d="M57 801v121l314 28v-671q0 -94 30.5 -132t135 -38t182.5 61t78 205v360q0 45 -19.5 55.5t-122.5 10.5h-28v121l313 28v-768q0 -43 20.5 -52t118.5 -9h31v-121l-307 -10v133q-133 -133 -334 -133q-181 0 -223 130q-19 61 -19 148v477q0 35 -22.5 45.5t-106.5 10.5h-41z M377 1128q37 29 140.5 113t133 104.5t55 20.5t45 -23.5t19.5 -43t-5 -32t-16 -21.5l-17 -15q-9 -7 -141.5 -99t-142.5 -98z" />
<glyph unicode="&#xfb;" horiz-adv-x="1148" d="M57 801v121l314 28v-671q0 -94 30.5 -132t135 -38t182.5 61t78 205v360q0 45 -19.5 55.5t-122.5 10.5h-28v121l313 28v-768q0 -43 20.5 -52t118.5 -9h31v-121l-307 -10v133q-133 -133 -334 -133q-181 0 -223 130q-19 61 -19 148v477q0 35 -22.5 45.5t-106.5 10.5h-41z M287 1110l297 266h2l295 -266l-82 -86h-2l-211 215h-2l-213 -215h-2z" />
<glyph unicode="&#xfc;" horiz-adv-x="1148" d="M57 801v121l314 28v-671q0 -94 30.5 -132t135 -38t182.5 61t78 205v360q0 45 -19.5 55.5t-122.5 10.5h-28v121l313 28v-768q0 -43 20.5 -52t118.5 -9h31v-121l-307 -10v133q-133 -133 -334 -133q-181 0 -223 130q-19 61 -19 148v477q0 35 -22.5 45.5t-106.5 10.5h-41z M276 1291q0 42 31 75t76 33t77 -31t32 -77t-33 -76.5t-76 -30.5t-75 32.5t-32 74.5zM676 1291q0 46 31.5 77t76.5 31t76 -33t31 -75t-32 -74.5t-78 -32.5t-75.5 30.5t-29.5 76.5z" />
<glyph unicode="&#xfd;" horiz-adv-x="1091" d="M41 819v119h432v-119h-137q176 -487 217 -647l84 256l135 391h-137v119h416v-119h-158l-315 -899q-23 -63 -36.5 -97t-46 -82t-77.5 -83q-84 -68 -171.5 -68t-143.5 43t-56 107q0 37 22.5 58.5t54.5 21.5t56.5 -21.5t24.5 -58.5q0 -6 -4 -27l28 -2q137 0 205 145 q13 27 24 64t17 52.5t6 24.5t-10 40l-272 782h-158zM451 1128q37 29 140.5 113t133 104.5t55 20.5t45 -23.5t19.5 -43t-5 -32t-16 -21.5l-17 -15q-9 -7 -141.5 -99t-142.5 -98z" />
<glyph unicode="&#xfe;" horiz-adv-x="1148" d="M49 -279h170v1496q0 27 -1 36t-14 18q-20 13 -120 13h-35v121l307 29v-598q158 113 375 112q164 0 252 -132t88 -362.5t-116.5 -347t-283.5 -116.5t-309 123v-392h170v-120h-483v120zM362 334q0 -76 74 -150.5t187.5 -74.5t202.5 91t89 270t-82.5 266t-189 87t-194 -54 t-87.5 -132v-303z" />
<glyph unicode="&#xff;" horiz-adv-x="1091" d="M41 819v119h432v-119h-137q176 -487 217 -647l84 256l135 391h-137v119h416v-119h-158l-315 -899q-23 -63 -36.5 -97t-46 -82t-77.5 -83q-84 -68 -171.5 -68t-143.5 43t-56 107q0 37 22.5 58.5t54.5 21.5t56.5 -21.5t24.5 -58.5q0 -6 -4 -27l28 -2q137 0 205 145 q13 27 24 64t17 52.5t6 24.5t-10 40l-272 782h-158zM240 1291q0 42 30.5 75t74.5 33t77 -32t33 -77t-32 -75.5t-76 -30.5t-75.5 32.5t-31.5 74.5zM637 1291q0 44 31.5 76t76.5 32t76 -33t31 -75t-30.5 -74.5t-77 -32.5t-77 31.5t-30.5 75.5z" />
<glyph unicode="&#x152;" horiz-adv-x="2064" d="M129 693q0 329 186.5 528.5t493.5 199.5q51 0 149.5 -11t178.5 -11h755l58 -518h-121q-35 315 -52 347t-61 40q-78 12 -258 12h-270v-494h178q195 0 217 13.5t29 66.5v6q4 43 4 132v22h121v-598h-121v21q0 141 -8.5 172.5t-47 37.5t-212.5 7h-160v-545h289q269 0 311 29 q20 14 32.5 59t65.5 375h119l-84 -584h-782q-80 0 -178.5 -11.5t-151.5 -11.5q-305 0 -492.5 193.5t-187.5 522.5zM285 714.5q0 -276.5 145 -446.5t387 -170q111 0 153 38q25 24 39.5 49.5t21.5 82.5q9 72 9 250v359q0 278 -30 333q-39 70 -101 84q-37 9 -90 9 q-246 0 -390 -156t-144 -432.5z" />
<glyph unicode="&#x153;" horiz-adv-x="1593" d="M63 471q0 223 120 353t311 130q227 0 356 -190q117 190 344 190q96 0 167 -37.5t107 -100.5q66 -119 66 -267q0 -50 -26 -55q-11 -2 -29 -2h-555q0 -115 34.5 -196t91.5 -117q103 -64 216 -64q90 0 133 104q22 67 32.5 68.5t18.5 3.5t25 2q57 0 57 -37q0 -39 -35 -94.5 t-68.5 -90t-90 -58t-121.5 -23.5q-236 0 -365 196q-115 -197 -358 -196q-188 0 -309.5 129t-121.5 352zM207 463q0 -206 101 -287q83 -67 185.5 -67t185.5 67q101 81 101 311q0 104 -27.5 178t-73.5 108q-85 63 -198.5 63t-193.5 -83.5t-80 -289.5zM934 604h475 q-29 231 -217 232q-56 0 -114 -27q-116 -54 -144 -205z" />
<glyph unicode="&#x178;" horiz-adv-x="1513" d="M31 1280v119h483v-119h-119l377 -588l377 588h-119v119h451v-119h-189l-440 -686q-23 -37 -23 -74v-399h183v-121h-512v121h182v399q0 37 -23 74l-440 686h-188zM449 1667q0 45 31.5 76t74.5 31t76 -31t33 -77t-33 -76.5t-77 -30.5t-74.5 31.5t-30.5 76.5zM848 1666 q0 44 31.5 76t75.5 32t76 -31t32 -77t-34 -76.5t-78 -30.5t-73.5 31.5t-29.5 75.5z" />
<glyph unicode="&#x2c6;" d="M215 1110l297 266l297 -266l-82 -88l-215 217l-215 -217z" />
<glyph unicode="&#x2dc;" d="M170 1219q31 46 74 95.5t55 59.5t29 24q31 23 70.5 23t105 -50t100.5 -50t63.5 17.5t44 34t46.5 50.5l94 -75q-34 -50 -75.5 -98t-53.5 -58t-29 -24q-31 -23 -69.5 -23t-104 50t-116.5 50t-140 -102z" />
<glyph unicode="&#x2000;" horiz-adv-x="920" />
<glyph unicode="&#x2001;" horiz-adv-x="1840" />
<glyph unicode="&#x2002;" horiz-adv-x="920" />
<glyph unicode="&#x2003;" horiz-adv-x="1840" />
<glyph unicode="&#x2004;" horiz-adv-x="613" />
<glyph unicode="&#x2005;" horiz-adv-x="460" />
<glyph unicode="&#x2006;" horiz-adv-x="306" />
<glyph unicode="&#x2007;" horiz-adv-x="306" />
<glyph unicode="&#x2008;" horiz-adv-x="230" />
<glyph unicode="&#x2009;" horiz-adv-x="368" />
<glyph unicode="&#x200a;" horiz-adv-x="102" />
<glyph unicode="&#x2010;" horiz-adv-x="681" d="M20 399v140h545v-140h-545z" />
<glyph unicode="&#x2011;" horiz-adv-x="681" d="M20 399v140h545v-140h-545z" />
<glyph unicode="&#x2012;" horiz-adv-x="681" d="M20 399v140h545v-140h-545z" />
<glyph unicode="&#x2013;" d="M0 520v119h1024v-119h-1024z" />
<glyph unicode="&#x2014;" horiz-adv-x="2048" d="M0 520v119h2048v-119h-2048z" />
<glyph unicode="&#x2018;" horiz-adv-x="569" d="M145 1041q0 95 36 188.5t73 140.5t54 47t45 -29.5t28 -41t-28.5 -48t-57.5 -108.5t-29 -166h13q59 0 85.5 -35t26.5 -77t-31.5 -73.5t-76.5 -31.5q-74 0 -106 69.5t-32 164.5z" />
<glyph unicode="&#x2019;" horiz-adv-x="569" d="M174 1318q0 42 32 72.5t77 30.5q74 0 105.5 -68.5t31.5 -163.5t-36 -188.5t-73 -140.5t-54 -47t-45 28.5t-28 40t29 48.5t57.5 109.5t28.5 166.5h-12q-59 0 -86 35t-27 77z" />
<glyph unicode="&#x201a;" horiz-adv-x="569" d="M174 120q0 34 31 64.5t78 30.5q72 0 101.5 -67.5t29.5 -158.5t-32 -183.5t-69 -144.5t-54 -52t-46 27.5t-29 40t27 50t54.5 109.5t27.5 164q-47 2 -76 23.5t-36 42t-7 54.5z" />
<glyph unicode="&#x201c;" horiz-adv-x="681" d="M-11 1041q0 95 36 188.5t73 140.5t54 47t45 -29.5t28 -41t-28.5 -48t-57.5 -108.5t-29 -166h13q59 0 85.5 -35t26.5 -77t-31.5 -73.5t-76.5 -31.5q-74 0 -106 69.5t-32 164.5zM419 1041q0 95 36 188.5t73 140.5t54 47t45 -29.5t28 -41t-28.5 -48t-57.5 -108.5t-29 -166 h13q59 0 85.5 -35t26.5 -77t-31.5 -73.5t-76.5 -31.5q-74 0 -106 69.5t-32 164.5z" />
<glyph unicode="&#x201d;" horiz-adv-x="681" d="M16 1318q0 42 32 72.5t77 30.5q74 0 105.5 -68.5t31.5 -163.5t-36 -188.5t-73 -140.5t-54 -47t-45 28.5t-28 40t29 48.5t57.5 109.5t28.5 166.5h-12q-59 0 -86 35t-27 77zM446 1318q0 42 32 72.5t77 30.5q74 0 105.5 -68.5t31.5 -163.5t-36 -188.5t-73 -140.5t-54 -47 t-45 28.5t-28 40t29 48.5t57.5 109.5t28.5 166.5h-12q-59 0 -86 35t-27 77z" />
<glyph unicode="&#x201e;" horiz-adv-x="681" d="M16 112q0 42 32 72.5t77 30.5q74 0 105.5 -68.5t31.5 -163.5t-36 -188.5t-73 -140.5t-54 -47t-45 28.5t-28 40t29 48.5t57.5 109.5t28.5 166.5h-12q-59 0 -86 35t-27 77zM446 112q0 42 32 72.5t77 30.5q74 0 105.5 -68.5t31.5 -163.5t-36 -188.5t-73 -140.5t-54 -47 t-45 28.5t-28 40t29 48.5t57.5 109.5t28.5 166.5h-12q-59 0 -86 35t-27 77z" />
<glyph unicode="&#x2022;" d="M113 512q0 178 109.5 288.5t288.5 110.5t288.5 -110.5t109.5 -288.5t-109.5 -288.5t-287.5 -110.5t-288.5 110.5t-110.5 288.5z" />
<glyph unicode="&#x2026;" horiz-adv-x="1708" d="M174 110q0 42 31 73.5t77 31.5t77.5 -32.5t31.5 -74.5t-31.5 -75t-76.5 -33t-77 34t-32 76zM743 110q0 42 31 73.5t77 31.5t77.5 -32.5t31.5 -74.5t-31.5 -75t-76.5 -33t-77 34t-32 76zM1313 110q0 42 31 73.5t77 31.5t77.5 -32.5t31.5 -74.5t-31.5 -75t-76.5 -33t-77 34 t-32 76z" />
<glyph unicode="&#x202f;" horiz-adv-x="368" />
<glyph unicode="&#x2039;" horiz-adv-x="909" d="M231 524.5q0 10.5 31 42.5q100 100 171 212t100.5 183.5t35.5 77.5t37 7h35q35 0 35 -19.5t-26.5 -88.5t-100.5 -189.5t-174 -227.5q127 -133 214 -293.5t87 -208.5q0 -20 -39 -20h-27q-29 0 -39 7t-34.5 67.5t-71.5 141.5t-87 130t-74 87t-53.5 59.5t-19.5 32z" />
<glyph unicode="&#x203a;" horiz-adv-x="909" d="M229 20.5q0 20.5 27 88t100.5 188.5t173.5 227q-127 131 -214 293t-87 211q0 18 39 19h29q29 0 38 -7.5t21 -33.5q59 -147 139 -259t129.5 -161t49.5 -58.5t-3 -14.5t-11.5 -14.5t-19.5 -20.5q-15 -15 -83 -95t-118 -170t-71.5 -143.5t-29.5 -61.5t-39 -8h-25 q-45 0 -45 20.5z" />
<glyph unicode="&#x205f;" horiz-adv-x="460" />
<glyph unicode="&#x20ac;" horiz-adv-x="1478" d="M4 549q0 12 16.5 50t29.5 45t26 7h155q-2 16 -2 48t2 49h-186q-41 0 -41 22q0 10 16.5 49t27.5 45t30 6h172q59 231 247.5 380t430.5 149q121 0 239.5 -45t179 -92.5t60.5 -69t-20.5 -65.5t-36.5 -44q-8 0 -42 27t-78 59.5t-126 59t-163 26.5t-150.5 -18t-145.5 -58 t-141.5 -120t-104.5 -189h818q41 0 40 -20q0 -12 -17 -49t-28.5 -45t-44.5 -8h-792l-2 -48l2 -49h745q39 0 39 -20.5t-18 -56t-27.5 -41t-34.5 -5.5h-680q68 -193 218.5 -289t312.5 -96q150 0 269 59q102 49 140.5 82t48.5 38t17.5 -6t7.5 -31v-58q0 -27 -13.5 -43 t-66.5 -55q-184 -129 -412.5 -129t-420 144.5t-250.5 383.5h-212q-34 0 -34 21z" />
<glyph unicode="&#x2122;" horiz-adv-x="1366" d="M2 1476.5q0 59.5 78 59.5h516q84 0 84 -59.5t-76 -61.5h-203v-579q0 -88 -60 -88t-60 88v579h-201q-78 2 -78 61.5zM737 819v660q0 78 58 77q29 0 45 -21.5t48.5 -85t45.5 -85.5q40 -69 90 -166q31 63 174 326q23 33 53 32q61 0 62 -83l-2 -29v-621q-2 -76 -60 -75 q-59 0 -59 77v379q0 8 -1 25.5t-1 25.5q-103 -211 -134 -236q-12 -9 -36.5 -9t-40.5 22q-40 56 -123 223v-426q0 -82 -61 -81q-56 -1 -58 71z" />
<glyph unicode="&#xe000;" horiz-adv-x="942" d="M0 0v942h942v-942h-942z" />
</font>
</defs>
</svg>
