<?xml version="1.0" standalone="no"?>
<!DOCTYPE svg PUBLIC "-//W3C//DTD SVG 1.1//EN" "http://www.w3.org/Graphics/SVG/1.1/DTD/svg11.dtd" >
<svg xmlns="http://www.w3.org/2000/svg">
<metadata></metadata>
<defs>
<font id="CMUConcreteItalic" horiz-adv-x="1126" >
<font-face units-per-em="2048" ascent="1638" descent="-410" />
<missing-glyph horiz-adv-x="733" />
<glyph unicode="&#xfb01;" horiz-adv-x="1228" d="M-55 -285q0 43 28.5 75t63.5 32t53.5 -18.5t18.5 -42t-11 -48.5q20 -2 45 -2q53 0 80 53.5t55 167.5q34 143 144 715l31 172h-154q-47 0 -47 35q0 16 9 45t20.5 34t31.5 5h164q32 188 51 232t39.5 85t44 62.5t58.5 47.5t76 38q108 31 240.5 31t215 -28t82.5 -106 q0 -47 -28.5 -78.5t-60.5 -31.5t-54.5 15.5t-22.5 40.5t12 54q-55 12 -169 13h-27q-121 0 -158 -6.5t-63.5 -31t-47 -95t-51.5 -242.5h533q43 0 43 -23q0 -6 -8 -38l-154 -621q-12 -61 -12 -63q0 -41 23.5 -61.5t51 -20.5t52 46t39 100t20.5 63t58 10h12q41 0 41 -25 t-26.5 -92.5t-53.5 -112.5t-72 -77.5t-111.5 -32.5t-119.5 51t-53 137q0 39 24 131l129 510h-438q-2 -12 -4 -26.5t-8.5 -44t-13.5 -67.5t-22.5 -115t-59.5 -310.5t-78.5 -359t-104.5 -215.5t-168 -91q-66 0 -127 29.5t-61 95.5z" />
<glyph unicode="&#xfb02;" horiz-adv-x="1286" d="M-55 -285q0 43 28.5 75t63.5 32t53.5 -18.5t18.5 -42t-11 -48.5q20 -2 56 -2t65 46t59 169q48 198 144 723l31 170h-154q-47 0 -47 35q0 16 9 45t20.5 34t31.5 5h164q37 213 70 285q93 211 385 211q117 0 180.5 -20.5t77.5 -45.5t18 -68q18 88 27.5 104.5t40.5 16.5h41 q51 0 51 -20q0 -12 -6 -35l-270 -1083q-18 -86 -19 -88q0 -43 22.5 -63.5t51.5 -20.5t53.5 46t38.5 101t20 63t39 9h17q55 0 55 -25q0 -30 -26.5 -96t-53 -111t-71.5 -77.5t-111 -32.5t-120 53t-54 137q0 18 14 86l137 555h-493q-121 -674 -176 -882q-92 -346 -283 -347 q-66 0 -127 29.5t-61 95.5zM614 938h502l80 322q-37 -55 -88 -56q-66 0 -66 62q0 10 9 39q-63 8 -184.5 8t-151 -26t-51 -100.5t-50.5 -248.5z" />
<glyph unicode="&#xfb03;" horiz-adv-x="1929" d="M-55 -285q0 41 28.5 74t63.5 33t53.5 -18.5t18.5 -42t-11 -48.5q18 -2 43 -2q59 0 95 74q51 115 174 797q29 152 45 237h-156q-45 0 -45 37q0 63 31 78q8 4 28 4h164v2q35 221 78 305q98 188 369.5 188.5t271.5 -122.5q0 -49 -30.5 -78t-67.5 -29q-66 0 -66 64q0 18 6 37 q-59 8 -175 8t-138 -19.5t-35.5 -44t-24 -62.5t-16.5 -70q-23 -121 -35 -179h533q39 209 67 274q78 176 295 211q63 10 142 11h47q285 0 284 -131q0 -51 -30.5 -82t-63.5 -31t-51 17.5t-18 44t10 46.5q-70 14 -180 15h-33q-127 0 -167 -6.5t-63.5 -30t-41.5 -72.5 q-26 -73 -60 -266h563q43 0 43 -23q0 -8 -8 -41l-156 -616q-10 -35 -10 -70.5t23.5 -56t51.5 -20.5t52.5 46t38.5 101t19 59q8 12 59 13h10q43 0 43 -25q0 -28 -26.5 -94t-53 -111t-71.5 -77.5t-112 -32.5t-120 51t-53 137q0 39 25 131l127 510h-467v-2q-9 -56 -69 -372 t-87 -426q-48 -194 -127 -285q-125 -143 -281 -144q-74 0 -131 17.5t-80.5 44t-23.5 67.5t28.5 72t63.5 31t53.5 -18.5t18.5 -39t-9 -49.5q33 -4 84 -4q153 0 218 146q46 102 77 279q64 368 127 683h-532q-137 -737 -176 -886.5t-111 -245.5t-172 -97q-66 0 -127 29.5 t-61 95.5z" />
<glyph unicode="&#xfb04;" horiz-adv-x="1957" d="M-55 -285q0 41 28.5 74t63.5 33t53.5 -18.5t18.5 -42t-11 -48.5q18 -2 43 -2q59 0 95 74q51 115 174 797q29 152 45 237h-156q-45 0 -45 35q0 66 31 80q8 4 28 4h164v2q29 180 55 255q85 239 361 239q246 0 246 -125q0 -45 -32 -75t-67 -30q-66 0 -65 62q0 23 8 41 q-57 6 -107 6h-72q-94 0 -123 -70q-15 -37 -25 -88q-27 -151 -42 -217h533q10 76 30.5 161t32 106.5t29.5 59.5t39.5 57t53.5 44t70 37q98 31 193 31h4q160 0 218.5 -33t60.5 -101q18 86 28.5 103.5t41.5 17.5h41q51 0 51 -20q0 -12 -6 -35l-273 -1083q-16 -76 -16 -103.5 t21.5 -48t51 -20.5t54 46t38 101t20.5 63t38 9h29q45 0 45 -25q0 -30 -26.5 -96t-53.5 -111t-73 -77.5t-110.5 -32.5t-118.5 52t-54 138q0 18 14 86l137 555h-495v-2q-5 -39 -68.5 -364.5t-89.5 -435.5q-48 -196 -129 -285q-123 -141 -277 -142q-74 0 -131 17.5t-80.5 44 t-23.5 67.5t28.5 72t63.5 31t53.5 -18.5t18.5 -39t-9 -49.5q33 -4 101.5 -4t138.5 58q68 60 110 236q23 99 40 197q61 336 116 617h-532q-139 -739 -168 -850q-92 -377 -291 -379q-66 0 -127 29.5t-61 95.5zM1284 938h504l80 322q-37 -55 -88 -56q-66 0 -66 62q0 16 6 39 q-63 8 -164.5 8t-138.5 -10.5t-61.5 -59.5t-71.5 -305z" />
<glyph horiz-adv-x="0" />
<glyph horiz-adv-x="2048" />
<glyph unicode="&#xd;" horiz-adv-x="681" />
<glyph unicode=" "  horiz-adv-x="733" />
<glyph unicode="&#x09;" horiz-adv-x="733" />
<glyph unicode="&#xa0;" horiz-adv-x="733" />
<glyph unicode="!" horiz-adv-x="671" d="M250 96q0 45 41 83t84 38t69.5 -24.5t26.5 -67.5t-38 -84t-83 -41t-72.5 25.5t-27.5 70.5zM377 414q0 4 6 41l170 858q27 131 137 131q37 0 62.5 -22.5t25.5 -55.5t-10 -63l-260 -857q-12 -43 -21.5 -51t-52.5 -8h-10q-47 0 -47 27z" />
<glyph unicode="&#x22;" d="M528 797q0 2 109 514q23 123 102 123q29 0 49.5 -18.5t20.5 -37t-154 -559.5q-14 -50 -33 -55q-8 -2 -32 -4h-6q-56 0 -56 37zM872 797q109 547 125 581q25 55 86 56q29 0 48.5 -18.5t19.5 -37t-79 -301.5t-84 -294t-16 -16t-14.5 -5t-25.5 -2h-6q-54 0 -54 37z" />
<glyph unicode="#" horiz-adv-x="1808" d="M240 301q0 59 82 59h337l154 304h-387q-80 0 -80 60t80 60h451l294 574q33 61 65 61t48 -17.5t16 -39t-288 -578.5h317l295 574q9 14 12.5 22.5t11 16.5t12.5 12q12 10 35.5 10t40.5 -17.5t17 -41t-289 -576.5h260q29 0 47.5 -2t34 -19.5t15.5 -39.5q0 -59 -82 -59h-338 l-154 -304h387q80 0 80 -60t-78 -60h-452l-297 -576q-33 -61 -64 -61t-47 17.5t-16 34.5q0 29 14 52l275 533h-318l-297 -576q-33 -61 -63.5 -61t-47 17.5t-16.5 34.5q0 22 12 52l277 533h-279q-45 0 -61 20.5t-16 40.5zM795 360h317l154 304h-318z" />
<glyph unicode="$" d="M246 276q0 197 110 197q29 0 47.5 -18.5t18.5 -54t-51 -74.5v-25q0 -154 157 -188l142 567q-254 66 -254 291q0 99 43 181.5t91 133.5q109 116 308 146q14 70 25.5 87t48.5 17h12q49 0 49 -39q0 -14 -14 -67q256 -39 256 -271q0 -182 -109 -182q-29 0 -47 18.5t-18 44.5 q0 49 51 84q0 158 -164 185l-127 -510q129 -31 188.5 -114t59.5 -191q0 -166 -120 -322t-328 -180q-2 -10 -6.5 -26.5t-6.5 -24t-5 -17.5t-5 -14t-6 -10t-8 -7.5t-10.5 -4.5t-16.5 -3h-22q-51 0 -52 39q0 23 15 70q-121 14 -186.5 88.5t-65.5 193.5zM553 998q0 -47 36 -96.5 t118 -70.5l118 478q-78 -16 -135 -54t-84.5 -84.5t-40 -86t-12.5 -86.5zM651 115q141 33 211 135t70 205q0 152 -148 194z" />
<glyph unicode="%" horiz-adv-x="1808" d="M317 -70q0 18 29 47l1163 1258q-92 -20 -174 -21q-152 0 -301 70q-4 -129 -51 -258t-141 -222t-209 -93q-80 0 -145.5 58t-65.5 187.5t47 258t143.5 225t216.5 96.5q58 0 86.5 -17.5t40 -25.5t28.5 -25q146 -141 362 -141q121 0 226 47t159.5 103.5t72.5 56.5 q39 0 39 -49q14 -10 14.5 -25.5t-37.5 -50.5t-84 -67.5t-50 -36.5l-31 -31l-1247 -1352q-33 -33 -50.5 -33t-29 11.5t-11.5 29.5zM549 967q0 -135 106 -136q109 0 186 145.5t77 285.5q0 86 -34 119.5t-77 33.5q-72 0 -127 -60.5t-81 -144.5q-50 -162 -50 -243zM1126 129 q0 125 44 253t141.5 228.5t222.5 100.5q80 0 142.5 -57.5t62.5 -183.5t-44 -253t-140.5 -228.5t-217.5 -101.5q-82 0 -146.5 58.5t-64.5 183.5zM1251 131.5q0 -64.5 32 -95t75 -30.5q74 0 137.5 74t95 172t31.5 180t-30.5 120t-78.5 38q-90 0 -149 -83t-86 -197t-27 -178.5z " />
<glyph unicode="&#x26;" horiz-adv-x="1695" d="M272 383q0 72 34 183.5t114 224.5q14 18 14 40l-4 60q0 178 118 357q56 85 148 140.5t200.5 55.5t179.5 -58.5t71 -140.5t-32 -112.5t-66 -30.5t-52 17.5t-18 53t43 70.5q-39 82 -143 82q-70 0 -126.5 -36t-88 -82t-54.5 -109q-31 -87 -41 -164q123 74 234 74 q70 0 104.5 -39t34.5 -117t-61.5 -163t-180 -85t-196.5 78q-80 -174 -80 -289q0 -297 444 -297q233 0 388 91.5t219 316.5q23 86 22 143q0 119 -88 248q-205 -100 -205 -184q0 -31 41 -58q62 38 99 3q18 -17 18 -45t-23.5 -57.5t-82 -29.5t-117 42t-58.5 112.5t38 125t74 82 t116 77t98 61.5q135 94 207 270q-12 20 -12 47t28.5 53.5t58.5 26.5t47 -16t17 -42t-17.5 -81t-75.5 -148.5t-142 -164.5q102 -131 102 -301q0 -151 -81 -318q-50 -102 -129 -181t-224.5 -135.5t-309 -56.5t-270 28t-168 69t-100.5 97q-66 95 -66 212zM586 799 q49 -76 137 -76q41 0 63 21q35 36 35 110q0 33 -41 33q-98 0 -194 -88z" />
<glyph unicode="'" horiz-adv-x="671" d="M473 797q0 12 54.5 265t56.5 264t4 17.5t6 18.5t9 21.5t12.5 19.5t16.5 16q22 15 51.5 15t50 -18.5t20.5 -37t-154 -559.5q-14 -50 -35 -55q-8 -2 -33 -4h-4q-55 0 -55 37z" />
<glyph unicode="(" horiz-adv-x="899" d="M289 74q0 393 177 793.5t499 639.5q37 29 69 29h29q43 0 43 -15t-37 -42q-209 -160 -361 -410q-288 -476 -288 -991q0 -139 28.5 -254t62.5 -172.5t62.5 -98t28.5 -49.5q0 -16 -37 -16h-39q-16 0 -25 3t-33 28.5t-56 77.5q-123 198 -123 477z" />
<glyph unicode=")" horiz-adv-x="899" d="M47 -494q0 12 39 41q209 162 360 412q287 478 287 987q0 139 -28.5 254t-62.5 171t-62.5 97t-28.5 50q0 18 35 18h41q41 0 100 -90q137 -207 137 -514q0 -499 -290 -983q-160 -266 -390 -436q-33 -25 -67 -25h-31q-39 0 -39 18z" />
<glyph unicode="*" d="M399 858.5q0 26.5 26 45.5q44 34 138 77q111 57 168 84q-37 29 -79 56.5t-66.5 44t-47.5 31.5q-40 27 -40 55t24.5 52.5t48.5 24.5t53 -21.5t177 -144.5q23 104 46.5 212.5t33.5 123.5q25 35 54 35q58 0 58 -47q0 -10 -88 -324q274 160 284.5 163t22.5 3t28.5 -12 t16.5 -28.5t-2 -22.5t-4 -12.5t-7 -12.5t-9 -10t-14.5 -10.5t-17.5 -10.5t-21.5 -12t-24.5 -13t-29 -15q-164 -88 -202 -103q47 -37 115.5 -80t92 -64.5t23.5 -48t-25.5 -48t-48 -21.5t-48 18.5t-179.5 147.5q-23 -104 -46.5 -212.5t-33.5 -123.5q-27 -37 -55 -37 t-42.5 14.5t-14.5 29.5t88 329q-274 -160 -285.5 -163t-25 -3t-28 13.5t-14.5 40z" />
<glyph unicode="+" horiz-adv-x="1695" d="M295 513q0 60 80 60h553q6 25 137 547q14 74 65 74q25 0 42.5 -18.5t17.5 -36.5t-8 -47l-129 -519h520q82 0 82 -60t-78 -60h-555l-135 -541q-18 -82 -68 -82q-23 0 -40 16.5t-17 44.5l137 562h-526q-78 0 -78 60z" />
<glyph unicode="," horiz-adv-x="671" d="M156 -324q0 12 34.5 48t83 110t70.5 166q-94 4 -94 84q0 51 40 92t93 41q94 0 94 -114.5t-57.5 -234.5t-119.5 -190.5t-81.5 -70.5t-41 28.5t-21.5 40.5z" />
<glyph unicode="-" horiz-adv-x="784" d="M184 441q0 38 21 75q12 20 45 21h440q53 0 53 -37q-8 -76 -36 -92q-10 -4 -31 -5h-440q-52 0 -52 38z" />
<glyph unicode="." horiz-adv-x="671" d="M252 94q0 43 39 83t85 40t71.5 -25.5t25.5 -67.5t-40 -83t-86 -41t-70.5 25.5t-24.5 68.5z" />
<glyph unicode="/" d="M53 -460.5q0 15.5 4 27t13.5 28t16.5 29.5q14 27 50 85l1065 1774q35 51 63 51t45 -16.5t17 -37.5t-33 -77l-1104 -1841q-2 -2 -9 -15.5t-12 -20.5t-15 -16q-19 -20 -42.5 -20t-41 17t-17.5 32.5z" />
<glyph unicode="0" d="M254 315q0 176 98 500q23 74 73 181.5t108.5 176t152.5 119.5t209 51q301 0 301 -337q0 -135 -49 -326q-68 -285 -160 -434q-164 -268 -432 -269q-301 0 -301 338zM401 319q0 -221 187 -221q117 0 200 87.5t128 211t92 316t47 297.5q0 213 -189 213q-78 0 -141 -38 t-102 -89.5t-74 -137.5q-46 -113 -72 -223.5t-28.5 -119.5t-8.5 -31.5t-12 -50t-12 -63.5q-15 -90 -15 -151z" />
<glyph unicode="1" d="M272 37q0 14 10 41q14 43 56 43h209l231 926q-135 -94 -235 -95q-43 0 -43 37q0 12 6 38t16 36t50 13t100.5 28t122 86t93.5 103t54 42q37 0 37 -35q0 -2 -12 -57l-281 -1122h197q47 0 47 -37q0 -16 -9.5 -45t-21.5 -34t-31 -5h-540q-56 0 -56 37z" />
<glyph unicode="2" d="M162 2q0 16 19.5 67.5t57 126t114.5 158.5t142.5 124.5t132 72t118 56t110.5 64.5t99 84q94 103 94 259q0 113 -69 161t-161 48q-150 0 -258 -113t-108 -207q0 -49 39 -49q51 0 100 65.5t49 114.5q0 14 -9 33.5t-9 32t35.5 42t53 29.5t36 -38.5t18.5 -77.5 q0 -96 -91 -210t-208 -114q-61 0 -99 42t-38 108q0 152 151.5 307t356.5 155q158 0 258 -84.5t100 -242.5q0 -250 -225 -406q-90 -63 -207 -115.5t-204 -109.5t-173 -166q82 -2 217 -49t211 -47t135 63q66 73 90 157q9 32 47 32h33q41 0 41 -24.5t-25.5 -81t-69.5 -124 t-120 -118t-157 -50.5t-221 60.5t-173.5 60.5t-42.5 -2q-35 -10 -58.5 -60t-28.5 -54t-29 -5h-27q-29 0 -38 4.5t-9 20.5z" />
<glyph unicode="3" d="M205 226.5q0 97.5 31.5 131t67.5 33.5t54.5 -17.5t18.5 -52t-49 -75.5q27 -150 207 -150q109 0 187.5 35t117.5 93q71 104 71 229q0 174 -209 174h-67q-39 0 -39 23.5t11 59.5t48 35h64q258 0 333 193q27 68 27 127q0 158 -207 158q-141 0 -236 -72t-95 -143 q0 -41 37 -41q23 0 44 21.5t21 47.5l-18 62q0 12 34.5 42.5t53 30.5t36 -38.5t17.5 -79.5q0 -80 -64.5 -144.5t-136 -64.5t-109.5 40t-38 101q0 133 141 245.5t336 112.5q145 0 233.5 -69.5t88.5 -194.5t-70 -234.5t-184 -164.5q27 -27 41 -44.5t34.5 -68.5t20.5 -114 q0 -223 -162 -349.5t-385 -126.5q-143 0 -225 76t-82 173.5z" />
<glyph unicode="4" d="M102 80q0 16 20 28q127 83 250 212.5t231 309t154 304.5t80.5 238.5t36.5 117.5q27 51 74 51q57 0 58 -55q0 -58 -62.5 -226.5t-129 -305t-183.5 -297t-256 -291.5h10q101 0 249 -54q40 -14 52 -18q82 336 99.5 382t72.5 46q27 0 42 -15t15 -31.5t-23 -111.5 q-56 -235 -75 -303h51q39 0 72 5.5t35 5.5q18 0 40.5 -31t22.5 -43q0 -23 -77.5 -40t-117.5 -17t-57 2q0 -25 -34.5 -155t-40.5 -140q-27 -45 -74 -45q-23 0 -39 14t-16 32.5t75 323.5q-25 8 -64.5 22.5t-60 21t-50.5 14.5q-51 14 -119 14t-108 -6t-51 -13 q-29 -20 -43.5 -20t-36.5 29t-22 45z" />
<glyph unicode="5" d="M219 238q0 84 34 116.5t68 32.5t53 -18.5t19 -56t-51 -74.5q14 -74 72.5 -110t142.5 -36t154.5 35t112.5 86t70 115q48 111 48 219q0 172 -170 172q-143 0 -252 -103q-29 -29 -38 -32.5t-40 -3.5h-10q-49 0 -49 36q0 14 12 60l154 614q14 49 23 49t48 -15 q120 -46 227 -46t184 15.5t122 30.5t47 15q18 0 19 -22q0 -8 -9.5 -41t-15.5 -43q-10 -12 -65.5 -32.5t-150.5 -39t-176 -18.5t-163 18l-98 -397q131 76 260 76t209 -78t80 -217q0 -223 -156 -395.5t-404 -172.5q-137 0 -224 72t-87 189z" />
<glyph unicode="6" d="M260 340q0 119 43 296t107.5 299t146.5 206t164 126q148 76 285 76q88 0 154.5 -36.5t66.5 -114.5t-32 -108.5t-66 -30.5t-52 17t-18 44q0 39 39 78q-39 43 -113 43q-152 0 -291 -124t-211 -374q176 154 377 154q76 0 129 -31t78 -79q45 -86 45 -165.5t-25.5 -181.5 t-54 -156.5t-60.5 -94.5t-88.5 -91t-140.5 -83t-156.5 -32t-117.5 12.5t-96 46.5t-82 109.5t-31 194.5zM401 307q0 -215 185 -215q129 0 221 88q59 59 83.5 116.5t48 157t24 156t-41.5 108.5t-143 52q-150 0 -263.5 -124t-113.5 -339z" />
<glyph unicode="7" d="M285 937q0 15 176 372q10 23 20.5 28.5t32.5 5.5h29q45 0 45 -18q0 -8 -27 -65q150 84 264 83q43 0 73 -23.5t42 -53t35.5 -53t56.5 -23.5q104 0 209 121q27 33 64 32h22q47 0 47 -20q0 -10 -42 -67.5t-110.5 -164t-146.5 -243.5t-162 -344t-143 -428q-27 -98 -96 -99 q-27 0 -45.5 17.5t-18.5 49.5t39 155t132 332.5t212 404.5l90 145q-45 -12 -73 -12q-59 0 -112.5 63.5t-100.5 63.5q-98 0 -206 -63.5t-171 -163.5q-20 -33 -28.5 -40t-29.5 -7h-40q-37 0 -37 15z" />
<glyph unicode="8" d="M207 249q0 140 102.5 267t286.5 203v2q-2 2 -20 15l-24 17q-33 24 -46.5 41t-27 36.5t-20.5 37.5q-18 44 -18 93q0 141 124 261.5t329 120.5q133 0 220 -58t87 -177t-85 -225.5t-238 -171.5q73 -55 88.5 -67.5t43 -41.5t39.5 -52q35 -65 35 -134q0 -158 -140 -298.5 t-384 -140.5q-152 0 -252 66t-100 206zM344 278.5q0 -102.5 68.5 -144.5t169.5 -42q164 0 261 86t97 195q0 85 -114 171q-17 13 -59 45t-69 52q-174 -61 -264 -160.5t-90 -202zM573 1008q0 -45 17.5 -65.5t26 -30t30 -26t34.5 -26.5t46 -34.5t53 -41.5q293 117 293 306 q0 76 -58.5 110.5t-140.5 34.5q-131 0 -216 -66.5t-85 -160.5z" />
<glyph unicode="9" d="M227 131q0 76 32 106.5t67 30.5t52 -17.5t17 -50t-37 -69.5v-2q53 -37 131 -37q154 0 283 123t199 369q-178 -156 -377 -156q-76 0 -129 30.5t-78 79.5q-45 90 -45 167.5t25.5 181.5t55 158.5t62.5 94.5t89.5 90t141.5 81.5t158.5 31.5t117.5 -12t94 -46 q108 -75 108 -294q0 -106 -37 -279q-92 -432 -359 -624q-155 -111 -327 -111q-106 0 -175 39t-69 115zM492 729q0 -74 40.5 -127t145.5 -53q145 0 260 126t115 342t-174 216q-135 0 -234 -94q-63 -61 -102 -164t-45 -174z" />
<glyph unicode=":" horiz-adv-x="671" d="M252 94q0 43 39 83t85 40t71.5 -25.5t25.5 -67.5t-40 -83t-86 -41t-70.5 25.5t-24.5 68.5zM432 817q0 43 39 83t85 40t71.5 -25.5t25.5 -67.5t-40 -83t-86 -41t-70.5 25.5t-24.5 68.5z" />
<glyph unicode=";" horiz-adv-x="671" d="M156 -324q0 12 34.5 48t83 110t70.5 166q-94 4 -94 84q0 51 40 92t93 41q94 0 94 -114.5t-57.5 -234.5t-119.5 -190.5t-81.5 -70.5t-41 28.5t-21.5 40.5zM432 817q0 43 39 83t85 40t71.5 -25.5t25.5 -67.5t-40 -83t-86 -41t-70.5 25.5t-24.5 68.5z" />
<glyph unicode="&#x3c;" horiz-adv-x="1695" d="M350 504q0 29 8.5 38t13.5 14t14 10t14.5 8.5t16.5 7.5t13 6l1212 557q29 12 49 12t36 -17.5t16 -36.5t-5 -29.5t-16.5 -18.5t-18.5 -13.5t-23.5 -12.5t-20.5 -9l-950 -436q-139 -66 -170 -78v-2l852 -508q59 -35 59 -65t-18.5 -47t-39.5 -17t-46 14l-940 561 q-56 33 -56 62z" />
<glyph unicode="=" horiz-adv-x="1695" d="M240 301q0 47 51 57q14 2 45 2h1186q78 0 77 -61q0 -59 -77 -59h-1203q-79 0 -79 61zM346 724q0 60 78 60h1202q80 0 80 -60t-80 -60h-1202q-78 0 -78 60z" />
<glyph unicode="&#x3e;" horiz-adv-x="1695" d="M205 -79.5q0 19.5 5 30t16.5 18.5t18.5 13.5t23.5 12.5t20.5 9l1050 483q23 10 72 31q-27 18 -79 48t-64 38l-711 424q-59 30 -59 72q0 23 18.5 40t39.5 17t83 -37l903 -540q55 -33 55 -68t-35 -54q-10 -5 -15 -8.5t-16 -7.5t-13 -6l-1213 -559q-25 -10 -46.5 -10 t-37.5 17t-16 36.5z" />
<glyph unicode="?" d="M418 1006q0 31 21.5 84t65.5 115.5t102.5 115.5t141 89t189.5 36t180.5 -64.5t73.5 -179.5q0 -172 -139 -303q-37 -33 -310 -219q-84 -55 -84 -129q0 -41 39 -41q31 0 67 23.5t50 51.5t22.5 32t41.5 4h8q53 0 53 -23q0 -51 -82 -130t-192 -79q-63 0 -99.5 38t-36.5 101 q0 109 76 197q29 33 179.5 134.5t166.5 113.5q111 86 111 209q0 68 -44 105.5t-132 37.5t-180.5 -66.5t-145.5 -177.5q42 -59 -11 -111q-30 -30 -62 -30t-51 17.5t-19 48.5zM479 97q0 46 41 83t84 37t68.5 -24.5t25.5 -67.5t-37.5 -84t-83 -41t-72 25.5t-26.5 71.5z" />
<glyph unicode="@" horiz-adv-x="1695" d="M313 492q0 178 80 375.5t228 336.5q244 229 581 230q250 0 391.5 -133.5t141.5 -368.5q0 -127 -42 -278.5t-136.5 -275.5t-213.5 -124q-98 0 -114 119q-143 -119 -316 -119q-127 0 -222 74.5t-95 238.5q0 201 136 395q65 91 171.5 148t231.5 57q233 0 297 -200h18 q39 0 39 -25q0 -14 -61.5 -257t-61.5 -267q0 -43 35 -43q90 0 153.5 196.5t63.5 331.5q0 193 -117 301.5t-305 108.5t-333.5 -74t-236.5 -189.5t-142.5 -254t-51.5 -246t20.5 -175t67.5 -130t140.5 -99t222.5 -36.5q240 0 501 71q72 18 115 19h33q37 0 37 -19.5 t-107.5 -65.5t-281.5 -86t-322 -40q-258 0 -401.5 133t-143.5 371zM729 590q0 -117 62.5 -166t163 -49t187.5 69.5t130 159.5q10 23 32.5 112t22.5 120q0 84 -52 148.5t-161 64.5q-172 0 -278.5 -148.5t-106.5 -310.5z" />
<glyph unicode="A" horiz-adv-x="1615" d="M129 37q0 12 8 39.5t22.5 36t53.5 8.5h111q25 45 77 131l664 1120q18 33 36.5 43t49.5 10h23q41 0 47 -17t7 -19.5t3 -26.5l84 -899q4 -57 16 -171t17 -171h106q57 0 57 -37q0 -14 -8 -42t-20 -35t-35 -7h-371q-49 0 -49 35q0 16 7 43t20.5 35t42.5 8h98l-31 321h-524 l-190 -321h81q57 0 58 -41q0 -55 -31 -74q-10 -6 -33 -6h-344q-53 0 -53 37zM715 563h440l-59 641z" />
<glyph unicode="B" horiz-adv-x="1542" d="M166 37q0 14 8 41q12 43 51 43h144l288 1159h-112q-57 0 -58 37q0 63 31 78q10 4 31 4h561l66 2q281 0 368 -129q43 -59 43 -158t-72.5 -197t-199.5 -151q-33 -14 -103 -35q117 -16 192 -82.5t75 -183.5q0 -115 -76 -229q-158 -236 -498 -236h-694q-45 0 -45 37zM506 121 h364q129 0 224.5 33.5t143.5 87.5q91 101 91 211q0 215 -295 215h-391zM674 788h305q129 0 226.5 33t145.5 83q91 95 91 194q0 70 -53.5 124t-186.5 58h-405z" />
<glyph unicode="C" horiz-adv-x="1581" d="M309 487q0 121 37 252t113 253t180 218.5t249.5 154.5t311.5 58q236 0 373 -190q110 162 140 182q9 6 22 6q26 0 26 -20q0 -7 -58 -242t-61 -244q-10 -36 -45 -36h-2h-10q-43 0 -54 4t-11 22l2 70q0 112 -58 210q-30 52 -90.5 85t-160 33t-209 -34t-212 -103.5 t-182.5 -191.5t-118 -284q-27 -102 -27 -204.5t42 -185.5t113 -125q132 -79 296 -79t298 100.5t187 247.5q2 6 4 13.5t4 11.5t4 9t5 7t8 5q9 6 26 6h31q47 0 47 -23q0 -4 -8 -33q-63 -195 -257 -329t-419 -134q-156 0 -285 63q-74 36 -128 90t-89 145t-35 212z" />
<glyph unicode="D" horiz-adv-x="1654" d="M164 37q0 84 69 84h134l288 1159h-118q-51 0 -52 37q0 82 64 84l14 -2h555l68 2q145 0 248.5 -42t157.5 -115q100 -137 100 -322q0 -230 -118 -463q-65 -127 -159 -227.5t-245.5 -166t-333.5 -65.5h-611q-61 0 -61 37zM510 121h311q543 0 688 557q33 127 33 227 q0 375 -420 375h-321z" />
<glyph unicode="E" horiz-adv-x="1484" d="M162 37q0 14 8 41q12 43 51 43h144l286 1153h-127q-43 0 -43 37q0 57 20.5 70t41.5 14h1005q51 0 51 -43q0 -27 -51 -420q-4 -39 -17 -47t-50 -8h-2q-29 0 -40.5 9t-11.5 28.5t13.5 126t13.5 153t-3 54t-33 16.5q-36 10 -263 10h-352l-123 -490l133 -2q174 0 209 5.5 t46 31t23.5 71.5t21.5 80t23.5 44t47.5 10q53 0 53 -36v-5q0 -10 -127 -514q-10 -45 -55 -45h-13q-53 0 -53 37l37 194q-74 8 -168 9h-209l-135 -543h326q314 0 354 25q44 26 190 393q12 33 24.5 40t43.5 7h4q53 0 53 -25.5t-204 -519.5q-10 -25 -21.5 -33t-38.5 -8h-1038 q-45 0 -45 37z" />
<glyph unicode="F" horiz-adv-x="1427" d="M162 37q0 84 59 84h144l286 1153h-125q-45 0 -45 37q0 84 62 84h979q49 0 49 -43q0 -27 -51 -420q-4 -39 -17.5 -47t-50.5 -8h-2q-53 0 -53 41q0 10 14 133t14 162t-22 49q-33 12 -275 12h-325l-129 -516h240t112.5 10t25.5 19.5t13 42t18.5 65.5t11.5 47t8 28.5t12 18.5 q14 8 59.5 8t46.5 -34q0 -4 -129 -521q-10 -43 -54 -43h-12q-55 0 -55 35l39 197q-55 6 -166 6h-201l-129 -516h170q47 0 47 -37q-4 -70 -37 -80q-16 -4 -26 -4h-451q-55 0 -55 37z" />
<glyph unicode="G" horiz-adv-x="1703" d="M309 483q0 158 59.5 321t168 302t282.5 228t381 89q236 0 373 -190q110 162 140 182q9 6 22 6q27 0 26 -22l-119 -484q-8 -25 -16 -30.5t-31 -5.5h-32q-27 0 -35 6t-8 24l2 64q0 141 -75 235.5t-221.5 94.5t-277.5 -52.5t-218 -135.5t-148 -191q-117 -203 -117 -426 q0 -111 39 -192t106 -125q131 -85 324 -85q211 0 301 56q31 20 48 34.5t29.5 39t16.5 36.5t8 34.5t8 37.5q20 75 37 143h-196q-47 0 -47 35q0 16 9 45q12 39 48 39h444q53 0 54 -37q0 -53 -27 -74q-10 -8 -45 -8h-88q-27 -102 -63.5 -253t-47 -184.5t-22.5 -33.5 q-25 0 -62 90q-164 -119 -477 -119q-262 0 -407.5 133t-145.5 373z" />
<glyph unicode="H" horiz-adv-x="1615" d="M162 37q0 12 8 39.5t22.5 36t55.5 8.5h117l288 1159h-114q-35 0 -45.5 10t-10.5 29q0 82 64 82l12 -2h395q49 0 50 -35q0 -16 -7 -35q-10 -49 -55 -49h-139l-121 -492h643l123 492h-113q-57 0 -57 39q0 82 63 82l13 -2h397q49 0 49 -35q0 -14 -8 -42t-20.5 -35t-57.5 -7 h-115l-290 -1159h114q35 0 45.5 -10.5t10.5 -28.5q0 -59 -29 -76q-10 -6 -35 -6h-407q-49 0 -50 35q0 18 7 37q10 49 57 49h137l135 547h-643l-137 -547h115q35 0 45 -10.5t10 -28.5q0 -59 -29 -76q-10 -6 -34 -6h-408q-51 0 -51 37z" />
<glyph unicode="I" horiz-adv-x="819" d="M152 37q0 55 30 76q10 8 29 8h151l289 1159h-135q-43 0 -43 37q0 70 37 80q8 2 25 2h436q41 -4 41 -35q0 -59 -29 -78q-8 -6 -29 -6h-151l-291 -1159h137q43 0 43 -37q0 -70 -39 -82q-8 -2 -24 -2h-422q-55 0 -55 37z" />
<glyph unicode="J" horiz-adv-x="1142" d="M244 188q0 66 32.5 97.5t67.5 31.5t56.5 -19t21.5 -59t-47 -75q51 -66 151 -66q138 0 218 128q27 43 49 130l229 924h-178q-47 0 -47 37q0 16 9 44t21 33t35 5h395l17 2q49 0 49 -37q0 -84 -68 -84h-88q-4 -18 -13 -53t-13 -53l-209 -838q-39 -168 -145.5 -263 t-270.5 -96q-119 0 -195.5 58.5t-76.5 152.5z" />
<glyph unicode="K" horiz-adv-x="1673" d="M166 37q0 12 8 39q13 45 51 45h144l288 1159h-108q-41 0 -51.5 10t-10.5 29q0 82 64 82l12 -2h389q49 0 49 -35q0 -16 -6 -35q-10 -49 -57 -49h-137l-166 -662l842 660v2h-52q-53 0 -53 37q0 12 8.5 38.5t18.5 35t41 8.5h350l2 2h4q49 0 49 -38q0 -83 -65 -83h-94l-40 -2 q-11 0 -40 -24.5t-43 -34.5l-490 -385l326 -713h102q53 0 53 -37q0 -16 -9 -45t-22 -34t-34 -5h-324q-49 0 -49 35q0 18 7 44t20.5 34t40.5 8h63l-284 622l-324 -251q-33 -27 -41 -42t-46 -170t-40 -159h113q37 0 47 -10.5t10 -29.5t-10 -44t-20.5 -31t-33.5 -6h-401 q-51 0 -51 37z" />
<glyph unicode="L" horiz-adv-x="1370" d="M162 37q0 14 8 41q12 43 51 43h144l288 1159h-121q-49 0 -49 37q0 70 37 80q8 2 27 2h426l22 2q55 0 56 -37q0 -16 -9 -43q-15 -41 -55 -41h-184l-289 -1159h264q260 0 299 32t166 386q12 33 25.5 40t56.5 7t43 -35q0 -12 -151 -432q-37 -98 -46 -109q-12 -10 -43 -10 h-921q-45 0 -45 37z" />
<glyph unicode="M" horiz-adv-x="1957" d="M172 37q0 57 29 76q12 8 57 8h117l289 1159h-117q-53 0 -53 35q0 84 61 84h244l20 2q45 0 57 -33q3 -10 5 -39l123 -1057q12 -104 12 -108l706 1147q39 61 54.5 75.5t56.5 14.5l25 -2h227q45 0 45 -35q0 -14 -9.5 -42t-22.5 -35t-30 -7h-141l-289 -1159h121q49 0 49 -37 q0 -68 -36 -80q-16 -4 -29 -4h-375q-57 0 -57 39q0 82 69 82h131l281 1124q-10 -16 -78 -127l-653 -1061q-23 -35 -40 -46t-52 -11h-2q-33 0 -43.5 13.5t-14.5 47.5l-121 1041q-2 20 -7 65t-7 66h-2l-276 -1112h118q51 0 52 -37q0 -68 -37 -80q-16 -4 -29 -4h-360 q-68 0 -68 37z" />
<glyph unicode="N" horiz-adv-x="1615" d="M166 37q0 57 29 76q12 8 57 8h117l288 1159h-116q-53 0 -54 35q0 84 60 84h205l20 2q43 0 54 -34q8 -24 12 -32l385 -1063l252 1008h-121q-49 0 -49 37q0 68 36 80q16 4 29 4l21 -2h364q41 0 41 -35q0 -59 -29 -78q-8 -6 -55 -6h-117l-307 -1233q-8 -29 -19.5 -38 t-41.5 -9h-6q-27 0 -39.5 7t-22.5 34l-366 1010q-29 78 -41 116l-263 -1046h119q51 0 51 -37q0 -18 -9 -46t-26 -33t-30 -5h-361q-67 0 -67 37z" />
<glyph unicode="O" horiz-adv-x="1695" d="M307 463q0 131 35 260t109.5 254t178 224t252 160.5t320.5 61.5q190 0 346 -99q82 -52 132.5 -155.5t50.5 -258t-70 -342t-203 -326.5q-252 -264 -620 -265q-195 0 -348 98q-82 52 -132.5 154.5t-50.5 233.5zM469 495.5q0 -104.5 37 -186.5t100 -124q117 -79 262 -79 t266 55.5t201 143.5t137 197q109 207 109 416q0 109 -38 186.5t-101 117.5q-118 74 -269 74t-274 -54t-200.5 -138t-131 -191.5t-76 -210t-22.5 -207z" />
<glyph unicode="P" horiz-adv-x="1484" d="M164 37q0 12 8 39.5t22.5 36t55.5 8.5h117l288 1159h-127q-43 0 -43 37q0 59 27 76q10 6 33 6h569l49 2h23q142 0 256 -61q61 -33 98 -96.5t37 -135t-15.5 -132.5t-59.5 -133.5t-111.5 -130t-182 -95t-260.5 -37.5h-317l-115 -459h115q35 0 45 -10.5t10 -28.5 q0 -59 -29 -76q-10 -6 -34 -6h-410q-49 0 -49 37zM655 700h297q246 0 358 110q111 109 111 260q0 138 -111 178q-86 32 -223 32h-286z" />
<glyph unicode="Q" horiz-adv-x="1695" d="M307 473q0 162 61.5 328t171 305t283.5 228t379 89q259 0 408 -150q53 -54 87 -145.5t34 -205.5q0 -293 -173.5 -555.5t-451.5 -346.5v-28q0 -179 52 -218q26 -18 67 -18q72 0 139.5 59.5t91.5 132t39.5 78t28 -3t12.5 -28t-21.5 -77.5t-59.5 -132t-108.5 -128t-136 -54 t-101.5 19.5t-53.5 44t-26.5 65.5q-11 50 -11 122.5t6 141.5q-100 -18 -184 -19q-246 0 -389.5 130t-143.5 366zM459 494q0 -264 219 -359q12 96 88 150.5t158 54.5q158 0 178 -197q139 51 241.5 155.5t149.5 223.5q88 223 88 381q0 253 -187 345q-95 48 -218 48h-2 q-145 0 -268.5 -54t-204 -140t-137.5 -194q-105 -203 -105 -414zM803 143q0 -41 67 -41h2q51 0 146 17q-18 100 -107 100q-47 0 -77.5 -24.5t-30.5 -51.5z" />
<glyph unicode="R" horiz-adv-x="1599" d="M164 37q0 12 8 39.5t22.5 36t55.5 8.5h117l288 1159h-114q-55 0 -56 37q2 66 33 78q10 4 31 4h479l41 2q248 0 373 -85q112 -78 112 -206.5t-86 -240t-260 -181.5q113 -76 113 -203q0 -39 -25.5 -149.5t-25.5 -152t26.5 -63.5t62.5 -22t61.5 27t42 59.5t26.5 39.5t54 7 t44 -36q0 -51 -69.5 -134.5t-176.5 -83.5q-122 0 -187 80q-40 49 -40 109.5t30 173.5t30 141q0 61 -63.5 110.5t-215.5 49.5h-254l-131 -520h115q35 0 45 -10.5t10 -28.5q0 -82 -66 -82h-397q-53 0 -53 37zM672 760h268q125 0 219 31.5t143 82.5q95 96 95 205 q0 156 -201 191q-63 10 -152 10h-243z" />
<glyph unicode="S" horiz-adv-x="1241" d="M166 2q0 6 104 424q6 27 16.5 33t32.5 6h7l22 2q45 0 45 -27q0 -4 -5 -34.5t-5 -61.5q0 -133 92 -189.5t213 -56.5q166 0 258 109.5t92 225.5t-98 171q-25 12 -171 51t-173 50q-68 27 -124 93t-56 155.5t32.5 167t92 146t158 112.5t214.5 44q209 0 301 -151h3 q92 139 104 146t27.5 2t15.5 -16t-104 -427q-8 -29 -17.5 -36t-36.5 -7h-30q-41 0 -41 29l6 84q0 121 -61.5 191.5t-201 70.5t-229.5 -96.5t-90 -200.5q0 -113 97 -156q71 -32 178.5 -57t152.5 -41q86 -33 139.5 -108t53.5 -164t-32 -172t-90.5 -159.5t-161.5 -127 t-228 -50.5q-246 0 -355 150h-2q-66 -104 -84 -127t-34 -23q-27 0 -27 25z" />
<glyph unicode="T" horiz-adv-x="1581" d="M350 905q0 6 144 432q16 51 59 52h1153q45 0 45 -39q0 -2 -68 -422q-6 -41 -18 -49.5t-58 -8.5t-46 39q0 10 19 137.5t24 206.5q-61 14 -197 15h-225l-287 -1147h197q49 0 49 -37q0 -16 -10.5 -45t-22.5 -34t-31 -5h-555q-55 0 -55 37q0 14 9 41q14 43 56 43h211 l287 1147h-168q-182 -2 -222 -10.5t-58 -49.5q-58 -136 -75.5 -195t-26.5 -85.5t-16 -36.5q-15 -21 -50 -21h-11q-53 0 -53 35z" />
<glyph unicode="U" horiz-adv-x="1615" d="M432 328q0 74 31 196l188 756h-108q-41 0 -51.5 10t-10.5 29q0 82 64 82l12 -2h397q49 0 50 -35q0 -16 -7 -35q-10 -49 -57 -49h-137l-182 -733q-41 -164 -41 -221q0 -125 72.5 -177.5t189 -52.5t233.5 73q150 93 209 343l193 768h-121q-51 0 -51 37q0 16 9 45 q12 39 56 39l21 -2h268l59 2h8q37 0 54.5 -6t17.5 -48t-29 -61q-8 -6 -55 -6h-117l-192 -770q-31 -113 -39 -135q-66 -172 -210 -285t-328.5 -113t-290 90.5t-105.5 260.5z" />
<glyph unicode="V" horiz-adv-x="1615" d="M422 1315q0 14 8 41.5t20.5 35t36.5 7.5h357l2 2h4q49 0 49 -37l-6 -33q-8 -35 -20.5 -43t-38.5 -8h-101l131 -1092h2l678 1092h-82q-35 0 -44 10t-9 31t9 44.5t20.5 28.5t34.5 5h333q53 0 54 -35q0 -45 -16.5 -64.5t-53.5 -19.5h-82q-27 0 -35 -6t-33 -45l-739 -1190 q-23 -35 -40 -45t-54 -10h-14q-35 0 -46.5 12t-15.5 47l-135 1110q-12 90 -16 127h-107q-51 0 -51 35z" />
<glyph unicode="W" horiz-adv-x="2185" d="M418 1317q0 12 8 39.5t20.5 35t34.5 7.5h342l2 2h2q49 0 50 -37l-7 -33q-8 -33 -20 -42t-37 -9h-111l58 -1075q8 18 145 268l416 752q23 39 27 55h-86q-39 0 -48.5 10t-9.5 29q0 55 31 74q10 6 33 6h340q2 0 6 2q47 0 47 -37q0 -16 -7 -42t-18.5 -34t-38.5 -8h-108 l47 -891l8 -184h2l592 1075h-110q-51 0 -52 35q0 14 8.5 41.5t20.5 35t37 7.5h338q51 0 51 -36t-14.5 -56.5t-27.5 -23.5t-34 -3h-98l-688 -1239q-14 -25 -21 -34q-20 -23 -63 -23h-10q-42 0 -48 10t-7 13t-2 11.5t-2 11.5t-1 13v14l-59 1055q-53 -125 -174 -346l-301 -549 q-109 -195 -124 -215q-14 -19 -55 -18h-4h-10q-39 0 -48 13t-11 52l-62 1104l-6 125v2h-92q-51 0 -51 37z" />
<glyph unicode="X" horiz-adv-x="1615" d="M115 37q0 47 18 65.5t62 18.5h90q33 0 45 5t39 36l526 569l-248 549h-137q-45 0 -45 37q0 63 35 78q10 4 30 4h367q49 0 49 -35q0 -49 -16.5 -64.5t-25.5 -17.5t-27 -2h-62l193 -424l393 424h-60q-49 0 -49 35q0 54 17.5 69t46.5 15h342l8 2q53 0 53 -37q0 -51 -16 -67.5 t-62 -16.5h-98q-29 0 -39 -7t-47 -46l-414 -449q-20 -23 -20 -34t14 -39l234 -515q9 -27 30 -69h140q43 0 43 -37q-4 -66 -35 -80q-10 -4 -31 -4h-366q-49 0 -50 35q0 18 7.5 44t21.5 34t41 8h62l-230 506l-469 -506h55q53 0 54 -35q0 -8 -7 -38t-17.5 -39t-43.5 -9h-352 q-49 0 -49 37z" />
<glyph unicode="Y" horiz-adv-x="1615" d="M412 1317q4 66 34 78q8 4 29 4h373q49 0 49 -35q0 -47 -15.5 -63.5t-23.5 -18.5t-27 -2h-71l231 -588l527 588h-54q-53 0 -53 33q0 16 7 42t18.5 35t40.5 9h346l2 2q45 0 45 -37q0 -49 -16.5 -66.5t-55.5 -17.5h-102q-25 0 -36 -7t-44 -44l-569 -637q-35 -40 -44 -84 q-38 -169 -96 -387h117q35 0 45 -10.5t10 -31t-9 -44t-20 -29.5t-34 -6h-404q-49 0 -49 35q0 18 6 37q10 49 58 49h137q12 51 40 159q66 259 66 274t-8 40l-272 686h-123q-55 0 -55 37z" />
<glyph unicode="Z" horiz-adv-x="1353" d="M172 31q0 51 45 96l1090 1153h-281q-305 0 -354 -42q-35 -29 -96 -206q-19 -57 -24 -81.5t-14.5 -43t-21.5 -22.5t-41 -4q-53 0 -53 32q0 2 32 116q95 345 113 357.5t37 12.5h887q35 0 35 -29q0 -49 -58 -106l-1073 -1139h295q304 0 356 27q52 29 140 318q24 81 31 95 q12 39 66 39t54 -35q0 -12 -24.5 -90t-75.5 -246.5t-65.5 -200.5t-43.5 -32h-913q-43 0 -43 31z" />
<glyph unicode="[" horiz-adv-x="671" d="M150 -475q0 10 22 94l467 1870q11 47 53 47h213q41 0 41 -37q0 -84 -59 -84h-133l-451 -1806h111q51 0 51 -37q0 -84 -59 -84h-205q-51 0 -51 37z" />
<glyph unicode="\" d="M535 1470q0 35 18 49.5t34.5 14.5t27 -4t16.5 -11.5t11 -14.5t7 -17t3 -16.5t3 -14.5v-8l189 -1870l2 -24q0 -31 -18.5 -47.5t-41.5 -16.5q-53 0 -63 86l-186 1868z" />
<glyph unicode="]" horiz-adv-x="671" d="M-20 -475q0 12 8 39.5t20 36t31 8.5h135l451 1806h-113q-49 0 -49 37q0 84 57 84h203q53 0 53 -37q0 -8 -4 -24l-467 -1870q-23 -96 -35 -107q-12 -10 -34 -10h-213q-43 0 -43 37z" />
<glyph unicode="^" horiz-adv-x="1353" d="M520 1034q0 27 60 56q395 209 411.5 208.5t138.5 -88.5l179 -127q37 -27 37 -46t-26 -47.5t-44.5 -28.5t-152.5 95t-148 97l-2 2q-20 0 -203.5 -98.5t-204.5 -98.5t-33 29t-12 47z" />
<glyph unicode="_" horiz-adv-x="1695" d="M98 -498q0 41 64 41h1122q59 0 59 -41t-57 -41h-1128q-60 0 -60 41z" />
<glyph unicode="`" d="M594 1321q0 27 23.5 51.5t41 24.5t23.5 -1t14.5 -6.5t15.5 -10.5t19 -16t23.5 -21.5t31.5 -29.5l36 -38q21 -20 102 -98q25 -25 24.5 -41t-29 -44t-44 -28t-41 20.5t-203.5 173.5q-37 37 -37 64z" />
<glyph unicode="a" d="M238 282.5q0 151.5 56 299t175 258t252 110.5t213 -92q25 59 78 60q25 0 41 -15.5t16 -37t-14 -79.5l-133 -526q-11 -39 -11 -68q0 -40 21 -60q22 -21 51 -21t53.5 45t39 100t20.5 64t47 9.5t52 -5t11 -15.5t-7 -39.5t-26.5 -78t-46 -93.5t-72.5 -76.5t-100 -31.5 q-129 0 -174 123q-131 -123 -276 -123q-104 0 -185 70.5t-81 222zM383 285q0 -98 43 -137t112.5 -39t148.5 70.5t118 172.5q63 211 63 285t-37.5 133t-113.5 59t-137.5 -49t-96 -117.5t-59.5 -148.5q-41 -131 -41 -229z" />
<glyph unicode="b" horiz-adv-x="1011" d="M244 291q0 86 35 221l188 758q-66 4 -96 4h-9q-53 0 -53 37l6 30q8 29 17.5 39.5t37.5 14.5t85 10t97 11t44 5q37 0 37 -35q0 -10 -127 -522q113 86 225 86t192.5 -72.5t80.5 -223t-56.5 -298t-175.5 -258t-266 -110.5q-104 0 -183 71.5t-79 231.5zM379 269.5 q0 -80.5 44 -120.5t117.5 -40t142.5 66.5t105 161.5q72 194 72 305t-44 149t-100 38t-125 -40.5t-128 -147.5q-33 -57 -58.5 -174t-25.5 -197.5z" />
<glyph unicode="c" horiz-adv-x="1011" d="M242 312.5q0 148.5 65.5 294t194.5 244.5t291 99q104 0 171.5 -49t67.5 -118.5t-31.5 -100.5t-65.5 -31t-51.5 18.5t-17.5 50.5t33 66v2q-47 41 -140 41t-174 -62t-120 -153q-76 -179 -76 -303q0 -202 199 -202h2q106 0 189 36.5t125 73.5t54 37t36 -26.5t24 -36.5 q0 -27 -56.5 -74t-166 -89t-226.5 -42q-158 0 -242.5 88t-84.5 236.5z" />
<glyph unicode="d" d="M238 284.5q0 153.5 57 301t176 256t253 108.5t208 -92h2l102 412q-54 4 -86 4t-46 3q-25 5 -25 46t22 59q15 15 201 33l61 6q37 0 37 -37q0 -23 -4 -34l-274 -1092q-11 -40 -11 -69q0 -40 21 -59q22 -19 51 -19t53.5 46t39 100t21.5 63t38 10h28q43 0 43 -25 q0 -43 -41 -133q-83 -182 -211.5 -182t-173.5 123q-131 -123 -276 -123q-104 0 -185 70.5t-81 224zM383 285q0 -98 43 -137t112.5 -39t148.5 70.5t118 170.5q63 215 63 289t-37.5 132t-113.5 58t-137.5 -49t-96 -117.5t-59.5 -148.5q-41 -131 -41 -229z" />
<glyph unicode="e" horiz-adv-x="1011" d="M252 336q0 254 150.5 434t388.5 180q106 0 174.5 -54t68.5 -142q0 -63 -42 -134q-59 -99 -251 -137q-109 -20 -327 -20q-16 -90 -17 -135q0 -104 49.5 -161.5t138.5 -57.5t160.5 23.5t108.5 50t65.5 50t39.5 23.5t35 -26.5t24 -40t-19.5 -36t-60.5 -51t-93 -54.5 q-123 -60 -276 -60q-117 0 -211 68q-49 36 -77.5 109t-28.5 171zM444 584h68q395 0 395 151q0 35 -32.5 64.5t-104.5 29.5h-2q-234 0 -324 -245z" />
<glyph unicode="f" horiz-adv-x="671" d="M-55 -285q0 43 28.5 75t63.5 32t53.5 -18.5t18.5 -42t-11 -48.5q20 -2 54 -2t61 38q52 73 143 556q43 228 68 362t29 152h-154q-47 0 -47 35q0 18 9 46t20.5 33t31.5 5h162q42 218 59 277t40.5 100t78 80t125 39t133 -30t62.5 -97q0 -39 -29 -71t-64 -32t-53 17.5t-18 41 t10 48.5q-22 2 -41 2q-72 0 -90 -36q-16 -34 -39.5 -161t-34.5 -178h191q43 0 43 -35q0 -68 -33 -80q-10 -4 -33 -4h-190l-2 -2q-119 -678 -174 -885q-94 -342 -285 -342q-66 0 -126 29.5t-60 95.5z" />
<glyph unicode="g" horiz-adv-x="1011" d="M123 -300q0 40 30.5 70.5t67.5 30.5q66 0 66 -67l-2 -19q47 -4 121 -4q193 0 262 117q12 23 71 258q-117 -86 -226 -86t-191 69.5t-82 225.5t60 303t177 249.5t247 102.5t210 -92q25 59 78 60q25 0 41 -15.5t16 -34t-4 -39.5l-227 -907q0 -9 -15.5 -56.5t-25 -63 t-22.5 -36.5q-23 -36 -73 -75q-131 -100 -317 -101h-20q-172 0 -219 46q-23 24 -23 64zM385 303q0 -104 44 -143t107.5 -39t128 48t106.5 119t69.5 189.5t27.5 151.5q0 111 -47 155.5t-120.5 44.5t-143.5 -66.5t-103 -161.5q-69 -194 -69 -298z" />
<glyph unicode="h" d="M166 49l6 35l295 1186q-54 4 -86.5 4t-46.5 3q-25 5 -25 32q0 10 7 35.5t16.5 36t37.5 14.5t85 10t97 11t44 5q37 0 37 -37q0 -10 -141 -573q135 139 303 139q113 0 173 -55t60 -156.5t-75.5 -323.5t-75.5 -244t13 -41t36.5 -19t46 10t55.5 55t47 91t21 53q10 10 39 10 h32q41 0 41 -27t-31.5 -97.5t-106.5 -143t-158 -72.5t-129 47t-46 105.5t76 269.5t76 301q0 116 -117 116h-2q-100 0 -181 -70.5t-129 -180t-79 -216t-53.5 -205t-30.5 -118.5q-20 -49 -72 -49q-25 0 -42 16t-17 43z" />
<glyph unicode="i" horiz-adv-x="671" d="M150 633q0 18 20 67.5t56 106.5t97.5 100t134.5 43t119 -48t46 -112.5t-100.5 -320.5t-100.5 -295q0 -63 53 -63q20 0 43 10t55.5 54t48 92.5t23.5 55.5t33 7h35q41 0 41 -25q0 -59 -87 -187t-216 -128q-72 0 -120 45t-48 111.5t99 323.5t99 291t-15 51t-36.5 17 t-44.5 -10t-55.5 -54t-48 -93.5t-25.5 -56.5t-37 -7h-29q-40 0 -40 25zM541 1330q0 32 29.5 60.5t62.5 28.5t51 -17.5t18 -49t-29.5 -61t-62.5 -29.5t-51 18t-18 50z" />
<glyph unicode="j" horiz-adv-x="671" d="M-78 -302q0 46 31 74.5t67 28.5q66 0 66 -63q0 -6 -4 -27h31q61 0 109 22.5t74 55.5q53 67 62 121l193 776q10 31 10 63.5t-20.5 56t-66.5 23.5t-101.5 -52t-91.5 -128q-14 -31 -28.5 -36t-37.5 -5q-63 0 -63 23q0 29 42 101.5t130 145t179 72.5t144 -54t53 -136 q0 -35 -18 -109l-182 -727q-29 -131 -103 -207q-135 -127 -295 -127q-82 0 -131 31t-49 77zM621 1330q0 32 28.5 60.5t61.5 28.5t52 -17.5t19 -49t-29.5 -61t-62.5 -29.5t-51 18t-18 50z" />
<glyph unicode="k" horiz-adv-x="1011" d="M166 40.5q0 18.5 4 39.5l268 1073q20 78 29 117q-53 4 -78 4h-24q-55 0 -56 37q0 53 27 73q15 15 201 33l59 4q37 0 37 -35q0 -12 -4 -32l-189 -754q72 29 164 120t181 160.5t165 69.5t109 -44t33 -119.5t-32 -109.5t-67 -34t-53 17.5t-18 55.5t49 72q-6 41 -39 41 t-67 -13t-75.5 -45t-68.5 -55.5t-82 -77.5t-82 -79q96 -25 163.5 -82t67.5 -155l-14 -119q0 -41 20.5 -66.5t56.5 -25.5q66 0 112 143l16 59q10 16 50 16.5t52.5 -5t12.5 -18.5t-16.5 -59t-46.5 -106.5t-86 -105.5t-133 -45t-127 58t-50 147q0 29 7 63.5t7 46.5 q0 66 -68.5 107t-177.5 49q0 -2 -50 -207t-54 -213q-23 -51 -74 -51q-25 0 -42 16t-17 34.5z" />
<glyph unicode="l" horiz-adv-x="557" d="M203 178q0 25 30 156l234 936q-27 2 -57 2h-46q-41 0 -48 11t-7 46t17 49q27 21 211 39l59 4q37 0 37 -37q0 -14 -6 -32l-275 -1104l-4 -21q-6 -20 -6 -47.5t22.5 -48t39 -20.5t26.5 4t18.5 13t14.5 18.5t13 23.5t11.5 25.5t9.5 30t8 26.5t7 26.5t6 22.5q8 29 41 29h25 q55 0 55 -25q0 -28 -26.5 -94t-53.5 -111t-73 -77.5t-111.5 -32.5t-118.5 53t-53 135z" />
<glyph unicode="m" horiz-adv-x="1808" d="M150 634q0 26 26.5 93.5t53 112.5t72.5 77.5t81.5 32.5t58.5 -5t54 -19q69 -32 88 -140q147 164 325 164q205 0 232 -180h2q135 180 336 180q98 0 165.5 -48t67.5 -157.5t-75.5 -328.5t-75.5 -242q0 -63 53 -63q94 0 153 182q6 23 16.5 30t46.5 7t48 -5.5t12 -28 t-31.5 -93t-106.5 -142t-157 -71.5t-129 47t-47 105.5t76 271.5t76 299q0 116 -117 116h-2q-168 0 -274 -187q-94 -166 -166 -477q-17 -71 -21 -87q-23 -88 -84 -88q-23 0 -41 15t-18 41t76.5 317.5t76.5 349.5q0 116 -114 116h-2q-102 0 -183 -72.5t-128.5 -183t-79 -218 t-53 -205t-31.5 -115.5q-25 -45 -75 -45q-53 0 -53 58q0 20 7 48l147 590q10 51 10 75.5t-23.5 45t-51 20.5t-52 -46t-39 -100t-21.5 -63t-34 -10h-35q-40 0 -40 26z" />
<glyph unicode="n" horiz-adv-x="1241" d="M150 634q0 26 26.5 93.5t53 112.5t72.5 77.5t81.5 32.5t58.5 -5t54 -19q69 -32 88 -140q150 164 325 164q98 0 166 -48t68 -157.5t-76 -328.5t-76 -242q0 -63 53 -63q49 0 91.5 56t64.5 132q8 23 18.5 27t57.5 4t47 -27t-31.5 -97.5t-107.5 -143t-159 -72.5t-128 48 t-45 105.5t74.5 269.5t74.5 300q0 116 -114 116h-2q-100 0 -181 -71.5t-129.5 -182t-80 -217t-53 -204t-31.5 -117.5q-25 -47 -75 -47q-53 0 -53 55q0 20 7 49l147 590q10 51 10 77t-22.5 46t-51 20t-53 -46t-39 -100t-21.5 -63t-34 -10h-35q-40 0 -40 26z" />
<glyph unicode="o" d="M242 309q0 152 64.5 296.5t194.5 244.5t283.5 100t241.5 -85t88 -238q0 -106 -38 -218t-105.5 -206t-175 -154.5t-242.5 -60.5t-223 84.5t-88 236.5zM389 330q0 -130 57.5 -175.5t150.5 -45.5t175 62t121 153q76 179 76 296.5t-57.5 163t-148.5 45.5t-169 -56t-120 -141 q-85 -172 -85 -302z" />
<glyph unicode="p" d="M47 -362q0 14 8 41.5t19.5 34.5t46.5 7h74q4 18 13 53.5t13 53.5l217 870q6 25 6 58t-22.5 52t-50 19t-52 -45t-39 -100t-20.5 -64t-47 -9.5t-52 4.5t-11 14.5t7 40t26.5 79t46 93.5t72.5 77.5t98 32.5t101.5 -28.5t73.5 -96.5q129 125 277 125q102 0 184 -71.5t82 -221 t-56 -298t-174 -260t-255 -111.5t-209 92l-90 -359h102q57 0 58 -36q0 -63 -35 -78q-10 -4 -31 -4h-332q-49 0 -49 35zM489 278.5q0 -65.5 42 -117.5t120 -52t146.5 66.5t104.5 161.5q71 187 71 301.5t-43 152.5t-101 38q-141 0 -243 -174q-39 -68 -68 -189.5t-29 -187z" />
<glyph unicode="q" horiz-adv-x="1011" d="M238 281.5q0 148.5 55 296t174 260t258 112.5t213 -100h2q25 37 60.5 66.5t54.5 29.5q28 0 28 -31q0 -12 -14 -69l-252 -1008q-6 -18 -14 -58t-15 -59h103q35 0 45 -10t10 -28q0 -57 -28 -74q-10 -6 -35 -6h-375q-47 0 -47 35q0 61 18.5 72t44.5 11h125l88 355 q-113 -86 -225 -86t-193 71.5t-81 220zM383 285q0 -98 43 -137t112.5 -39t148.5 69.5t118 171.5q63 215 63 289t-37.5 132t-113.5 58t-137.5 -49t-96 -117.5t-59.5 -148.5q-41 -131 -41 -229z" />
<glyph unicode="r" horiz-adv-x="927" d="M150 635q0 32 27.5 97t54 110t71.5 76.5t99 31.5t105.5 -31.5t72.5 -103.5q37 39 65.5 62.5t84.5 48t133 24.5t133.5 -50t56.5 -122.5t-31 -103.5t-65 -31t-52 17.5t-18 50.5t37 69q-39 49 -97.5 49t-114 -43t-94.5 -114q-64 -116 -96 -220t-50.5 -183t-28 -123 t-23.5 -84q-26 -72 -82.5 -72t-56.5 55q0 25 12 66l143 577q10 45 10 71.5t-21.5 47t-50 20.5t-53 -46t-40 -100t-22.5 -63t-34 -10h-32q-43 0 -43 27z" />
<glyph unicode="s" horiz-adv-x="899" d="M160 190q0 63 30.5 93t64.5 30t53.5 -18.5t19.5 -49t-39 -69.5q44 -67 176 -67h4q200 0 250 137q10 28 10 53q0 57 -42 86t-124 46.5t-98 23.5q-55 20 -94 68t-39 103.5t16.5 103.5t52 100.5t108.5 86t174 33.5t169 -49t68 -117.5t-30 -97.5t-61 -29t-49 16.5t-18 43 t29 63.5v2q-47 47 -128.5 47t-127.5 -33q-68 -50 -68 -112.5t40 -85.5t115.5 -37t112.5 -33q129 -66 129 -196q0 -72 -34.5 -138.5t-77.5 -107.5t-121 -69.5t-193.5 -28.5t-196.5 56t-81 146z" />
<glyph unicode="t" horiz-adv-x="729" d="M178 854q0 14 8.5 42t20.5 35t35 7h200q88 356 94 368q27 46 64 46q68 0 68 -56q0 -12 -22 -102l-66 -256h182q51 0 51 -35q0 -14 -8 -41.5t-20.5 -35t-32.5 -7.5h-201q-10 -47 -49 -199q-103 -403 -103 -433.5t20.5 -53t67.5 -22.5t102.5 52t80 103.5t35 57.5t57.5 6 t48 -23q0 -16 -27 -65t-70 -107.5t-116 -102.5t-152.5 -44t-132 54t-52.5 118.5t23 142.5l129 516h-187q-47 0 -47 35z" />
<glyph unicode="u" horiz-adv-x="1183" d="M150 633q0 18 20 67.5t55 106.5t97.5 100t134.5 43t118 -48t46 -106.5t-71 -251t-71 -280.5t40 -121.5t95 -33.5q84 0 157 81.5t112 233.5q115 455 118 463q27 51 77 51q54 0 54 -54q0 -21 -8 -50l-141 -566q-14 -57 -14 -87.5t22.5 -50t51 -19.5t53 46t39 101t21.5 63 q8 9 78 9q32 0 32 -25q0 -40 -54 -161q-28 -62 -80.5 -108t-117.5 -46q-129 0 -174 121q-115 -123 -252 -123q-102 0 -175 55t-73 178t70.5 322.5t70.5 222.5q0 63 -53 63q-41 0 -80 -43q-43 -47 -72 -134q-10 -32 -16 -36t-15 -6t-19 -2h-27q-49 0 -49 25z" />
<glyph unicode="v" horiz-adv-x="1011" d="M152 633q0 31 30.5 100.5t105 143t158 73.5t129.5 -48t46 -106.5t-70 -249t-70 -278.5t46 -123.5t110 -35.5q96 0 157.5 98t106.5 275t45 234.5t-15.5 94.5t-15.5 61.5t29 51t61 26.5t55 -33.5t23 -105t-26.5 -194.5t-77.5 -269.5t-148.5 -253t-213.5 -106.5t-195.5 57 t-79.5 181.5t69.5 319.5t69.5 220t-14 44t-36.5 19t-45.5 -10t-55.5 -55t-48 -94.5t-25.5 -55.5t-51 -6h-17q-36 0 -36 25z" />
<glyph unicode="w" horiz-adv-x="1468" d="M150 633q0 61 88 189t215 128q74 0 121 -48t47 -107.5t-69 -246t-69 -276.5t51.5 -126.5t109.5 -36.5t100 47t58.5 87t23.5 61.5t8.5 25.5t2.5 10t4 20.5t8 36t14 60.5t21 88q40 155 74 297q27 96 91 96q23 0 39 -16.5t16 -40t-68.5 -285.5t-68.5 -340t46 -112.5 t105 -34.5q86 0 138.5 92t99.5 279.5t47 239.5t-16.5 93t-16.5 61.5t27.5 48t60.5 27.5t56.5 -33.5t23.5 -113.5t-41 -250t-86 -281q-115 -284 -314 -284h-1q-178 0 -244 123h-2q-88 -123 -214 -123t-210 58t-84 183.5t69.5 319.5t69.5 220t-15 43t-36.5 17t-44.5 -10 t-55.5 -55t-47 -93.5t-24.5 -55.5t-46 -7q-62 0 -62 25z" />
<glyph unicode="x" horiz-adv-x="1011" d="M127 163q0 73 31.5 103.5t65.5 30.5t52.5 -17.5t18.5 -50.5t-39 -71q35 -49 88 -49q80 0 129 81q20 33 76.5 261.5t56.5 267.5q0 110 -112 110h-2q-70 0 -126.5 -50t-77.5 -102.5t-29.5 -60.5t-29.5 -8h-28q-49 0 -49 25q0 72 105 194.5t248.5 122.5t205.5 -98 q102 98 198.5 98t151.5 -50t55 -123t-31.5 -103.5t-64.5 -30.5t-51.5 17.5t-18.5 50.5t37 69q-35 49 -86 49q-82 0 -131 -84q-18 -33 -75.5 -260t-57.5 -276t35 -74.5t92.5 -25.5t117.5 53t91 139q8 20 17 24.5t44 4.5h21q39 0 39 -25q0 -70 -105.5 -193.5t-247 -123.5 t-206.5 98q-111 -96 -204 -96t-148.5 50t-55.5 123z" />
<glyph unicode="y" horiz-adv-x="1069" d="M152 630.5q0 22.5 19 71t54 105.5t97.5 100t135.5 43t119 -49t46 -106.5t-72 -250t-72 -281.5t40 -121.5t95 -32.5q84 0 158 82.5t111 230.5q119 467 121 471q25 45 71 45q23 0 40.5 -15.5t17.5 -33.5t-11 -60l-196 -788q-39 -156 -99.5 -235t-134.5 -130 q-121 -86 -254 -86q-92 0 -151.5 47.5t-59.5 114.5t32 97t65 30t52 -17.5t19 -48t-33 -67.5q43 -35 97 -35q90 0 174 66.5t127 171.5q8 20 35 119q-104 -80 -207 -80t-175.5 55t-72.5 178t70.5 323.5t70.5 225.5t-15 42t-38 17q-88 0 -156 -188q-8 -23 -20 -28t-56 -5 t-44 22.5z" />
<glyph unicode="z" horiz-adv-x="899" d="M109 8q0 12 26 53q72 115 178.5 226.5t232.5 231.5t199 204q-33 12 -97 51t-107 39q-80 0 -125 -72q-4 -8 -10.5 -19t-7.5 -13t-10 -6.5t-18 -4.5h-34q-51 0 -51 23q0 59 86 144t194 85q59 0 134 -57t106 -57t49 28.5t37.5 57t50.5 28.5h39q37 0 37 -19q0 -31 -88 -147 l-31 -36q-82 -100 -263 -274.5t-247 -248.5q59 -4 135 -51t129 -47t113 44q69 51 90 125q2 7 4 9t5 7t7.5 6t10.5 4q11 4 41 4h20q35 0 35 -25q0 -70 -106.5 -190.5t-249.5 -120.5q-61 0 -136 56t-116 56t-72 -21.5t-54.5 -51t-29.5 -35.5t-35 -6h-22q-49 0 -49 20z" />
<glyph unicode="{" d="M281 477q0 12 9 46t17 40t20.5 7t39 3t59.5 11q84 18 153.5 65t100.5 117q12 25 73.5 278.5t77.5 286.5q47 96 161 150.5t253 54.5h58q37 0 36 -25q0 -8 -8 -41.5t-15 -43t-28 -10.5q-100 -5 -144.5 -13t-66.5 -15.5t-39.5 -16.5t-31 -17t-22.5 -20.5t-15 -19.5 t-11.5 -21.5t-7.5 -18.5l-8 -33q-117 -469 -129 -500q-70 -158 -297 -231q90 -29 135 -90.5t45 -114.5q0 -62 -123 -541q-8 -33 -8 -49q0 -100 258 -106q35 0 35 -25q0 -10 -9 -46t-17.5 -43t-38.5 -7h-35q-182 0 -258 64.5t-76 146.5q0 37 66.5 291t66.5 286 q0 80 -69.5 123t-153.5 52l-31 2q-22 0 -22 24z" />
<glyph unicode="|" horiz-adv-x="671" d="M178 -467l6 37l478 1905q14 59 47 59q14 0 26.5 -12.5t12.5 -26.5t-82 -340l-400 -1601q-18 -63 -49 -64q-39 0 -39 43z" />
<glyph unicode="}" d="M41 -487q0 8 8 41.5t15 43t32 10.5q145 6 187.5 20t59.5 23t30.5 17t23 21.5t15.5 20.5t11 21.5t7 18.5l8 33q119 475 131 502q70 156 295 229q-76 25 -127 81t-51 142q0 25 14 90q117 463 117 482q0 55 -64.5 78.5t-140 26.5t-83 8t-7.5 17.5t10.5 48.5t19.5 42t36 6h35 q182 0 257.5 -64.5t75.5 -146.5q0 -39 -65.5 -291t-65.5 -286q0 -80 66.5 -123t152.5 -52l31 -2q23 0 23 -24q0 -12 -9.5 -46t-17.5 -40t-19.5 -7t-37 -3t-58.5 -11q-84 -18 -154.5 -65t-101.5 -115q-16 -33 -75.5 -283.5t-75.5 -283.5q-47 -96 -161 -150.5t-253 -54.5h-55 q-39 0 -39 25z" />
<glyph unicode="~" horiz-adv-x="1353" d="M532 1230q0 17 50 68q124 123 247 123q68 0 183.5 -54t168 -54t98.5 26.5t78 53t46 26.5t38.5 -23.5t24.5 -43t-47 -60.5q-133 -129 -250 -129q-74 0 -185.5 54.5t-165.5 54.5t-100 -26.5t-78 -53.5t-46 -27t-38 24t-24 41z" />
<glyph unicode="&#xa1;" horiz-adv-x="671" d="M143 -348.5q0 26.5 11 59.5l260 858q14 45 21 55.5t30 10.5h43q39 0 39 -25q0 -10 -4 -26l-168 -850q-27 -154 -142 -154q-37 0 -63.5 22.5t-26.5 49zM453 901q0 43 37.5 82t83 39t72 -25.5t26.5 -68.5t-39 -82t-84 -39t-70.5 25.5t-25.5 68.5z" />
<glyph unicode="&#xa2;" d="M229 336q0 203 137 388q68 91 179.5 154.5t251.5 75.5q31 139 43 165t49 26h14q51 0 51 -37q0 -16 -14 -70.5t-20 -81.5q174 -4 227 -34.5t53 -76.5t-29.5 -77t-68.5 -31q-63 0 -64 66q0 12 2 20q-68 8 -153 8l-178 -716q63 4 114 27.5t75 47t45.5 50t25.5 30.5 q14 8 32 9h39q37 0 37 -21q0 -31 -46 -81t-89 -84q-102 -81 -264 -101q-31 -139 -43 -165t-49 -26h-17q-49 0 -49 35q0 12 35 156q-154 16 -240 106.5t-86 237.5zM383 362q0 -195 207 -237l174 700q-113 -18 -194 -77.5t-118 -135.5q-69 -137 -69 -250z" />
<glyph unicode="&#xa3;" horiz-adv-x="1677" d="M190 96q0 76 81 132.5t208 56.5q61 0 127 -19l23 62l82 323h-129q-37 0 -37 25q0 18 5 35.5t6 21.5t2 9.5t3 8.5t4 7t5 6t8 4q8 4 22 4h141q72 307 101 381q66 170 185.5 247t237.5 77t189.5 -81t71.5 -214q0 -195 -111 -195q-66 0 -65 64q0 45 51 84l2 24 q0 90 -41 143.5t-123 53.5t-154.5 -58.5t-111.5 -171.5q-10 -29 -92 -354h157q41 0 53.5 -4t12.5 -17t-8 -47t-15.5 -43.5t-36.5 -9.5h-194q-80 -348 -127 -432q159 -80 224 -97.5t122.5 -17.5t104.5 49.5t63 91.5t25.5 49t40.5 7h28q43 0 35 -35q-20 -96 -128 -187 t-247 -91q-122 0 -283 84q-53 28 -63 28t-48 -27.5t-106.5 -56t-148.5 -28.5t-116 33.5t-36 74.5zM317 113q29 -4 45 -4q76 0 152 45q-51 14 -94 14q-76 0 -103 -55z" />
<glyph unicode="&#xa4;" horiz-adv-x="1693" d="M121 -62q0 17 41 52q244 195 258 205q-128 242 9 555q71 163 198 276q-164 221 -167 230.5t-3 20.5t11 22.5t28.5 11.5t44.5 -31q121 -160 149 -201q215 139 454 139.5t378 -139.5h2l254 203q33 29 51 29t29.5 -12.5t11.5 -28.5t-24 -38q-40 -38 -273 -218 q59 -119 59 -256.5t-70.5 -302t-197.5 -275.5q166 -223 169 -231t3 -19.5t-12.5 -21.5t-29.5 -10t-44 30q-147 197 -150 201q-66 -41 -100.5 -60.5t-138 -50t-209.5 -30.5q-242 0 -383 141h-2l-252 -203q-51 -45 -81 -16q-13 11 -13 28zM440 438.5q0 -108.5 38 -183.5 t100 -113q119 -72 278.5 -72t296.5 66.5t221 171.5q176 222 176 466q0 104 -37.5 179t-100.5 113q-119 71 -280 71t-299.5 -69t-221.5 -176.5t-127 -226t-44 -227z" />
<glyph unicode="&#xa5;" horiz-adv-x="1615" d="M250 464q0 60 86 60h530q4 12 4 29.5t-7 37t-34.5 86t-58.5 148.5h-334q-80 0 -80 60.5t84 60.5h281l-131 334h-123q-55 0 -55 37q4 66 34 78q8 4 31 4h371q51 0 51 -35q0 -12 -7 -36t-16 -34q-14 -14 -45 -14h-71l131 -334h287l27 2q17 0 31.5 16.5t16.5 18.5l265 297 h-60q-47 0 -47 37q0 49 16.5 65.5t49.5 16.5h348q45 0 45 -35q0 -45 -15.5 -64.5t-58.5 -19.5h-110q-18 0 -40 -20.5t-127.5 -139.5t-154.5 -174h256q80 0 80 -60t-80 -61h-315l-17 2h-2q-23 0 -43 -18t-87.5 -95t-101.5 -115t-44 -75h501q82 0 82 -60t-77 -61h-537 l-72 -282h117q35 0 45 -10.5t10 -31t-9 -44t-20 -29.5t-34 -6h-404q-49 0 -49 35q0 18 6 37q10 49 58 49h139l70 282h-506q-80 1 -80 61zM940 825l51 -133l123 133h-174z" />
<glyph unicode="&#xa6;" horiz-adv-x="444" d="M63 -473q0 12 11 53l147 596q9 36 15 62t11 42.5t9 24.5t10 17q10 16 29 16q37 0 37 -41q0 -8 -6 -45l-170 -676q0 -22 -12.5 -48t-20.5 -32t-22.5 -6t-26 12.5t-11.5 24.5zM362 723q0 12 11 53l168 672q0 24 12 49t20.5 31t22.5 6t25.5 -13.5t11.5 -27.5t-10 -49 l-168 -676q-2 -4 -6.5 -21.5t-6.5 -23.5t-8 -17q-10 -20 -29.5 -20t-31 12.5t-11.5 24.5z" />
<glyph unicode="&#xa7;" horiz-adv-x="1011" d="M178 -207q0 84 27.5 111.5t57.5 27.5t45.5 -15t15.5 -33.5t-10.5 -41t-10.5 -41t29.5 -54.5t95.5 -36q106 0 189 85t83 175q0 95 -118 160q-15 8 -44 21q-224 103 -225 297q0 106 68 208.5t166 155.5q-90 100 -90 211q0 152 125 281t276 129q98 0 162.5 -59.5 t64.5 -140.5t-26.5 -111.5t-61.5 -30.5q-57 0 -57 53q0 14 9 34.5t9 46.5t-33.5 56.5t-90.5 30.5q-100 0 -186.5 -84t-86.5 -176q0 -111 171 -185q24 -10 26 -12q193 -100 192 -281q0 -106 -66.5 -207.5t-166.5 -156.5q90 -104 90 -211q0 -152 -125 -281t-276 -129 q-98 0 -163 59.5t-65 143.5zM418 488q0 -87 76.5 -142t115.5 -55q66 0 151 79t85 166t-77 142t-116 55q-66 0 -150.5 -79t-84.5 -166z" />
<glyph unicode="&#xa8;" d="M573 1279q0 42 39 81t85 39t72 -26.5t26 -68.5t-39 -81t-85 -39t-72 26.5t-26 68.5zM973 1280q0 45 41 82t84 37t68.5 -26.5t25.5 -68.5t-39 -81t-85 -39t-70.5 25.5t-24.5 70.5z" />
<glyph unicode="&#xa9;" horiz-adv-x="2377" d="M252 220q0 177 59.5 378t199.5 407.5t341 340.5q317 213 717 213q237 0 429 -91q111 -53 193 -134t134.5 -215t52.5 -310t-53.5 -363.5t-165 -363.5t-264 -313.5t-369.5 -220.5t-465 -83q-403 0 -629 232q-80 82 -130 214t-50 309zM334 230.5q0 -175.5 46 -294 t118.5 -190.5t171.5 -118q176 -81 408.5 -81t455.5 92.5t404.5 284t269.5 442t88 427t-46 295t-118 190.5t-171 118q-174 81 -390 81q-387 0 -699.5 -219.5t-455.5 -616.5q-82 -235 -82 -410.5zM723 358q0 248 196.5 447t499.5 199q186 0 305 -125q100 111 110.5 116.5 t23.5 5.5q29 0 28 -24q0 -8 -21.5 -94t-41.5 -170l-23 -84q-10 -33 -47 -33h-24q-39 0 -45.5 7t-6.5 50q0 98 -57 164t-184 66t-242 -47.5t-182 -123.5q-133 -154 -133 -337q0 -160 123 -223q106 -54 240 -54t228.5 67.5t128.5 158.5q10 29 19.5 35t38.5 6h29q39 0 38 -25 q0 -39 -36.5 -97.5t-102 -119t-174 -103.5t-233.5 -43q-199 0 -327 95.5t-128 285.5z" />
<glyph unicode="&#xaa;" horiz-adv-x="1011" d="M70 626q0 60 90 60h645l29 2q90 0 90 -61.5t-78 -61.5l-17 2h-688q-41 2 -56 20.5t-15 38.5zM221 1001q0 126 47 246.5t146.5 210.5t206 90t167.5 -61h3q29 33 65 33q57 0 57 -56q0 -14 -58 -246.5t-58 -264t20.5 -53t50 -21.5t54 45t40 100t22.5 64t54 10h15 q41 0 41 -25q-6 -37 -30 -100.5t-50.5 -105.5t-72.5 -75.5t-99 -33.5q-115 0 -166 100q-123 -100 -219.5 -100t-166 58.5t-69.5 184.5zM367 1006q0 -127 104 -127q59 0 116.5 50t86.5 124q53 213 53 229q0 55 -25.5 100t-91.5 45t-118 -56t-78 -134q-47 -145 -47 -231z" />
<glyph unicode="&#xab;" horiz-adv-x="1241" d="M416 521q0 9 24.5 31.5t69.5 61.5t98 90q132 127 252 316q18 27 53 27h29q43 0 43 -16.5t-44 -86.5t-150.5 -191.5t-237.5 -232.5q90 -121 136 -270.5t46 -220.5q0 -18 -9 -23.5t-38 -5.5h-31q-29 0 -35 10t-19.5 95t-62 194t-86.5 161t-38 61zM756 523q0 11 43 46 q244 201 403 451q18 27 53 27h29q43 0 43 -16.5t-42 -84t-149.5 -191.5t-240.5 -235q90 -121 135 -269.5t45 -221.5q0 -18 -9 -23.5t-38 -5.5h-29q-34 0 -41 22q-4 9 -6 29q-23 139 -72 249t-86.5 161t-37.5 62z" />
<glyph unicode="&#xac;" horiz-adv-x="1468" d="M348 731q0 41 66 41h1007q59 0 60 -45q0 -12 -115 -469q-14 -63 -49 -63q-16 0 -27.5 12t-11.5 24.5t18 82.5q71 285 93 376h-977q-64 0 -64 41z" />
<glyph unicode="&#xad;" horiz-adv-x="444" d="M182 441q0 38 21 75q12 20 45 21h440q53 0 53 -37q-8 -76 -36 -92q-10 -4 -31 -5h-440q-52 0 -52 38z" />
<glyph unicode="&#xae;" horiz-adv-x="2377" d="M252 220q0 177 59.5 378t199.5 407.5t341 340.5q317 213 717 213q237 0 429 -91q111 -53 193 -134t134.5 -215t52.5 -310t-53.5 -363.5t-165 -363.5t-264 -313.5t-369.5 -220.5t-465 -83q-403 0 -629 232q-80 82 -130 214t-50 309zM334 230.5q0 -175.5 46 -294 t118.5 -190.5t171.5 -118q176 -81 408.5 -81t455.5 92.5t404.5 284t269.5 442t88 427t-46 295t-118 190.5t-171 118q-174 81 -390 81q-387 0 -699.5 -219.5t-455.5 -616.5q-82 -235 -82 -410.5zM602 37q0 12 8 39q13 45 52 45h141l184 739h-115q-55 0 -55 35q2 68 33 80 q10 4 31 4h444q184 0 272 -25q199 -57 199 -202q0 -170 -250 -275q68 -55 68 -135q0 -35 -15.5 -96.5t-15.5 -81.5q0 -66 84 -66q60 0 95 76q14 29 22 35q10 6 55 6t45 -35q0 -49 -64.5 -126t-160.5 -77t-165 38t-69 124q0 37 18.5 104.5t18.5 92.5q0 94 -241 94h-195 l-78 -309h115q35 0 45 -10.5t10 -28.5q0 -82 -65 -82h-402q-49 0 -49 37zM1057 551h198q221 0 302.5 56t80.5 124q0 129 -297 129h-208z" />
<glyph unicode="&#xaf;" d="M526 1335q0 88 62 88h639q47 0 47 -37q0 -21 -9.5 -47t-21.5 -33t-55 -8h-615q-47 0 -47 37z" />
<glyph unicode="&#xb0;" horiz-adv-x="784" d="M451 1132q0 92 78.5 179.5t201.5 87.5q86 0 137.5 -46t51.5 -140.5t-79 -180.5t-202 -86q-88 0 -138 47t-50 139zM532 1120q0 -92 98.5 -92t152 62.5t53.5 136.5q0 90 -97.5 90t-152 -61.5t-54.5 -135.5z" />
<glyph unicode="&#xb1;" horiz-adv-x="1695" d="M178 41q0 41 58 41h589l140 559h-566q-61 0 -61 42t61 42l17 -2h569q0 4 71.5 288.5t74 295t5.5 18.5t8 19q10 20 31 20t31.5 -13.5t10.5 -28.5t-25 -110q-80 -301 -123 -489h551l14 2q61 0 62 -43q0 -41 -62 -41h-585l-140 -559h568q59 0 59 -41t-59 -41h-1239 q-60 0 -60 41z" />
<glyph unicode="&#xb2;" horiz-adv-x="1011" d="M344 723q0 31 29.5 92.5t104.5 140t171 117.5q20 8 106.5 38t131.5 49.5t89 61.5t44 93q0 111 -170 123q6 -18 6 -37q0 -70 -80 -130.5t-188 -62.5q-63 0 -105.5 33t-42.5 84q0 90 103.5 162t290 72t261 -71t74.5 -165t-77 -165q-75 -70 -316 -154q-28 -9 -35.5 -12 t-28 -10t-28.5 -11t-24.5 -12.5t-26.5 -16.5t-24.5 -18.5t-30.5 -24.5q68 -6 157.5 -29.5t145.5 -23.5q149 0 196 94q13 25 54 25t53 -5.5t12 -19.5q0 -63 -100.5 -151.5t-239.5 -88.5q-61 0 -163.5 39t-139.5 39t-55.5 -14t-30.5 -33.5t-20 -25.5t-39 -7h-29q-35 0 -35 25z M565 1352q0 -23 45 -23q88 0 121 53q-29 18 -29 31q0 6 13 23q-61 -8 -97 -26q-53 -28 -53 -58z" />
<glyph unicode="&#xb3;" horiz-adv-x="1011" d="M381 942q0 160 104 160q66 0 66 -64q0 -47 -47 -82q5 -113 92 -139q34 -10 80 -10q256 0 256 166q0 47 -31 72.5t-54.5 28.5t-64.5 5h-96q-35 0 -35 27q0 20 11.5 57t50.5 37h75q180 0 234 86q18 33 18 64q0 90 -174 90q-20 -76 -78.5 -138.5t-131 -62.5t-112.5 28.5 t-40 75.5q0 43 30 89q59 87 205 112q-6 23 17 45q51 45 71.5 45t40.5 -75q310 0 312 -195q0 -143 -160 -231q61 -61 61 -148.5t-44 -148t-115 -90.5q-135 -58 -274.5 -58t-203 76t-63.5 178zM625 1362q12 -2 32 -2q53 0 86 74q-93 -15 -118 -72z" />
<glyph unicode="&#xb4;" d="M743 1136q0 17 21.5 32.5t306.5 201.5q43 27 66 27t40 -18.5t17 -43.5q0 -43 -71.5 -86t-191.5 -115.5t-137 -72.5t-34 29t-17 46z" />
<glyph unicode="&#xb5;" d="M63 -368.5q0 19.5 9 49.5l295 1185q23 82 86 82q23 0 40 -14t17 -39t-70.5 -296t-70.5 -335q0 -156 157 -155q61 0 115.5 35.5t90.5 89.5q60 89 85 163q6 14 62.5 245.5t66.5 248.5q25 47 72 47q23 0 40 -14.5t17 -30.5t-10 -64l-141 -567q-12 -45 -12.5 -77.5t23 -53 t51.5 -20.5t52.5 46t39 100t21.5 63t44 10h22q43 0 43 -25q0 -43 -41 -133q-83 -182 -211 -182q-55 0 -105 30.5t-73 102.5q-131 -135 -276 -135q-109 0 -201 61q-96 -387 -102 -407q-20 -61 -80 -62q-25 0 -40.5 16t-15.5 35.5z" />
<glyph unicode="&#xb6;" horiz-adv-x="1353" d="M389 867.5q0 177.5 166 355.5q80 86 212 142t290 56h471q59 0 59 -41t-57 -41h-121l-414 -1654h95q61 0 61 -41t-57 -41h-527q-57 0 -57 41t61 41h115l197 788q-209 10 -351.5 113.5t-142.5 281zM772 -315h139l414 1654h-141z" />
<glyph unicode="&#xb7;" horiz-adv-x="671" d="M356 510q0 43 39 83t85 40t71.5 -25.5t25.5 -67.5t-40 -83t-86 -41t-70.5 25.5t-24.5 68.5z" />
<glyph unicode="&#xb8;" horiz-adv-x="1011" d="M174 -365q0 12 8 41t20.5 36t45.5 7h51q256 4 256 97q0 51 -92 61q-47 6 -47 35q0 18 8 48t13 49.5t7 23.5t8 14q10 14 46 14h28q51 0 52 -34q0 -14 -9 -47q127 -39 127 -148q0 -66 -46 -123t-136 -83t-291 -25q-49 -1 -49 34z" />
<glyph unicode="&#xb9;" horiz-adv-x="1011" d="M408 748q0 61 32 77q14 6 33 6h195l125 498q-121 -61 -224 -61q-49 0 -49 37q0 51 25 73q8 6 60 11.5t130 34t150 96.5q37 33 53 32q35 0 35 -34q0 -16 -33 -152l-133 -535h160q47 0 47 -36q0 -43 -15.5 -63.5t-50.5 -20.5h-485q-55 0 -55 37z" />
<glyph unicode="&#xba;" horiz-adv-x="1011" d="M70 627q0 59 80 59h632q84 0 84 -60t-78 -61l-14 2h-604l-25 -2q-31 0 -49 13q-26 20 -26 49zM225 1026q0 123 53.5 239.5t164 199.5t245.5 83t211 -72.5t76 -199.5q0 -195 -133 -356.5t-336 -161.5q-129 0 -205 72.5t-76 195.5zM373 1011.5q0 -63.5 44 -99t118.5 -35.5 t138 47t94.5 116q59 133 59 236q0 152 -155 151q-84 0 -146.5 -47t-93.5 -116.5t-45 -129t-14 -123z" />
<glyph unicode="&#xbb;" horiz-adv-x="1241" d="M173 17q-1 17 43 87t150.5 191t237.5 231q-90 121 -135 269.5t-45 222.5q0 18 9 23.5t38 5.5h29q34 0 41 -21q2 -6 2 -8l4 -23q23 -139 72 -247.5t86.5 -160.5t37.5 -62.5t-43 -47.5q-131 -106 -229 -220t-141 -180.5t-52 -71.5t-34 -5h-29q-41 0 -42 17zM515 17 q-1 17 43 86t149.5 191t238.5 232q-90 121 -136 270.5t-46 221.5q0 18 10 23.5t37 5.5h31q10 0 17 -2.5t11 -3.5t8 -8q9 -19 20.5 -98t60.5 -187.5t87.5 -160.5t38.5 -62.5t-43 -47.5q-131 -106 -229 -220t-141 -180.5t-52 -71.5t-34 -5h-29q-41 0 -42 17z" />
<glyph unicode="&#xbc;" horiz-adv-x="1011" d="M100 77.5q0 21.5 30 31.5t107.5 29.5t147.5 54.5t115 73.5t59 63t26.5 57.5t14.5 37q23 43 70 43q20 0 32 -4q23 59 76 59q25 0 42.5 -16.5t17.5 -35.5t-44 -200.5t-53 -208.5q124 0 151 -18q3 -2 17 -22.5t15 -36.5q0 -20 -34 -28q-70 -15 -179 -15q-61 -262 -74 -289 q-23 -49 -72 -49q-25 0 -42 15t-17 44l69 291q-6 0 -76.5 10t-122.5 12t-95 20.5t-56 18.5l-63 -12q-20 0 -41 27t-21 48.5zM211 569q0 41 59 41h752q61 0 61 -41t-59 -41h-754q-59 0 -59 41zM403 729q0 84 64 84h197l129 516q-125 -59 -220 -59q-51 0 -51 37q0 53 25 73 q8 6 60 11.5t129 34t131.5 78t72.5 48.5q35 0 35 -34q0 -14 -43 -190.5t-88 -344.5l-43 -170h162q47 0 47 -37q0 -82 -64 -84h-487q-56 0 -56 37zM438 94l166 -22l43 168q-96 -93 -209 -146z" />
<glyph unicode="&#xbd;" horiz-adv-x="1011" d="M63 -397q0 49 72 132t211 144q211 87 262 117.5t74 55.5q57 64 57 151q0 145 -194 145q-96 0 -180 -74.5t-121 -197.5q12 4 66.5 14t80 29.5t43.5 66.5q-29 35 -28.5 45t37 40t49 30t25.5 -10t25.5 -34t12.5 -52q0 -78 -84 -158t-201 -80q-82 0 -115.5 26.5t-33.5 58.5 t17.5 80t56 106.5t90 109.5t126 86t143 35t120 -12.5t101.5 -40t81 -81.5t31 -132t-36 -142.5t-102.5 -109.5t-128 -75t-149.5 -64.5t-129 -55.5q33 -4 123 -18t139 -14t100.5 35.5t74 70.5t36.5 69t23.5 42t33.5 8h33q37 0 37 -26t-25.5 -78t-68.5 -113.5t-118 -107.5 t-143.5 -46t-175 31t-150.5 31t-68.5 -31t-49.5 -31h-41q-39 0 -39 25zM211 569q0 41 59 41h752q61 0 61 -41t-59 -41h-754q-59 0 -59 41zM403 729q0 61 33 78q14 6 33 6h195l129 516q-125 -59 -220 -59q-51 0 -51 37q0 53 25 73q8 6 61.5 11.5t130 34t131 78t70.5 48.5 q35 0 35 -34q0 -31 -129 -535l-43 -170h164q43 0 43 -37q-4 -70 -37 -80q-16 -4 -27 -4h-487q-56 0 -56 37z" />
<glyph unicode="&#xbe;" horiz-adv-x="1011" d="M102 78q0 14 30 22q163 47 242 84t124 77t59 63.5t27.5 59.5t15.5 38q18 45 74 45q10 0 31 -4q25 59 77 59q23 0 40.5 -15t17.5 -34.5t-99 -411.5q123 0 144 -31q35 -56 35 -59q0 -14 -23 -16l-186 -14v-2q0 -21 -35 -151t-41 -140q-27 -45 -62 -45q-67 0 -67 57 q0 18 69 293q-156 24 -188.5 24t-48.5 2.5t-22 5.5q-63 29 -89 29l-59 -12q-12 0 -39 31t-27 45zM211 569q0 41 59 41h752q61 0 61 -41t-59 -41h-754q-59 0 -59 41zM377 913q0 97 31.5 133.5t68.5 36.5t54.5 -18t17.5 -56t-49 -71q8 -102 72 -134q34 -16 85 -16 q272 0 273 175q0 104 -142 108h-86q-53 0 -53 25q0 14 8.5 46t17.5 41t64 9l41 -2q219 0 256 125q4 12 4 35q0 90 -163 90h-48q-100 -2 -144 -21.5t-60 -62.5q8 -2 21 -3t17.5 -2t12.5 -3t11 -7.5t8 -13.5q8 -13 12 -49l6 22q2 -12 12 -22l14 14l-2 -8q33 8 58.5 8t25.5 -24 q0 -35 -104 -35l2 -6h-2l-2 6h-10q-29 -49 -49 -36q-15 11 10 36h-4q-160 0 -160 106q0 80 96 150t273.5 70t243 -59.5t65.5 -137.5q0 -143 -164 -240q63 -63 63 -153q0 -141 -128 -220t-324 -79q-123 0 -186.5 73t-63.5 170zM438 94l168 -22l43 172q-86 -86 -211 -148v-2z " />
<glyph unicode="&#xbf;" d="M186 -178q0 162 125 289q39 39 324 233q84 55 84 129q0 41 -37 41q-31 0 -66.5 -24.5t-49 -51t-22.5 -31t-42 -4.5h-15q-47 0 -47 23q0 55 82 132t193 77q63 0 98 -38t35 -101q0 -121 -83 -204q-5 -5 -10 -10.5t-16.5 -13.5t-21.5 -15t-31.5 -22.5t-42 -30t-58.5 -40 t-57.5 -38.5t-41 -27.5t-31 -21.5t-31 -24.5t-33.5 -31t-28.5 -35t-25.5 -40.5q-22 -48 -22 -108t45.5 -97.5t135 -37.5t184 71.5t137.5 172.5q-18 27 -18 54.5t28.5 57t62.5 29.5t53.5 -17.5t19.5 -53.5t-36 -106.5t-97.5 -145t-161 -129t-217 -54.5t-191.5 64.5t-74 179.5 zM682 901q0 43 38 82t83 39t71.5 -25.5t26.5 -68.5t-39 -82t-84 -39t-70.5 25.5t-25.5 68.5z" />
<glyph unicode="&#xc0;" horiz-adv-x="1615" d="M129 37q0 12 8 39.5t22.5 36t53.5 8.5h111q25 45 77 131l664 1120q18 33 36.5 43t49.5 10h23q41 0 47 -17t7 -19.5t3 -26.5l84 -899q4 -57 16 -171t17 -171h106q57 0 57 -37q0 -14 -8 -42t-20 -35t-35 -7h-371q-49 0 -49 35q0 16 7 43t20.5 35t42.5 8h98l-31 321h-524 l-190 -321h81q57 0 58 -41q0 -55 -31 -74q-10 -6 -33 -6h-344q-53 0 -53 37zM715 563h440l-59 641zM954 1707q0 36 22.5 60.5t47 24.5t58.5 -18.5t237 -128.5q41 -23 41 -42.5t-23.5 -51t-40 -31.5t-288.5 131q-54 20 -54 56z" />
<glyph unicode="&#xc1;" horiz-adv-x="1615" d="M129 37q0 12 8 39.5t22.5 36t53.5 8.5h111q25 45 77 131l664 1120q18 33 36.5 43t49.5 10h23q41 0 47 -17t7 -19.5t3 -26.5l84 -899q4 -57 16 -171t17 -171h106q57 0 57 -37q0 -14 -8 -42t-20 -35t-35 -7h-371q-49 0 -49 35q0 16 7 43t20.5 35t42.5 8h98l-31 321h-524 l-190 -321h81q57 0 58 -41q0 -55 -31 -74q-10 -6 -33 -6h-344q-53 0 -53 37zM715 563h440l-59 641zM993 1595q0 32 54 50q340 145 361.5 145t37.5 -17.5t16 -41.5q0 -53 -73 -80q-340 -131 -359 -131t-28 27.5t-9 47.5z" />
<glyph unicode="&#xc2;" horiz-adv-x="1615" d="M129 37q0 12 8 39.5t22.5 36t53.5 8.5h111q25 45 77 131l664 1120q18 33 36.5 43t49.5 10h23q41 0 47 -17t7 -19.5t3 -26.5l84 -899q4 -57 16 -171t17 -171h106q57 0 57 -37q0 -14 -8 -42t-20 -35t-35 -7h-371q-49 0 -49 35q0 16 7 43t20.5 35t42.5 8h98l-31 321h-524 l-190 -321h81q57 0 58 -41q0 -55 -31 -74q-10 -6 -33 -6h-344q-53 0 -53 37zM715 563h440l-59 641zM893 1563q0 16 31 41q46 39 299 217q25 14 36.5 14t26 -14.5t80 -88t100 -112.5t34 -56t-29 -44t-44 -27t-28 11.5t-55.5 60.5l-108 129q-274 -199 -283 -201h-2 q-20 0 -38.5 27t-18.5 43z" />
<glyph unicode="&#xc3;" horiz-adv-x="1615" d="M129 37q0 12 8 39.5t22.5 36t53.5 8.5h111q25 45 77 131l664 1120q18 33 36.5 43t49.5 10h23q41 0 47 -17t7 -19.5t3 -26.5l84 -899q4 -57 16 -171t17 -171h106q57 0 57 -37q0 -14 -8 -42t-20 -35t-35 -7h-371q-49 0 -49 35q0 16 7 43t20.5 35t42.5 8h98l-31 321h-524 l-190 -321h81q57 0 58 -41q0 -55 -31 -74q-10 -6 -33 -6h-344q-53 0 -53 37zM715 563h440l-59 641zM823 1645q0 12 5 20q8 11 30 33q133 129 236 129q61 0 154 -48t143 -48t112 46t75 46t37.5 -23.5t24.5 -40t-32 -49.5q-133 -129 -238 -129q-61 0 -154.5 48t-143.5 48 t-113.5 -47t-76.5 -47t-36 25t-23 37z" />
<glyph unicode="&#xc4;" horiz-adv-x="1615" d="M129 37q0 12 8 39.5t22.5 36t53.5 8.5h111q25 45 77 131l664 1120q18 33 36.5 43t49.5 10h23q41 0 47 -17t7 -19.5t3 -26.5l84 -899q4 -57 16 -171t17 -171h106q57 0 57 -37q0 -14 -8 -42t-20 -35t-35 -7h-371q-49 0 -49 35q0 16 7 43t20.5 35t42.5 8h98l-31 321h-524 l-190 -321h81q57 0 58 -41q0 -55 -31 -74q-10 -6 -33 -6h-344q-53 0 -53 37zM715 563h440l-59 641zM926 1705q0 42 39 81t84 39t70.5 -26.5t25.5 -68.5t-38 -81t-83 -39t-71.5 26.5t-26.5 68.5zM1323 1703q0 44 39 83t85 39t71.5 -26.5t25.5 -69.5t-40 -81t-84 -38 t-70.5 24.5t-26.5 68.5z" />
<glyph unicode="&#xc5;" horiz-adv-x="1615" d="M129 37q0 12 8 39.5t22.5 36t53.5 8.5h111l716 1206q-82 51 -82 169t87.5 232.5t222.5 114.5q78 0 125 -47t47 -131q0 -57 -27 -135q-49 -142 -178 -203l113 -1206h106q57 0 57 -37q0 -14 -8 -42t-20 -35t-35 -7h-371q-49 0 -49 35q0 16 7 43t20.5 35t42.5 8h98l-31 321 h-524l-190 -321h81q57 0 58 -41q0 -55 -31 -74q-10 -6 -33 -6h-344q-53 0 -53 37zM715 563h440l-59 641zM1073 1505q0 -80 90 -80q61 0 105 45q14 13 27.5 49.5t14.5 42t9 42.5q6 37 6 41q0 78 -90 77q-70 0 -102.5 -42t-46 -98.5t-13.5 -76.5z" />
<glyph unicode="&#xc6;" horiz-adv-x="1939" d="M129 37q0 55 31 76q14 8 53 8h113l696 1159h-49q-47 2 -47 35q0 61 19.5 72.5t45.5 11.5h1004l4 2h4q53 0 53 -43q0 -31 -51 -418q-4 -35 -15.5 -47t-43.5 -12h-11q-31 0 -42 10t-11 29.5t14.5 141.5t14.5 177v25q-76 16 -248 16h-305l-137 -547h299q28 0 50.5 11.5 t24.5 19.5t12.5 42t20.5 71.5t13.5 50t12.5 27t20.5 16.5t35.5 2q57 0 53 -39q0 -10 -127 -516q-10 -43 -55 -43h-12q-53 0 -53 35l38 196q-53 6 -159 6h-203l-123 -491h268q288 2 318.5 25.5t183.5 392.5q12 33 25.5 40t56.5 7t43 -33q0 -18 -27.5 -84.5t-95.5 -232.5 t-86 -201t-43 -35h-903q-45 0 -45 37q0 84 70 84h86l122 491h-294l-295 -491h82q55 0 55 -41q0 -23 -10 -46q-14 -34 -54 -34h-344q-53 0 -53 37zM821 733h252l137 547h-61z" />
<glyph unicode="&#xc7;" horiz-adv-x="1581" d="M309 481q0 160 60.5 323t169 303t281.5 228t378 88q240 0 375 -190q109 163 141 182q10 6 21 6q27 0 26 -22q0 -6 -58 -240.5t-63.5 -251.5t-13.5 -22.5t-31 -5.5h-30q-45 0 -45 30l2 66q0 110 -56 210q-30 52 -90.5 85t-160 33t-209 -34t-213 -103.5t-183.5 -191.5 t-112.5 -258.5t-32.5 -234.5t42 -180t113 -124q132 -79 296 -79t298 98.5t187 245.5q14 41 20 47.5t39 6.5h35q35 0 35 -22.5t-18.5 -70t-65.5 -114t-112.5 -128t-174 -113.5t-237.5 -68q123 -41 122 -148q0 -63 -44 -119.5t-132 -84.5t-297 -27q-47 0 -47 34q0 58 19.5 71 t58.5 13q303 0 303 99q0 47 -92 57q-49 6 -49 37q0 14 14 68q-215 16 -342 148t-127 353z" />
<glyph unicode="&#xc8;" horiz-adv-x="1484" d="M162 37q0 14 8 41q12 43 51 43h144l286 1153h-127q-43 0 -43 37q0 57 20.5 70t41.5 14h1005q51 0 51 -43q0 -27 -51 -420q-4 -39 -17 -47t-50 -8h-2q-29 0 -40.5 9t-11.5 28.5t13.5 126t13.5 153t-3 54t-33 16.5q-36 10 -263 10h-352l-123 -490l133 -2q174 0 209 5.5 t46 31t23.5 71.5t21.5 80t23.5 44t47.5 10q57 0 53 -41q0 -10 -127 -514q-10 -45 -55 -45h-13q-53 0 -53 37l37 194q-74 8 -168 9h-209l-135 -543h326q314 0 354 25q44 26 190 393q12 33 24.5 40t43.5 7h4q53 0 53 -25.5t-204 -519.5q-10 -25 -21.5 -33t-38.5 -8h-1038 q-45 0 -45 37zM954 1709q0 34 23.5 58.5t48.5 24.5q32 0 293 -147q41 -23 41 -42.5t-22.5 -51t-40 -31.5t-289.5 131q-54 24 -54 58z" />
<glyph unicode="&#xc9;" horiz-adv-x="1484" d="M162 37q0 14 8 41q12 43 51 43h144l286 1153h-127q-43 0 -43 37q0 57 20.5 70t41.5 14h1005q51 0 51 -43q0 -27 -51 -420q-4 -39 -17 -47t-50 -8h-2q-29 0 -40.5 9t-11.5 28.5t13.5 126t13.5 153t-3 54t-33 16.5q-36 10 -263 10h-352l-123 -490l133 -2q174 0 209 5.5 t46 31t23.5 71.5t21.5 80t23.5 44t47.5 10q57 0 53 -41q0 -10 -127 -514q-10 -45 -55 -45h-13q-53 0 -53 37l37 194q-74 8 -168 9h-209l-135 -543h326q314 0 354 25q44 26 190 393q12 33 24.5 40t43.5 7h4q53 0 53 -25.5t-204 -519.5q-10 -25 -21.5 -33t-38.5 -8h-1038 q-45 0 -45 37zM1022 1594q0 20 12 29t193.5 88t206 79t41 -17.5t16.5 -41.5q0 -47 -76 -80q-338 -131 -350 -131q-43 0 -43 74z" />
<glyph unicode="&#xca;" horiz-adv-x="1484" d="M162 37q0 14 8 41q12 43 51 43h144l286 1153h-127q-43 0 -43 37q0 57 20.5 70t41.5 14h1005q51 0 51 -43q0 -27 -51 -420q-4 -39 -17 -47t-50 -8h-2q-29 0 -40.5 9t-11.5 28.5t13.5 126t13.5 153t-3 54t-33 16.5q-36 10 -263 10h-352l-123 -490l133 -2q174 0 209 5.5 t46 31t23.5 71.5t21.5 80t23.5 44t47.5 10q57 0 53 -41q0 -10 -127 -514q-10 -45 -55 -45h-13q-53 0 -53 37l37 194q-74 8 -168 9h-209l-135 -543h326q314 0 354 25q44 26 190 393q12 33 24.5 40t43.5 7h4q53 0 53 -25.5t-204 -519.5q-10 -25 -21.5 -33t-38.5 -8h-1038 q-45 0 -45 37zM838 1563q0 16 30.5 41.5t141.5 104.5t157 112q25 14 36 14t31 -19q50 -48 187 -208q23 -27 23 -44t-29 -44t-44 -27t-27.5 11.5t-55.5 60.5l-108 129q-262 -193 -271 -197q-8 -4 -21 -4t-31.5 27t-18.5 43z" />
<glyph unicode="&#xcb;" horiz-adv-x="1484" d="M162 37q0 14 8 41q12 43 51 43h144l286 1153h-127q-43 0 -43 37q0 57 20.5 70t41.5 14h1005q51 0 51 -43q0 -27 -51 -420q-4 -39 -17 -47t-50 -8h-2q-29 0 -40.5 9t-11.5 28.5t13.5 126t13.5 153t-3 54t-33 16.5q-36 10 -263 10h-352l-123 -490l133 -2q174 0 209 5.5 t46 31t23.5 71.5t21.5 80t23.5 44t47.5 10q57 0 53 -41q0 -10 -127 -514q-10 -45 -55 -45h-13q-53 0 -53 37l37 194q-74 8 -168 9h-209l-135 -543h326q314 0 354 25q44 26 190 393q12 33 24.5 40t43.5 7h4q53 0 53 -25.5t-204 -519.5q-10 -25 -21.5 -33t-38.5 -8h-1038 q-45 0 -45 37zM870 1705q0 42 39 81t84 39t71 -23.5t26 -68.5t-39 -84t-84 -39t-71 26.5t-26 68.5zM1268 1705q0 42 39 81t84 39t71.5 -24.5t26.5 -68.5t-39 -83t-85 -39t-71.5 26.5t-25.5 68.5z" />
<glyph unicode="&#xcc;" horiz-adv-x="819" d="M152 37q0 55 30 76q10 8 29 8h151l289 1159h-135q-43 0 -43 37q0 70 37 80q8 2 25 2h436q41 -4 41 -35q0 -59 -29 -78q-8 -6 -29 -6h-151l-291 -1159h137q43 0 43 -37q0 -70 -39 -82q-8 -2 -24 -2h-422q-55 0 -55 37zM583 1709q0 34 22.5 57.5t47 23.5t58.5 -18.5 t237 -128.5q41 -23 41 -41t-23.5 -50t-40 -32t-289.5 129q-53 26 -53 60z" />
<glyph unicode="&#xcd;" horiz-adv-x="819" d="M152 37q0 55 30 76q10 8 29 8h151l289 1159h-135q-43 0 -43 37q0 70 37 80q8 2 25 2h436q41 -4 41 -35q0 -59 -29 -78q-8 -6 -29 -6h-151l-291 -1159h137q43 0 43 -37q0 -70 -39 -82q-8 -2 -24 -2h-422q-55 0 -55 37zM590 1595q0 29 45 47q6 2 177 75t191.5 73t37 -17.5 t16.5 -41.5q0 -51 -74 -80q-346 -131 -350 -131q-25 0 -34 28.5t-9 46.5z" />
<glyph unicode="&#xce;" horiz-adv-x="819" d="M152 37q0 55 30 76q10 8 29 8h151l289 1159h-135q-43 0 -43 37q0 70 37 80q8 2 25 2h436q41 -4 41 -35q0 -59 -29 -78q-8 -6 -29 -6h-151l-291 -1159h137q43 0 43 -37q0 -70 -39 -82q-8 -2 -24 -2h-422q-55 0 -55 37zM496 1563q0 16 15 29.5t109.5 80.5t159 114.5 t78.5 47.5t28 -15q26 -25 191 -212q25 -29 25 -45t-30 -43t-46 -27t-38.5 24.5t-149.5 176.5q-274 -199 -283 -201h-2q-20 0 -38.5 27t-18.5 43z" />
<glyph unicode="&#xcf;" horiz-adv-x="819" d="M152 37q0 55 30 76q10 8 29 8h151l289 1159h-135q-43 0 -43 37q0 70 37 80q8 2 25 2h436q41 -4 41 -35q0 -59 -29 -78q-8 -6 -29 -6h-151l-291 -1159h137q43 0 43 -37q0 -70 -39 -82q-8 -2 -24 -2h-422q-55 0 -55 37zM528 1704q0 43 38 82t83 39t71.5 -26.5t26.5 -68.5 t-38.5 -81t-83 -39t-71 25.5t-26.5 68.5zM926 1704q0 43 38.5 82t84 39t71 -26.5t25.5 -70.5t-41 -81t-84 -37t-68.5 25.5t-25.5 68.5z" />
<glyph unicode="&#xd0;" horiz-adv-x="1654" d="M164 37q0 84 69 84h134l125 506h-115q-55 0 -55 41q0 78 59 80h141l133 532h-118q-51 0 -52 37q0 82 64 84l14 -2h555l68 2q145 0 248.5 -42t157.5 -115q100 -137 100 -322q0 -230 -118 -463q-65 -127 -159 -227.5t-245.5 -166t-333.5 -65.5h-611q-61 0 -61 37zM510 121 h311q543 0 688 557q33 127 33 227q0 375 -420 375h-321l-133 -532h344q57 0 57 -37q0 -54 -18.5 -69t-49.5 -15h-364z" />
<glyph unicode="&#xd1;" horiz-adv-x="1615" d="M166 37q0 57 29 76q12 8 57 8h117l288 1159h-116q-53 0 -54 35q0 84 60 84h205l20 2q43 0 54 -34q8 -24 12 -32l385 -1063l252 1008h-121q-49 0 -49 37q0 68 36 80q16 4 29 4l21 -2h364q41 0 41 -35q0 -59 -29 -78q-8 -6 -55 -6h-117l-307 -1233q-8 -29 -19.5 -38 t-41.5 -9h-6q-27 0 -39.5 7t-22.5 34l-366 1010q-29 78 -41 116l-263 -1046h119q51 0 51 -37q0 -18 -9 -46t-26 -33t-30 -5h-361q-67 0 -67 37zM825 1644q0 13 5 21t30 33q131 127 235 127q61 0 153.5 -47t143.5 -47t112.5 46t75 46t37 -23.5t23.5 -40t-33 -49.5 q-133 -129 -235 -129q-61 0 -155.5 47t-145.5 47t-111.5 -46t-74 -46t-37 24t-23.5 37z" />
<glyph unicode="&#xd2;" horiz-adv-x="1695" d="M307 463q0 131 35 260t109.5 254t178 224t252 160.5t320.5 61.5q190 0 346 -99q82 -52 132.5 -155.5t50.5 -258t-70 -342t-203 -326.5q-252 -264 -620 -265q-195 0 -348 98q-82 52 -132.5 154.5t-50.5 233.5zM469 495.5q0 -104.5 37 -186.5t100 -124q117 -79 262 -79 t266 55.5t201 143.5t137 197q109 207 109 416q0 109 -38 186.5t-101 117.5q-118 74 -269 74t-274 -54t-200.5 -138t-131 -191.5t-76 -210t-22.5 -207zM1051 1708q0 35 22.5 59.5t46.5 24.5t58 -18.5t237 -128.5q41 -23 41 -42.5t-23.5 -51t-38.5 -31.5t-288 131 q-55 22 -55 57z" />
<glyph unicode="&#xd3;" horiz-adv-x="1695" d="M307 463q0 131 35 260t109.5 254t178 224t252 160.5t320.5 61.5q190 0 346 -99q82 -52 132.5 -155.5t50.5 -258t-70 -342t-203 -326.5q-252 -264 -620 -265q-195 0 -348 98q-82 52 -132.5 154.5t-50.5 233.5zM469 495.5q0 -104.5 37 -186.5t100 -124q117 -79 262 -79 t266 55.5t201 143.5t137 197q109 207 109 416q0 109 -38 186.5t-101 117.5q-118 74 -269 74t-274 -54t-200.5 -138t-131 -191.5t-76 -210t-22.5 -207zM1034 1595q0 23 12 31q17 10 198 87t203 77t38 -17.5t16 -42t-19 -44.5q-31 -35 -55 -35q-340 -131 -352 -131 q-41 -1 -41 75z" />
<glyph unicode="&#xd4;" horiz-adv-x="1695" d="M307 463q0 131 35 260t109.5 254t178 224t252 160.5t320.5 61.5q190 0 346 -99q82 -52 132.5 -155.5t50.5 -258t-70 -342t-203 -326.5q-252 -264 -620 -265q-195 0 -348 98q-82 52 -132.5 154.5t-50.5 233.5zM469 495.5q0 -104.5 37 -186.5t100 -124q117 -79 262 -79 t266 55.5t201 143.5t137 197q109 207 109 416q0 109 -38 186.5t-101 117.5q-118 74 -269 74t-274 -54t-200.5 -138t-131 -191.5t-76 -210t-22.5 -207zM934 1564q0 17 37 46.5t136 100t155 110.5q25 14 36.5 14t26 -14.5t80 -88t101 -113.5t35 -56t-30 -43t-45 -27t-25.5 9 t-56 63l-110 129q-274 -199 -283 -201h-2q-20 0 -37.5 27t-17.5 44z" />
<glyph unicode="&#xd5;" horiz-adv-x="1695" d="M307 463q0 131 35 260t109.5 254t178 224t252 160.5t320.5 61.5q190 0 346 -99q82 -52 132.5 -155.5t50.5 -258t-70 -342t-203 -326.5q-252 -264 -620 -265q-195 0 -348 98q-82 52 -132.5 154.5t-50.5 233.5zM469 495.5q0 -104.5 37 -186.5t100 -124q117 -79 262 -79 t266 55.5t201 143.5t137 197q109 207 109 416q0 109 -38 186.5t-101 117.5q-118 74 -269 74t-274 -54t-200.5 -138t-131 -191.5t-76 -210t-22.5 -207zM862 1643q0 14 5 22t30 33q133 129 236 129q61 0 154 -48t143 -48t113 46t76 46t36.5 -23.5t23.5 -40t-32 -49.5 q-133 -129 -238 -129q-61 0 -154.5 48t-143.5 48t-113.5 -47t-74.5 -47t-36 23t-25 37z" />
<glyph unicode="&#xd6;" horiz-adv-x="1695" d="M307 463q0 131 35 260t109.5 254t178 224t252 160.5t320.5 61.5q190 0 346 -99q82 -52 132.5 -155.5t50.5 -258t-70 -342t-203 -326.5q-252 -264 -620 -265q-195 0 -348 98q-82 52 -132.5 154.5t-50.5 233.5zM469 495.5q0 -104.5 37 -186.5t100 -124q117 -79 262 -79 t266 55.5t201 143.5t137 197q109 207 109 416q0 109 -38 186.5t-101 117.5q-118 74 -269 74t-274 -54t-200.5 -138t-131 -191.5t-76 -210t-22.5 -207zM965 1705q0 42 38.5 81t84 39t72 -26.5t26.5 -68.5t-39 -81t-85 -39t-71.5 26.5t-25.5 68.5zM1364 1704q0 43 39 82t84 39 t70.5 -26.5t25.5 -68.5t-39 -81t-85 -39t-70.5 25.5t-24.5 68.5z" />
<glyph unicode="&#xd7;" horiz-adv-x="1695" d="M369 61.5q0 20.5 53 61.5l496 395q-84 115 -186.5 251t-119 159.5t-16.5 39t12.5 26t23.5 10.5t17 -3.5t13.5 -9.5t10.5 -10t10 -13.5t38.5 -52.5t85 -113.5t80 -104t47.5 -61.5q34 -47 47 -65l492 392q51 41 69 41q37 0 37 -39q0 -18 -36 -50.5t-511 -408.5v-2 q8 -10 18.5 -24.5t32 -42t48 -63.5t81 -108.5t97.5 -131.5t43 -75t-11.5 -28.5t-28.5 -12.5t-47 37t-142 186.5t-156 211.5q-504 -410 -524.5 -422t-35.5 -12.5t-26.5 11t-11.5 32z" />
<glyph unicode="&#xd8;" horiz-adv-x="1695" d="M281 -83q0 17 65.5 92t93.5 108v2q-131 133 -131 354q0 154 58.5 315.5t165 306t282.5 236.5t367.5 92t324.5 -71q154 180 163 185t22.5 5t42 -20.5t28.5 -37.5t-67.5 -94t-93.5 -108v-2q131 -137 131 -358q0 -162 -60.5 -327t-170 -303t-282.5 -226.5t-353.5 -88.5 t-331.5 70q-150 -174 -162 -182t-24.5 -8t-40 21.5t-27.5 38.5zM451 481q0 -160 81 -256l885 1024q-113 53 -255 53.5t-268 -57t-206 -147.5t-136 -203q-101 -204 -101 -414zM625 150q106 -53 256.5 -53.5t282.5 63t209 157t129 209.5q89 200 89 367t-82 281z" />
<glyph unicode="&#xd9;" horiz-adv-x="1615" d="M432 328q0 74 31 196l188 756h-108q-41 0 -51.5 10t-10.5 29q0 82 64 82l12 -2h397q49 0 50 -35q0 -16 -7 -35q-10 -49 -57 -49h-137l-182 -733q-41 -164 -41 -221q0 -125 72.5 -177.5t189 -52.5t233.5 73q150 93 209 343l193 768h-121q-51 0 -51 37q0 16 9 45 q12 39 56 39l21 -2h268l59 2h8q37 0 54.5 -6t17.5 -48t-29 -61q-8 -6 -55 -6h-117l-192 -770q-31 -113 -39 -135q-66 -172 -210 -285t-328.5 -113t-290 90.5t-105.5 260.5zM1010 1708q0 35 23.5 59.5t48.5 24.5q31 0 292 -147q41 -23 41 -42.5t-22.5 -51t-38.5 -31.5 t-289 131q-55 22 -55 57z" />
<glyph unicode="&#xda;" horiz-adv-x="1615" d="M432 328q0 74 31 196l188 756h-108q-41 0 -51.5 10t-10.5 29q0 82 64 82l12 -2h397q49 0 50 -35q0 -16 -7 -35q-10 -49 -57 -49h-137l-182 -733q-41 -164 -41 -221q0 -125 72.5 -177.5t189 -52.5t233.5 73q150 93 209 343l193 768h-121q-51 0 -51 37q0 16 9 45 q12 39 56 39l21 -2h268l59 2h8q37 0 54.5 -6t17.5 -48t-29 -61q-8 -6 -55 -6h-117l-192 -770q-31 -113 -39 -135q-66 -172 -210 -285t-328.5 -113t-290 90.5t-105.5 260.5zM1079 1595q0 32 54 50q340 145 360.5 145t36.5 -17.5t16 -42t-18 -44.5q-32 -35 -55 -35 q-340 -131 -358 -131t-27 27.5t-9 47.5z" />
<glyph unicode="&#xdb;" horiz-adv-x="1615" d="M432 328q0 74 31 196l188 756h-108q-41 0 -51.5 10t-10.5 29q0 82 64 82l12 -2h397q49 0 50 -35q0 -16 -7 -35q-10 -49 -57 -49h-137l-182 -733q-41 -164 -41 -221q0 -125 72.5 -177.5t189 -52.5t233.5 73q150 93 209 343l193 768h-121q-51 0 -51 37q0 16 9 45 q12 39 56 39l21 -2h268l59 2h8q37 0 54.5 -6t17.5 -48t-29 -61q-8 -6 -55 -6h-117l-192 -770q-31 -113 -39 -135q-66 -172 -210 -285t-328.5 -113t-290 90.5t-105.5 260.5zM901 1564.5q0 18.5 39 48t289 208.5q25 14 37 14t26.5 -14.5t79.5 -88t100.5 -113.5t35 -56t-30 -43 t-44.5 -27t-25.5 9t-55.5 63l-111 129q-274 -199 -283 -201h-2q-20 0 -37.5 26.5t-17.5 45z" />
<glyph unicode="&#xdc;" horiz-adv-x="1615" d="M432 328q0 74 31 196l188 756h-108q-41 0 -51.5 10t-10.5 29q0 82 64 82l12 -2h397q49 0 50 -35q0 -16 -7 -35q-10 -49 -57 -49h-137l-182 -733q-41 -164 -41 -221q0 -125 72.5 -177.5t189 -52.5t233.5 73q150 93 209 343l193 768h-121q-51 0 -51 37q0 16 9 45 q12 39 56 39l21 -2h268l59 2h8q37 0 54.5 -6t17.5 -48t-29 -61q-8 -6 -55 -6h-117l-192 -770q-31 -113 -39 -135q-66 -172 -210 -285t-328.5 -113t-290 90.5t-105.5 260.5zM926 1705q0 42 39 81t84 39t70.5 -26.5t25.5 -68.5t-38 -81t-83 -39t-71.5 26.5t-26.5 68.5z M1323 1703q0 44 39 83t85 39t71.5 -26.5t25.5 -69.5t-40 -81t-84 -38t-70.5 24.5t-26.5 68.5z" />
<glyph unicode="&#xdd;" horiz-adv-x="1615" d="M412 1317q4 66 34 78q8 4 29 4h373q49 0 49 -35q0 -47 -15.5 -63.5t-23.5 -18.5t-27 -2h-71l231 -588l527 588h-54q-53 0 -53 33q0 16 7 42t18.5 35t40.5 9h346l2 2q45 0 45 -37q0 -49 -16.5 -66.5t-55.5 -17.5h-102q-25 0 -36 -7t-44 -44l-569 -637q-35 -40 -44 -84 q-38 -169 -96 -387h117q35 0 45 -10.5t10 -31t-9 -44t-20 -29.5t-34 -6h-404q-49 0 -49 35q0 18 6 37q10 49 58 49h137q12 51 40 159q66 259 66 274t-8 40l-272 686h-123q-55 0 -55 37zM1079 1595q0 32 54 50q340 145 361.5 145t36.5 -17.5t15 -42t-18 -44.5 q-32 -35 -53 -35q-340 -131 -359 -131t-28 27.5t-9 47.5z" />
<glyph unicode="&#xde;" horiz-adv-x="1370" d="M166 37q0 57 29 76q12 8 57 8h117l288 1159h-118q-51 0 -52 37q0 70 37 80q8 2 25 2h405q43 0 43 -35l-6 -35q-8 -33 -20.5 -41t-36.5 -8h-137l-33 -127h295q128 0 230 -57q54 -31 86 -90.5t32 -135.5t-28.5 -155.5t-88 -161.5t-175.5 -135t-267 -53h-281l-61 -244h121 q51 0 51 -37q0 -70 -39 -82q-8 -2 -25 -2h-376q-72 0 -72 37zM598 485h180l47 -2q215 0 321.5 109.5t106.5 230.5t-92 174q-61 35 -203 35h-223z" />
<glyph unicode="&#xdf;" horiz-adv-x="1183" d="M-43 -291q0 49 26.5 81t62.5 32t55.5 -18.5t19.5 -40t-12 -50.5l18 -2q90 0 137 173t189 935h-154q-47 0 -47 35q0 18 9 46t20.5 33t31.5 5h162v2q39 259 105 341q86 108 200 135q72 18 189.5 18t205 -56.5t87.5 -148.5q0 -20 -23 -110.5t-54.5 -155t-54 -88t-62.5 -57.5 t-58 -52q-43 -43 -43 -83t28.5 -80t64.5 -71.5t64.5 -83t28.5 -110.5q0 -125 -114.5 -237.5t-262.5 -112.5q-88 0 -161.5 35.5t-73.5 115.5q0 51 30.5 78t57.5 27t44 -16.5t17 -41t-18 -53.5q49 -25 114 -24q100 0 157.5 73.5t57.5 124.5t-26.5 90t-57 68t-57 79t-26.5 112 t28.5 106.5t86 95.5t71.5 66.5t42 76t44 127t16 80.5q0 41 -47 73t-179 32t-161 -17q-63 -37 -96 -219l-147 -786q-61 -309 -100.5 -428t-117 -196t-151.5 -77t-120 35t-46 84z" />
<glyph unicode="&#xe0;" d="M238 282.5q0 151.5 56 299t175 258t252 110.5t213 -92q25 59 78 60q25 0 41 -15.5t16 -37t-14 -79.5l-133 -526q-27 -93 10 -128q22 -21 51 -21t53.5 45t39 100t20.5 64t47 9.5t52 -5t11 -15.5t-7 -39.5t-26.5 -78t-46 -93.5t-72.5 -76.5t-100 -31.5q-129 0 -174 123 q-131 -123 -276 -123q-104 0 -185 70.5t-81 222zM383 285q0 -98 43 -137t112.5 -39t148.5 70.5t118 172.5q63 211 63 285t-37.5 133t-113.5 59t-137.5 -49t-96 -117.5t-59.5 -148.5q-41 -131 -41 -229zM592 1321q0 27 23.5 51.5t41 24.5t23.5 -1t14.5 -6.5t15.5 -10.5 t19 -16t23.5 -21.5t31.5 -29.5l36 -38q21 -20 102 -98q25 -25 24.5 -41t-29 -44t-44 -28t-41 20.5t-203.5 173.5q-37 37 -37 64z" />
<glyph unicode="&#xe1;" d="M238 282.5q0 151.5 56 299t175 258t252 110.5t213 -92q25 59 78 60q25 0 41 -15.5t16 -37t-14 -79.5l-133 -526q-27 -93 10 -128q22 -21 51 -21t53.5 45t39 100t20.5 64t47 9.5t52 -5t11 -15.5t-7 -39.5t-26.5 -78t-46 -93.5t-72.5 -76.5t-100 -31.5q-129 0 -174 123 q-131 -123 -276 -123q-104 0 -185 70.5t-81 222zM383 285q0 -98 43 -137t112.5 -39t148.5 70.5t118 172.5q63 211 63 285t-37.5 133t-113.5 59t-137.5 -49t-96 -117.5t-59.5 -148.5q-41 -131 -41 -229zM741 1136q0 17 21.5 32.5t306.5 201.5q43 27 66 27t40 -18.5t17 -43.5 q0 -43 -71.5 -86t-191.5 -115.5t-137 -72.5t-34 29t-17 46z" />
<glyph unicode="&#xe2;" d="M238 282.5q0 151.5 56 299t175 258t252 110.5t213 -92q25 59 78 60q25 0 41 -15.5t16 -37t-14 -79.5l-133 -526q-27 -93 10 -128q22 -21 51 -21t53.5 45t39 100t20.5 64t47 9.5t52 -5t11 -15.5t-7 -39.5t-26.5 -78t-46 -93.5t-72.5 -76.5t-100 -31.5q-129 0 -174 123 q-131 -123 -276 -123q-104 0 -185 70.5t-81 222zM383 285q0 -98 43 -137t112.5 -39t148.5 70.5t118 172.5q63 211 63 285t-37.5 133t-113.5 59t-137.5 -49t-96 -117.5t-59.5 -148.5q-41 -131 -41 -229zM526 1079q0 18 49.5 54t156 117t129 96.5t35.5 15.5t27.5 -15.5 t67.5 -81t97 -118.5t44.5 -70.5t-29.5 -43t-45 -25.5t-25.5 9t-40 46.5t-40.5 50.5l-80 105q-270 -211 -287 -211t-38 26.5t-21 44.5z" />
<glyph unicode="&#xe3;" d="M238 282.5q0 151.5 56 299t175 258t252 110.5t213 -92q25 59 78 60q25 0 41 -15.5t16 -37t-14 -79.5l-133 -526q-27 -93 10 -128q22 -21 51 -21t53.5 45t39 100t20.5 64t47 9.5t52 -5t11 -15.5t-7 -39.5t-26.5 -78t-46 -93.5t-72.5 -76.5t-100 -31.5q-129 0 -174 123 q-131 -123 -276 -123q-104 0 -185 70.5t-81 222zM383 285q0 -98 43 -137t112.5 -39t148.5 70.5t118 172.5q63 211 63 285t-37.5 133t-113.5 59t-137.5 -49t-96 -117.5t-59.5 -148.5q-41 -131 -41 -229zM475 1228q0 17 15.5 32.5t34 33t24.5 23.5t25.5 23.5t31 25.5t31 20.5 t33.5 18.5q37 16 79 16t98.5 -54t86.5 -54h2q41 2 104.5 54t76.5 52t38 -22.5t25 -39.5t-15 -33l-36 -36q-64 -63 -87.5 -77.5t-44.5 -25.5q-40 -22 -85 -22t-102.5 54.5t-93.5 54.5t-100.5 -53.5t-77.5 -53.5t-38 23t-25 40z" />
<glyph unicode="&#xe4;" d="M238 282.5q0 151.5 56 299t175 258t252 110.5t213 -92q25 59 78 60q25 0 41 -15.5t16 -37t-14 -79.5l-133 -526q-27 -93 10 -128q22 -21 51 -21t53.5 45t39 100t20.5 64t47 9.5t52 -5t11 -15.5t-7 -39.5t-26.5 -78t-46 -93.5t-72.5 -76.5t-100 -31.5q-129 0 -174 123 q-131 -123 -276 -123q-104 0 -185 70.5t-81 222zM383 285q0 -98 43 -137t112.5 -39t148.5 70.5t118 172.5q63 211 63 285t-37.5 133t-113.5 59t-137.5 -49t-96 -117.5t-59.5 -148.5q-41 -131 -41 -229zM573 1279q0 42 39 81t85 39t72 -26.5t26 -68.5t-39 -81t-85 -39 t-72 26.5t-26 68.5zM973 1278q0 43 38 82t84 39t71.5 -26.5t25.5 -68.5t-39 -81t-85 -39t-70.5 25.5t-24.5 68.5z" />
<glyph unicode="&#xe5;" d="M238 282.5q0 151.5 56 299t175 258t252 110.5t213 -92q25 59 78 60q25 0 41 -15.5t16 -37t-14 -79.5l-133 -526q-27 -93 10 -128q22 -21 51 -21t53.5 45t39 100t20.5 64t47 9.5t52 -5t11 -15.5t-7 -39.5t-26.5 -78t-46 -93.5t-72.5 -76.5t-100 -31.5q-129 0 -174 123 q-131 -123 -276 -123q-104 0 -185 70.5t-81 222zM383 285q0 -98 43 -137t112.5 -39t148.5 70.5t118 172.5q63 211 63 285t-37.5 133t-113.5 59t-137.5 -49t-96 -117.5t-59.5 -148.5q-41 -131 -41 -229zM571 1163q0 84 76 151.5t190.5 67.5t156.5 -42t42 -95 q0 -82 -74.5 -150.5t-189 -68.5t-158 42t-43.5 95zM686 1165q0 -68 88 -67q61 0 97 29.5t44.5 57t8.5 58.5q0 68 -88 68q-61 0 -98.5 -31t-44.5 -58.5t-7 -56.5z" />
<glyph unicode="&#xe6;" horiz-adv-x="1581" d="M242 299q0 228 128 431q62 97 159.5 158.5t209 61.5t201.5 -84q0 31 25.5 56.5t56.5 25.5q53 0 53 -57q0 -12 -4 -33q143 92 289 92q104 0 173 -55t69 -139t-57.5 -157t-185.5 -104.5t-386 -31.5q-14 -68 -15 -129q0 -121 58.5 -173t140.5 -52t153.5 36.5t110.5 73.5 t50 37t35 -26.5t24 -44t-49 -63.5t-146.5 -90t-196.5 -44t-180 50t-114 163q-55 -84 -143.5 -147.5t-192.5 -63.5t-185 71.5t-81 237.5zM387 294q0 -103 43 -144t98 -41q102 0 194.5 106.5t121.5 257.5q2 14 12 55q23 94 23 157t-44 103.5t-128 40.5t-155 -70.5t-104 -170.5 q-61 -191 -61 -294zM1006 584h67q401 0 402 151q0 35 -33 64.5t-105 29.5q-235 1 -331 -245z" />
<glyph unicode="&#xe7;" horiz-adv-x="1011" d="M231 -365q0 16 8.5 44t20.5 34t51 6q301 0 301 99q0 47 -73 55q-66 0 -66 41q0 14 16 80q-248 49 -247 319q0 147 63.5 291t193.5 245t292 101q106 0 173.5 -50t67.5 -130q0 -49 -28.5 -84t-65.5 -35q-72 0 -72 64q0 35 33 71v2q-47 41 -140 41t-174 -62t-120 -153 q-76 -179 -76 -303q0 -203 201 -202q84 0 154.5 23.5t107.5 50t64.5 50t40.5 23.5t37 -26.5t24 -39.5q0 -27 -69 -79.5t-143.5 -78.5t-122.5 -34t-58 -16q129 -45 129 -150q0 -66 -45 -122t-134 -83t-292 -26q-52 -1 -52 34z" />
<glyph unicode="&#xe8;" horiz-adv-x="1011" d="M252 336q0 254 150.5 434t388.5 180q106 0 174.5 -54t68.5 -142q0 -63 -42 -134q-59 -99 -251 -137q-109 -20 -327 -20q-16 -90 -17 -135q0 -104 49.5 -161.5t138.5 -57.5t160.5 23.5t108.5 50t65.5 50t39.5 23.5t35 -26.5t24 -40t-19.5 -36t-60.5 -51t-93 -54.5 q-123 -60 -276 -60q-117 0 -211 68q-49 36 -77.5 109t-28.5 171zM444 584h68q395 0 395 151q0 35 -32.5 64.5t-104.5 29.5q-236 1 -326 -245zM537 1321q0 27 23.5 51.5t41 24.5t23.5 -1t14.5 -6.5t15.5 -10.5t19 -16t23.5 -21.5t31.5 -29.5l36 -38q21 -20 102 -98 q25 -25 24.5 -41t-29 -44t-44 -28t-41 20.5t-203.5 173.5q-37 37 -37 64z" />
<glyph unicode="&#xe9;" horiz-adv-x="1011" d="M252 336q0 254 150.5 434t388.5 180q106 0 174.5 -54t68.5 -142q0 -63 -42 -134q-59 -99 -251 -137q-109 -20 -327 -20q-16 -90 -17 -135q0 -104 49.5 -161.5t138.5 -57.5t160.5 23.5t108.5 50t65.5 50t39.5 23.5t35 -26.5t24 -40t-19.5 -36t-60.5 -51t-93 -54.5 q-123 -60 -276 -60q-117 0 -211 68q-49 36 -77.5 109t-28.5 171zM444 584h68q395 0 395 151q0 35 -32.5 64.5t-104.5 29.5q-236 1 -326 -245zM686 1136q0 17 21.5 32.5t306.5 201.5q43 27 66 27t40 -18.5t17 -43.5q0 -43 -71.5 -86t-191.5 -115.5t-137 -72.5t-34 29t-17 46z " />
<glyph unicode="&#xea;" horiz-adv-x="1011" d="M252 336q0 254 150.5 434t388.5 180q106 0 174.5 -54t68.5 -142q0 -63 -42 -134q-59 -99 -251 -137q-109 -20 -327 -20q-16 -90 -17 -135q0 -104 49.5 -161.5t138.5 -57.5t160.5 23.5t108.5 50t65.5 50t39.5 23.5t35 -26.5t24 -40t-19.5 -36t-60.5 -51t-93 -54.5 q-123 -60 -276 -60q-117 0 -211 68q-49 36 -77.5 109t-28.5 171zM444 584h68q395 0 395 151q0 35 -32.5 64.5t-104.5 29.5q-236 1 -326 -245zM471 1078q0 17 33 40q311 238 320 241t16.5 3t17.5 -7t16.5 -14.5t17.5 -20.5t79.5 -96t87 -107.5t18.5 -41t-28.5 -42t-45 -25.5 t-31 14t-75.5 92l-80 105q-262 -205 -278 -209q-4 -2 -15.5 -2t-32 26.5t-20.5 43.5z" />
<glyph unicode="&#xeb;" horiz-adv-x="1011" d="M252 336q0 254 150.5 434t388.5 180q106 0 174.5 -54t68.5 -142q0 -63 -42 -134q-59 -99 -251 -137q-109 -20 -327 -20q-16 -90 -17 -135q0 -104 49.5 -161.5t138.5 -57.5t160.5 23.5t108.5 50t65.5 50t39.5 23.5t35 -26.5t24 -40t-19.5 -36t-60.5 -51t-93 -54.5 q-123 -60 -276 -60q-117 0 -211 68q-49 36 -77.5 109t-28.5 171zM444 584h68q395 0 395 151q0 35 -32.5 64.5t-104.5 29.5q-236 1 -326 -245zM518 1279q0 42 39 81t85 39t71.5 -26.5t25.5 -70.5t-41 -81t-84 -37t-69.5 26.5t-26.5 68.5zM918 1278q0 43 37.5 82t83.5 39 t72 -26.5t26 -70.5t-41 -81t-85 -37t-68.5 25.5t-24.5 68.5z" />
<glyph unicode="&#xec;" horiz-adv-x="671" d="M150 633q0 18 20 67.5t56 106.5t97.5 100t134.5 43t119 -48t46 -112.5t-100.5 -320.5t-100.5 -295q0 -63 53 -63q20 0 43 10t55.5 54t48 92.5t23.5 55.5t33 7h35q41 0 41 -25q0 -59 -87 -187t-216 -128q-72 0 -120 45t-48 111.5t99 323.5t99 291t-15 51t-36.5 17 t-44.5 -10t-55.5 -54t-48 -93.5t-25.5 -56.5t-37 -7h-29q-40 0 -40 25zM367 1321q0 27 24.5 51.5t50 24.5t54 -23.5t96.5 -91.5l104 -104q25 -25 25 -42t-28.5 -45t-43 -28t-48.5 26.5t-198 167.5q-36 37 -36 64z" />
<glyph unicode="&#xed;" horiz-adv-x="671" d="M150 633q0 18 20 67.5t56 106.5t97.5 100t134.5 43t119 -48t46 -112.5t-100.5 -320.5t-100.5 -295q0 -63 53 -63q20 0 43 10t55.5 54t48 92.5t23.5 55.5t33 7h35q41 0 41 -25q0 -59 -87 -187t-216 -128q-72 0 -120 45t-48 111.5t99 323.5t99 291t-15 51t-36.5 17 t-44.5 -10t-55.5 -54t-48 -93.5t-25.5 -56.5t-37 -7h-29q-40 0 -40 25zM516 1134.5q0 16.5 23.5 35t134 90t162 104.5t74 33t40 -18.5t17.5 -43.5q0 -43 -72 -86t-191.5 -115.5t-137 -72.5t-34 28.5t-16.5 45z" />
<glyph unicode="&#xee;" horiz-adv-x="671" d="M150 633q0 18 20 67.5t56 106.5t97.5 100t134.5 43t119 -48t46 -112.5t-100.5 -320.5t-100.5 -295q0 -63 53 -63q20 0 43 10t55.5 54t48 92.5t23.5 55.5t33 7h35q41 0 41 -25q0 -59 -87 -187t-216 -128q-72 0 -120 45t-48 111.5t99 323.5t99 291t-15 51t-36.5 17 t-44.5 -10t-55.5 -54t-48 -93.5t-25.5 -56.5t-37 -7h-29q-40 0 -40 25zM231 1078q0 17 33 40q311 238 320.5 241t17.5 3t18.5 -8t27 -28.5t99.5 -121t87 -110.5t4 -22.5t-31 -38t-47.5 -25.5t-46.5 36l-135 175q-274 -211 -289.5 -211t-36.5 26.5t-21 43.5z" />
<glyph unicode="&#xef;" horiz-adv-x="671" d="M150 633q0 18 20 67.5t56 106.5t97.5 100t134.5 43t119 -48t46 -112.5t-100.5 -320.5t-100.5 -295q0 -63 53 -63q20 0 43 10t55.5 54t48 92.5t23.5 55.5t33 7h35q41 0 41 -25q0 -59 -87 -187t-216 -128q-72 0 -120 45t-48 111.5t99 323.5t99 291t-15 51t-36.5 17 t-44.5 -10t-55.5 -54t-48 -93.5t-25.5 -56.5t-37 -7h-29q-40 0 -40 25zM348 1279q0 46 41 83t84 37t69.5 -25.5t26.5 -68.5t-38.5 -82t-83 -39t-72 24.5t-27.5 70.5zM745 1279q0 44 40 82t84 38t71 -25.5t27 -71.5t-41 -82t-84 -36t-70 25.5t-27 69.5z" />
<glyph unicode="&#xf0;" d="M213 315q0 218 151 423q72 96 187 157t234.5 61t211.5 -57q-39 152 -157 283l-193 -97l-35 103l133 67q-117 68 -219 91l111 75q141 -31 240 -98l198 98l33 -104l-137 -68q197 -197 196 -489q0 -156 -63 -349t-209.5 -308t-323 -115t-267.5 87.5t-91 239.5zM365 346.5 q0 -133.5 64.5 -182.5t170 -49t190 58t125.5 145q78 167 78 293t-65.5 175.5t-170 49.5t-188.5 -56.5t-126 -141.5q-78 -158 -78 -291.5z" />
<glyph unicode="&#xf1;" horiz-adv-x="1241" d="M150 634q0 26 26.5 93.5t53 112.5t72.5 77.5t81.5 32.5t58.5 -5t54 -19q69 -32 88 -140q150 164 325 164q98 0 166 -48t68 -157.5t-76 -328.5t-76 -242q0 -63 53 -63q49 0 91.5 56t64.5 132q8 23 18.5 27t57.5 4t47 -27t-31.5 -97.5t-107.5 -143t-159 -72.5t-128 48 t-45 105.5t74.5 269.5t74.5 300q0 117 -116 116q-100 0 -181 -71.5t-129.5 -182t-80 -217t-53 -204t-31.5 -117.5q-25 -47 -75 -47q-73 0 -46 104l147 590q10 51 10 77t-22.5 46t-51 20t-53 -46t-39 -100t-21.5 -63t-34 -10h-35q-40 0 -40 26zM588 1228q0 17 15 32.5 t33.5 33t25 23.5t26 23.5t30.5 25.5t30.5 20.5t33.5 18.5q39 16 81 16t99.5 -54t93.5 -54t100.5 53t77.5 53t37.5 -22.5t24.5 -38.5t-16 -32.5t-36.5 -37t-30 -29t-31 -27t-35.5 -27.5t-35 -20q-40 -22 -86.5 -22t-104 54.5t-92 54.5t-100 -53.5t-79 -53.5t-38 23t-24.5 40z " />
<glyph unicode="&#xf2;" d="M242 309q0 152 64.5 296.5t194.5 244.5t283.5 100t241.5 -85t88 -238q0 -106 -38 -218t-105.5 -206t-175 -154.5t-242.5 -60.5t-223 84.5t-88 236.5zM389 330q0 -130 57.5 -175.5t150.5 -45.5t175 62t121 153q76 179 76 296.5t-57.5 163t-148.5 45.5t-169 -56t-120 -141 q-85 -172 -85 -302zM592 1321q0 27 23.5 51.5t41 24.5t23.5 -1t14.5 -6.5t15.5 -10.5t19 -16t23.5 -21.5t31.5 -29.5l36 -38q21 -20 102 -98q25 -25 24.5 -41t-29 -44t-44 -28t-41 20.5t-203.5 173.5q-37 37 -37 64z" />
<glyph unicode="&#xf3;" d="M242 309q0 152 64.5 296.5t194.5 244.5t283.5 100t241.5 -85t88 -238q0 -106 -38 -218t-105.5 -206t-175 -154.5t-242.5 -60.5t-223 84.5t-88 236.5zM389 330q0 -130 57.5 -175.5t150.5 -45.5t175 62t121 153q76 179 76 296.5t-57.5 163t-148.5 45.5t-169 -56t-120 -141 q-85 -172 -85 -302zM741 1136q0 17 21.5 32.5t306.5 201.5q43 27 66 27t40 -18.5t17 -43.5q0 -43 -71.5 -86t-191.5 -115.5t-137 -72.5t-34 29t-17 46z" />
<glyph unicode="&#xf4;" d="M242 309q0 152 64.5 296.5t194.5 244.5t283.5 100t241.5 -85t88 -238q0 -106 -38 -218t-105.5 -206t-175 -154.5t-242.5 -60.5t-223 84.5t-88 236.5zM389 330q0 -130 57.5 -175.5t150.5 -45.5t175 62t121 153q76 179 76 296.5t-57.5 163t-148.5 45.5t-169 -56t-120 -141 q-85 -172 -85 -302zM526 1079q0 18 49.5 54t156 117t129 96.5t35.5 15.5t27.5 -15.5t67.5 -81t98 -119.5t45.5 -70.5t-29.5 -42t-46 -25.5t-30.5 14t-76.5 92l-80 105q-270 -211 -287 -211t-38 26.5t-21 44.5z" />
<glyph unicode="&#xf5;" d="M242 309q0 152 64.5 296.5t194.5 244.5t283.5 100t241.5 -85t88 -238q0 -106 -38 -218t-105.5 -206t-175 -154.5t-242.5 -60.5t-223 84.5t-88 236.5zM389 330q0 -130 57.5 -175.5t150.5 -45.5t175 62t121 153q76 179 76 296.5t-57.5 163t-148.5 45.5t-169 -56t-120 -141 q-85 -172 -85 -302zM530 1228q0 17 29 46l19 16q16 16 21 21.5t22.5 21t26.5 22.5t26.5 20.5t30 19.5t29.5 13q30 13 71 13t99.5 -54t93 -54t99 53t77.5 53t38 -22.5t25 -39.5t-15.5 -32.5t-34 -33t-24.5 -23.5t-25.5 -23.5t-30.5 -26t-30.5 -20.5t-34.5 -18 q-41 -17 -67 -17q-53 0 -110.5 54.5t-93.5 54.5t-100.5 -53.5t-77.5 -53.5t-38 23t-25 40z" />
<glyph unicode="&#xf6;" d="M242 309q0 152 64.5 296.5t194.5 244.5t283.5 100t241.5 -85t88 -238q0 -106 -38 -218t-105.5 -206t-175 -154.5t-242.5 -60.5t-223 84.5t-88 236.5zM389 330q0 -130 57.5 -175.5t150.5 -45.5t175 62t121 153q76 179 76 296.5t-57.5 163t-148.5 45.5t-169 -56t-120 -141 q-85 -172 -85 -302zM575 1278q0 43 38 82t84 39t72 -26.5t26 -68.5t-39 -81t-85 -39t-71 25.5t-25 68.5zM973 1279q0 42 39 81t85 39t70.5 -25.5t24.5 -68.5t-38 -82t-84 -39t-71.5 26.5t-25.5 68.5z" />
<glyph unicode="&#xf7;" horiz-adv-x="1695" d="M295 512q0 41 65 41h1225q70 0 70 -41t-60 -41h-1241q-59 0 -59 41zM723 28q0 52 46 99t101.5 47t88 -30.5t32.5 -85t-48 -101.5t-102 -47t-86 33t-32 85zM956 969q0 55 50.5 100t102.5 45t85 -31.5t33 -85t-48.5 -100.5t-103.5 -47t-87 32t-32 87z" />
<glyph unicode="&#xf8;" d="M121 -185q0 19 87 128.5t87 121t-13 37.5q-34 70 -34 206.5t65.5 297t196.5 274t295 113.5q88 0 168 -45l143 193q33 39 49.5 39t44 -18.5t27.5 -34t-20.5 -44t-161.5 -213.5v-2q55 -86 55 -207t-39 -244.5t-107.5 -229t-177 -174t-216 -68.5t-183.5 43h-2 q-164 -215 -172 -222.5t-22 -7.5t-42 19t-28 38zM377 285q0 -47 14 -99l502 660q-49 27 -125 26.5t-150.5 -49.5t-118.5 -119.5t-73 -156.5t-39 -150.5t-10 -111.5zM465 92q49 -27 106 -26q115 0 201 71.5t128 176.5q81 201 81 335q0 53 -14 103z" />
<glyph unicode="&#xf9;" horiz-adv-x="1183" d="M150 633q0 61 88 189t217 128q74 0 120 -48t46 -122q0 -39 -72 -237.5t-72 -294.5q0 -139 135 -139q84 0 158 80.5t113 234.5q115 455 118 463q27 51 77 51q75 0 46 -104l-141 -566q-14 -57 -14 -87.5t22.5 -50t51 -19.5t53 46t39 101t21.5 63q8 9 78 9q32 0 32 -25 q0 -40 -54 -161q-28 -62 -80.5 -108t-117.5 -46q-129 0 -174 121q-119 -123 -254 -123q-104 0 -176 52t-72 174t71.5 324.5t71.5 231.5t-16 44t-47 15t-70 -43q-43 -47 -72 -134q-10 -32 -16 -36t-15 -6t-19 -2h-27q-49 0 -49 25zM621 1321q0 27 23.5 51.5t40.5 24.5 t23.5 -1t14.5 -6.5t15 -10.5t19.5 -16t24 -21.5t30.5 -30t36.5 -37t46.5 -45t54.5 -53t25.5 -41.5t-28.5 -44t-44 -28t-41 20.5t-204.5 173.5q-36 37 -36 64z" />
<glyph unicode="&#xfa;" horiz-adv-x="1183" d="M150 633q0 61 88 189t217 128q74 0 120 -48t46 -122q0 -39 -72 -237.5t-72 -294.5q0 -139 135 -139q84 0 158 80.5t113 234.5q115 455 118 463q27 51 77 51q75 0 46 -104l-141 -566q-14 -57 -14 -87.5t22.5 -50t51 -19.5t53 46t39 101t21.5 63q8 9 78 9q32 0 32 -25 q0 -40 -54 -161q-28 -62 -80.5 -108t-117.5 -46q-129 0 -174 121q-119 -123 -254 -123q-104 0 -176 52t-72 174t71.5 324.5t71.5 231.5t-16 44t-47 15t-70 -43q-43 -47 -72 -134q-10 -32 -16 -36t-15 -6t-19 -2h-27q-49 0 -49 25zM772 1136q0 17 21.5 32.5t306.5 201.5 q43 27 65.5 27t40 -18.5t17.5 -43.5q0 -43 -72 -86t-191.5 -115.5t-137 -72.5t-34 29t-16.5 46z" />
<glyph unicode="&#xfb;" horiz-adv-x="1183" d="M150 633q0 61 88 189t217 128q74 0 120 -48t46 -122q0 -39 -72 -237.5t-72 -294.5q0 -139 135 -139q84 0 158 80.5t113 234.5q115 455 118 463q27 51 77 51q75 0 46 -104l-141 -566q-14 -57 -14 -87.5t22.5 -50t51 -19.5t53 46t39 101t21.5 63q8 9 78 9q32 0 32 -25 q0 -40 -54 -161q-28 -62 -80.5 -108t-117.5 -46q-129 0 -174 121q-119 -123 -254 -123q-104 0 -176 52t-72 174t71.5 324.5t71.5 231.5t-16 44t-47 15t-70 -43q-43 -47 -72 -134q-10 -32 -16 -36t-15 -6t-19 -2h-27q-49 0 -49 25zM557 1079q0 18 48.5 54t155 117t128.5 96.5 t35.5 15.5t30 -16.5t72.5 -86t96 -117.5t40 -64.5t-29.5 -43t-45 -26.5t-25.5 9t-39.5 46.5t-40.5 50.5l-82 105q-66 -49 -169 -130t-119.5 -81t-36 26.5t-19.5 44.5z" />
<glyph unicode="&#xfc;" horiz-adv-x="1183" d="M150 633q0 61 88 189t217 128q74 0 120 -48t46 -122q0 -39 -72 -237.5t-72 -294.5q0 -139 135 -139q84 0 158 80.5t113 234.5q115 455 118 463q27 51 77 51q75 0 46 -104l-141 -566q-14 -57 -14 -87.5t22.5 -50t51 -19.5t53 46t39 101t21.5 63q8 9 78 9q32 0 32 -25 q0 -40 -54 -161q-28 -62 -80.5 -108t-117.5 -46q-129 0 -174 121q-119 -123 -254 -123q-104 0 -176 52t-72 174t71.5 324.5t71.5 231.5t-16 44t-47 15t-70 -43q-43 -47 -72 -134q-10 -32 -16 -36t-15 -6t-19 -2h-27q-49 0 -49 25zM604 1279q0 42 39 81t85 39t70.5 -25.5 t24.5 -68.5t-37.5 -82t-83 -39t-72 26.5t-26.5 68.5zM1001 1279q0 42 39 81t85 39t72 -26.5t26 -68.5t-39 -81t-85 -39t-72 26.5t-26 68.5z" />
<glyph unicode="&#xfd;" horiz-adv-x="1069" d="M152 630.5q0 22.5 19 71t54 105.5t97.5 100t135.5 43t119 -49t46 -105.5t-73 -254t-73 -295.5q0 -137 135 -137q84 0 159 81.5t112 231.5q115 459 121 471q25 45 71 45q23 0 40.5 -15.5t17.5 -30.5t-11 -63l-196 -788q-39 -156 -99.5 -235t-134.5 -130q-121 -86 -254 -86 q-92 0 -151.5 47.5t-59.5 114.5t32 97t65 30t52 -17.5t19 -47t-33 -68.5q43 -35 97 -35q90 0 174 66.5t127 171.5q8 20 35 119q-102 -80 -207.5 -80t-177.5 52t-72 175t71.5 325.5t71.5 225.5q0 63 -53 63q-20 0 -43 -10t-55.5 -55t-49 -95.5t-28.5 -55.5t-56 -5t-44 22.5z M715 1136q0 17 21 32.5t306 201.5q43 27 66 27t40 -18.5t17 -43.5q0 -43 -71.5 -86t-191 -115.5t-137 -72.5t-34 29t-16.5 46z" />
<glyph unicode="&#xfe;" horiz-adv-x="1132" d="M8 -362q0 84 70 83h119l387 1549q-50 4 -83.5 4t-48.5 3q-26 5 -26 32q0 10 6 32v2q10 37 30 45q23 11 222 31l23 2q37 0 36.5 -27.5t-129.5 -543.5q154 100 318 100q109 0 161 -77.5t52 -203.5t-60.5 -304.5t-178.5 -276.5t-254 -98t-222 106l-94 -375h104 q35 0 45.5 -10t10.5 -28q0 -55 -31 -74q-10 -6 -33 -6h-375q-49 0 -49 35zM481 261q0 -43 35 -97.5t125 -54.5t169 67.5t116 165.5q69 183 69 293t-47 152t-123.5 42t-148.5 -53t-98 -104q-8 -16 -52.5 -192t-44.5 -219z" />
<glyph unicode="&#xff;" horiz-adv-x="1069" d="M152 630.5q0 22.5 19 71t54 105.5t97.5 100t135.5 43t119 -49t46 -105.5t-73 -254t-73 -295.5q0 -137 135 -137q84 0 159 81.5t112 231.5q115 459 121 471q25 45 71 45q23 0 40.5 -15.5t17.5 -30.5t-11 -63l-196 -788q-39 -156 -99.5 -235t-134.5 -130q-121 -86 -254 -86 q-92 0 -151.5 47.5t-59.5 114.5t32 97t65 30t52 -17.5t19 -47t-33 -68.5q43 -35 97 -35q90 0 174 66.5t127 171.5q8 20 35 119q-102 -80 -207.5 -80t-177.5 52t-72 175t71.5 325.5t71.5 225.5q0 63 -53 63q-20 0 -43 -10t-55.5 -55t-49 -95.5t-28.5 -55.5t-56 -5t-44 22.5z M547 1279q0 42 39 81t85 39t71.5 -25.5t25.5 -70.5t-41 -82t-84 -37t-69.5 26.5t-26.5 68.5zM946 1278q0 43 38 82t84 39t71.5 -26.5t25.5 -68.5t-39 -81t-85 -39t-70.5 25.5t-24.5 68.5z" />
<glyph unicode="&#x152;" horiz-adv-x="2166" d="M326 482.5q0 148.5 60 312t169 306t283 232.5t379 90q49 0 145 -12t190 -12h666l14 2q51 0 52 -43q0 -4 -10 -77q-34 -262 -40 -321t-17 -69t-59 -10t-49 43q0 6 7 61q22 158 22 246v33q-82 16 -262 16h-322l-122 -494h153q238 0 260 12.5t47 109t36 107.5t44 11t48.5 -9 t14.5 -25.5t-128 -520.5q-10 -43 -54 -43h-12q-57 0 -57 37q0 14 16.5 77.5t22.5 116.5q-92 8 -211 9h-209l-137 -547h286q276 2 318 20q8 4 20 14.5t52 94.5t81 186.5t50 116.5q18 33 53 33h22q45 0 45 -33q0 -16 -22.5 -68.5t-93 -224.5t-88 -210t-27.5 -44h-2 q-10 -6 -45 -6h-719q-82 0 -184.5 -11.5t-176 -11.5t-158.5 24t-168 76t-133 154.5t-50 251zM483 513q0 -200 109.5 -308.5t298.5 -108.5q145 0 201.5 68.5t107.5 277.5q20 80 78.5 313.5t74 303t15.5 130.5t-41 87.5t-137 26.5q-207 0 -372 -116t-250 -295t-85 -379z" />
<glyph unicode="&#x153;" horiz-adv-x="1581" d="M233 279q0 134 57.5 297t180.5 290t277 127q84 0 151.5 -50t91.5 -152q164 160 367 159q106 0 175 -54t69 -137t-55.5 -155t-178.5 -106.5t-393 -34.5q-16 -78 -17 -131q0 -121 57.5 -172t130 -51t132 23.5t93.5 50t60.5 50t37.5 23.5t36 -26.5t25 -44t-50 -63.5 t-147.5 -90t-197.5 -44q-211 0 -283 182q-63 -82 -96 -113q-123 -113 -262 -112q-61 0 -115.5 24.5t-100 100t-45.5 209.5zM377 237q0 -87 42 -129t85 -42t77.5 13t83 50t94.5 123t78 215t31 211q0 195 -143 194q-148 0 -251 -216q-36 -76 -66.5 -204t-30.5 -215zM1006 584 h67q401 0 402 151q0 35 -33 64.5t-105 29.5q-235 1 -331 -245z" />
<glyph unicode="&#x178;" horiz-adv-x="1615" d="M412 1317q4 66 34 78q8 4 29 4h373q49 0 49 -35q0 -47 -15.5 -63.5t-23.5 -18.5t-27 -2h-71l231 -588l527 588h-54q-53 0 -53 33q0 16 7 42t18.5 35t40.5 9h346l2 2q45 0 45 -37q0 -49 -16.5 -66.5t-55.5 -17.5h-102q-25 0 -36 -7t-44 -44l-569 -637q-35 -40 -44 -84 q-38 -169 -96 -387h117q35 0 45 -10.5t10 -31t-9 -44t-20 -29.5t-34 -6h-404q-49 0 -49 35q0 18 6 37q10 49 58 49h137q12 51 40 159q66 259 66 274t-8 40l-272 686h-123q-55 0 -55 37zM926 1705q0 42 39 81t84 39t71.5 -26.5t26.5 -68.5t-39 -81t-84 -39t-71.5 26.5 t-26.5 68.5zM1325 1704q0 45 38 83t84 38t71.5 -26.5t25.5 -69.5t-40 -81t-84 -38t-69.5 24.5t-25.5 69.5z" />
<glyph unicode="&#x2c6;" horiz-adv-x="1024" d="M481 1087.5q0 16.5 15.5 31t115 89t161 120.5t75.5 46t34 -22q50 -52 127.5 -148t77.5 -115t-30.5 -45t-45.5 -26t-32.5 18.5t-74 91t-79.5 101.5q-35 -27 -152.5 -119t-134.5 -92t-37 26.5t-20 43z" />
<glyph unicode="&#x2dc;" d="M532 1228q0 17 15.5 32.5t34 33t24.5 23.5t25.5 23.5t31 25.5t31 20.5t33.5 18.5q37 16 79 16t98.5 -54t86.5 -54h2q41 2 104.5 54t76.5 52t38 -22.5t25 -39.5t-15 -33l-36 -36q-64 -63 -87.5 -77.5t-44.5 -25.5q-40 -22 -85 -22t-102.5 54.5t-93.5 54.5t-100.5 -53.5 t-77.5 -53.5t-38 23t-25 40z" />
<glyph unicode="&#x2000;" horiz-adv-x="921" />
<glyph unicode="&#x2001;" horiz-adv-x="1843" />
<glyph unicode="&#x2002;" horiz-adv-x="921" />
<glyph unicode="&#x2003;" horiz-adv-x="1843" />
<glyph unicode="&#x2004;" horiz-adv-x="614" />
<glyph unicode="&#x2005;" horiz-adv-x="460" />
<glyph unicode="&#x2006;" horiz-adv-x="307" />
<glyph unicode="&#x2007;" horiz-adv-x="307" />
<glyph unicode="&#x2008;" horiz-adv-x="230" />
<glyph unicode="&#x2009;" horiz-adv-x="368" />
<glyph unicode="&#x200a;" horiz-adv-x="102" />
<glyph unicode="&#x2010;" horiz-adv-x="784" d="M184 441q0 38 21 75q12 20 45 21h440q53 0 53 -37q-8 -76 -36 -92q-10 -4 -31 -5h-440q-52 0 -52 38z" />
<glyph unicode="&#x2011;" horiz-adv-x="784" d="M184 441q0 38 21 75q12 20 45 21h440q53 0 53 -37q-8 -76 -36 -92q-10 -4 -31 -5h-440q-52 0 -52 38z" />
<glyph unicode="&#x2012;" horiz-adv-x="784" d="M184 441q0 38 21 75q12 20 45 21h440q53 0 53 -37q-8 -76 -36 -92q-10 -4 -31 -5h-440q-52 0 -52 38z" />
<glyph unicode="&#x2013;" d="M190 557q0 84 66 84h915q51 0 52 -37q0 -16 -8.5 -41.5t-18.5 -34.5q-14 -8 -33 -8h-923q-50 0 -50 37z" />
<glyph unicode="&#x2014;" horiz-adv-x="2252" d="M240 557q4 70 39 80q16 4 24 4h1940q55 0 55 -37q0 -49 -25 -74q-12 -10 -43 -10h-1941q-49 0 -49 37z" />
<glyph unicode="&#x2018;" horiz-adv-x="671" d="M442 919.5q0 55.5 9.5 107.5t61.5 156.5t117.5 169t80 64.5t37 -28.5t22.5 -40.5t-37 -48t-87 -109t-73 -167h7q49 0 71.5 -24.5t22.5 -67.5t-39 -84t-86 -41t-77 28.5t-30 84z" />
<glyph unicode="&#x2019;" horiz-adv-x="671" d="M457 881q0 12 37.5 49t86 109.5t70.5 164.5q-100 2 -100 86q0 49 39 90t86 41q106 0 106 -127q0 -106 -59 -225t-121.5 -187.5t-82 -68.5t-41 28t-21.5 40z" />
<glyph unicode="&#x201a;" horiz-adv-x="671" d="M156 -324q0 12 34.5 48t83 110t70.5 166q-94 4 -94 84q0 51 40 92t93 41q94 0 94 -114.5t-57.5 -234.5t-119.5 -190.5t-81.5 -70.5t-41 28.5t-21.5 40.5z" />
<glyph unicode="&#x201c;" horiz-adv-x="784" d="M282 919.5q0 55.5 9.5 107.5t61.5 156.5t117.5 169t80 64.5t37 -28.5t22.5 -40.5t-37 -48t-87 -109t-73 -167h7q49 0 71.5 -24.5t22.5 -67.5t-39 -84t-86 -41t-77 28.5t-30 84zM714 919.5q0 55.5 9.5 107.5t61.5 156.5t117.5 169t80 64.5t37 -28.5t22.5 -40.5t-37 -48 t-87 -109t-73 -167h7q49 0 71.5 -24.5t22.5 -67.5t-39 -84t-86 -41t-77 28.5t-30 84z" />
<glyph unicode="&#x201d;" horiz-adv-x="784" d="M299 881q0 12 37.5 49t86 109.5t70.5 164.5q-100 2 -100 86q0 49 39 90t86 41q106 0 106 -127q0 -106 -59 -225t-121.5 -187.5t-82 -68.5t-41 28t-21.5 40zM729 881q0 12 37.5 49t86 109.5t70.5 164.5q-100 2 -100 86q0 49 39 90t86 41q106 0 106 -127q0 -106 -59 -225 t-121.5 -187.5t-82 -68.5t-41 28t-21.5 40z" />
<glyph unicode="&#x201e;" horiz-adv-x="784" d="M0 -324q0 12 37 48t86 109t72 167q-100 2 -101 84q0 51 40 92t86 41q106 0 106 -129q0 -84 -36 -175t-83 -155.5t-90 -107.5t-58.5 -43t-37 28.5t-21.5 40.5zM430 -323q0 11 23.5 37t54.5 57.5t64.5 93t52.5 135.5q-98 2 -99 84q0 51 40 92t86 41q106 0 106 -129 q0 -84 -36 -175t-83 -155.5t-90 -107.5t-58.5 -43t-38 29.5t-22.5 40.5z" />
<glyph unicode="&#x2022;" d="M279 406q0 195 140 349t361 154q147 0 234.5 -76.5t87.5 -214.5q0 -190 -138.5 -346.5t-363.5 -156.5q-147 0 -234 77t-87 214z" />
<glyph unicode="&#x2026;" horiz-adv-x="2015" d="M252 94q0 43 39 83t85 40t71.5 -25.5t25.5 -67.5t-40 -83t-86 -41t-70.5 25.5t-24.5 68.5zM924 94q0 43 39 83t85 40t71.5 -25.5t25.5 -67.5t-40 -83t-86 -41t-70.5 25.5t-24.5 68.5zM1595 94q0 43 39 83t85 40t71.5 -25.5t25.5 -67.5t-40 -83t-86 -41t-70.5 25.5 t-24.5 68.5z" />
<glyph unicode="&#x202f;" horiz-adv-x="368" />
<glyph unicode="&#x2039;" horiz-adv-x="1011" d="M414 523q0 11 41 46q129 104 228 218t143 181.5t53.5 72.5t57.5 5.5t48 -16t-44 -85t-151.5 -191.5t-238.5 -234q90 -121 136 -270.5t46 -220.5q0 -16 -9 -22.5t-38 -6.5h-29q-29 0 -35 10t-12 41q-23 141 -72 250t-86.5 160t-37.5 62z" />
<glyph unicode="&#x203a;" horiz-adv-x="1011" d="M285 18.5q0 18.5 49 92t154.5 192.5t230.5 223q-90 121 -136 270.5t-46 221.5q0 16 9 22.5t38 6.5h28q34 0 41 -21q2 -6 2 -8l4 -23q18 -111 52 -203t66 -139q79 -116 79 -128.5t-41 -47.5q-131 -106 -230.5 -220t-142.5 -180.5t-52 -71.5t-34 -5h-28q-43 0 -43 18.5z " />
<glyph unicode="&#x205f;" horiz-adv-x="460" />
<glyph unicode="&#x20ac;" horiz-adv-x="1581" d="M193 551q0 10 17 34.5t21.5 32t5.5 9.5t5 7t6 6t6 4t6 4t7 3t9 2h166l23 95h-180q-39 0 -39 16q0 10 16 37q41 59 51 63t29 4h172q115 233 341 382t468 149q125 0 231.5 -46t153.5 -92.5t47 -64.5t-31.5 -63.5t-46.5 -45.5q-8 0 -34.5 28t-63.5 59.5t-112.5 59.5 t-168.5 28q-188 0 -364 -111t-275 -283h826q31 0 31 -16t-43 -78q-18 -27 -60 -26h-809q-10 -33 -22 -95h749q37 0 37 -18q0 -16 -45 -76q-20 -27 -57 -27h-693q14 -182 134 -288.5t305 -106.5q94 0 189 26.5t151.5 57.5t105.5 62.5t58 34.5t15.5 -8t2.5 -25t-8 -31.5 t-5 -23t-4.5 -15.5t-5.5 -13t-7 -10q-9 -11 -21 -20q-236 -172 -489 -172t-406.5 147.5t-155.5 384.5h-174l-27 -2q-38 1 -38 21z" />
<glyph unicode="&#x2122;" horiz-adv-x="1468" d="M229 1478q0 60 76 60l25 -2h479q98 0 98 -59.5t-78 -59.5h-213l-2 -2q-6 -27 -18 -76l-129 -518q-18 -74 -68 -73q-23 0 -40 17t-17 35.5t28.5 134.5t67.5 267.5t54 214.5h-187q-76 1 -76 61zM797 807l6 37l135 538q28 127 36.5 140.5t15.5 21.5q13 15 44 15t49 -46 q8 -20 91 -313q49 61 143 184.5t117.5 149t48 25.5t42 -17.5t17.5 -35t-6 -42.5l-162 -651q-12 -66 -63 -65q-25 0 -42.5 16t-17.5 39.5t103 431.5q-27 -35 -86.5 -112.5t-78 -96t-48 -18.5t-49 44t-60.5 212q-8 -38 -42 -169.5t-68 -275.5q-18 -72 -66 -71q-25 0 -42 17 t-17 42z" />
<glyph unicode="&#xe000;" horiz-adv-x="952" d="M0 0v952h952v-952h-952z" />
</font>
</defs>
</svg>
